<?xml version="1.0" encoding="utf-8"?>
<!-- Generator: Adobe Illustrator 22.0.1, SVG Export Plug-In . SVG Version: 6.00 Build 0)  -->
<svg version="1.1" id="Untitled-Page_x25_201" xmlns="http://www.w3.org/2000/svg" xmlns:xlink="http://www.w3.org/1999/xlink"
	 x="0px" y="0px" viewBox="0 0 210 85" style="enable-background:new 0 0 210 85;" xml:space="preserve">
<style type="text/css">
	.st0{fill:none;}
	.st1{fill:none;enable-background:new    ;}
	.st2{opacity:0.48;}
	.st3{fill:#B9AB78;}
	.st4{fill:url(#SVGID_1_);}
	.st5{fill:url(#SVGID_2_);}
	.st6{fill:url(#SVGID_3_);}
	.st7{fill:url(#SVGID_4_);}
	.st8{fill:url(#SVGID_5_);}
	.st9{fill:url(#SVGID_6_);}
	.st10{fill:url(#SVGID_7_);}
	.st11{fill:url(#SVGID_8_);}
	.st12{fill:url(#SVGID_9_);}
	.st13{fill:url(#SVGID_10_);}
	.st14{fill:url(#SVGID_11_);}
	.st15{fill:url(#SVGID_12_);}
	.st16{fill:url(#SVGID_13_);}
	.st17{fill:url(#SVGID_14_);}
	.st18{fill:url(#SVGID_15_);}
	.st19{fill:url(#SVGID_16_);}
	.st20{fill:url(#SVGID_17_);}
	.st21{fill:url(#SVGID_18_);}
	.st22{fill:url(#SVGID_19_);}
	.st23{fill:url(#SVGID_20_);}
	.st24{fill:url(#SVGID_21_);}
	.st25{fill:url(#SVGID_22_);}
	.st26{fill:#562811;}
	.st27{fill:url(#SVGID_23_);}
	.st28{fill:url(#SVGID_24_);}
	.st29{fill:url(#SVGID_25_);}
	.st30{fill:url(#SVGID_26_);}
	.st31{fill:url(#SVGID_27_);}
	.st32{fill:url(#SVGID_28_);}
	.st33{fill:url(#SVGID_29_);}
	.st34{fill:url(#SVGID_30_);}
	.st35{fill:url(#SVGID_31_);}
	.st36{fill:url(#SVGID_32_);}
	.st37{fill:url(#SVGID_33_);}
	.st38{fill:url(#SVGID_34_);}
	.st39{fill:url(#SVGID_35_);}
	.st40{fill:url(#SVGID_36_);}
</style>
<path class="st0" d="z"/>
<path class="st0" d="z"/>
<path class="st1" d="M13.5,2.3"/>
<path class="st1" d="M13.5,2.3"/>
<g class="st2">
	<g>
		<path class="st3" d="M132.7,23.1c0.3,2.6,1.2,5,2.4,7.3l0,0C134,28.1,133.4,25.6,132.7,23.1C132.7,23,132.7,23,132.7,23.1z
			 M134.8,24.5L134.8,24.5c0,0.4-0.1,0.7,0.1,1c0.1,0.1,0.3,0,0.3-0.1C135.4,25,135,24.8,134.8,24.5z M138,26.3
			c-0.9-3.7-2.1-7.2-3.1-10.9l0,0c0.8,3.7,1.6,7.4,2.9,10.9C137.9,26.4,138,26.4,138,26.3z M154.2,48.4c0-0.1,0-0.1,0.1-0.2
			c0-0.1,0.1-0.1,0.1-0.2l0,0c-0.1,0.1-0.1,0.1-0.1,0.1c-0.1,0-0.1,0-0.1,0c-0.1,0-0.1,0.1-0.1,0.1l0,0l0,0l-0.1,0.1
			c-0.1,0.1-0.1,0.1,0.1,0.1C153.9,48.6,154.2,48.6,154.2,48.4z M136.2,24.4C136.2,24.5,136.3,24.5,136.2,24.4
			c-0.4-1.9-1-3.7-1.3-5.5l0,0C135.1,20.8,135.4,22.6,136.2,24.4z M153.8,48.8c-0.1,0-0.2,0.1-0.3,0.1c-0.1,0-0.1,0.1,0,0.2
			c0.1,0.1,0.2,0.1,0.4,0.1s0.2-0.1,0.4-0.1c0.2-0.1,0.4-0.3,0.6-0.5l0,0c-0.2,0.1-0.4,0.2-0.7,0.2C154,48.8,153.9,48.8,153.8,48.8z
			 M151.3,51.9C151.3,51.8,151.3,51.9,151.3,51.9c-0.1,0.1-0.1,0.1-0.1,0.1l0,0c0,0-0.1,0,0,0c0,0.1,0,0.1,0,0.1
			c0,0.1,0.2,0.2,0.3,0.1c0.1,0,0.1-0.1,0.1-0.1C151.9,52,151.6,51.6,151.3,51.9z M149,53.2c-0.1,0.1,0,0.3,0,0.4s0,0.2-0.1,0.4
			c0.2,0.2,0.4,0.4,0.7,0.5h0.1c0.2,0.1,0.4,0.1,0.6,0.2c0.1,0.1,0.3,0.1,0.4,0.1c0.2,0,0.4-0.1,0.3-0.3c0-0.1-0.1-0.2-0.1-0.3
			c-0.1-0.2-0.3-0.4-0.4-0.5c-0.1-0.1-0.3-0.2-0.4-0.4C149.8,53.2,149.2,52.6,149,53.2z M150.9,52.1c0-0.1-0.1-0.2-0.2-0.2
			c-0.1,0-0.2,0.1-0.1,0.2l0,0c0,0.1,0.1,0.2,0.3,0.1C150.9,52.3,150.9,52.2,150.9,52.1z M127.7,23.7c0-0.1-0.1-0.1-0.1-0.1
			c-0.1-0.1-0.1,0-0.1,0.1s0,0.1,0,0.1c0,0.1,0.1,0.1,0.1,0.1l0,0C127.7,23.8,127.7,23.7,127.7,23.7z M152.9,53.5
			c-0.2-0.1-0.5-0.1-0.7,0.1c-0.1,0.1-0.1,0.3-0.1,0.5c-0.3-0.1-0.7-0.2-0.9,0c-0.1,0.1-0.1,0.1-0.1,0.1c0,0.3,0.4,0.4,0.6,0.6
			c0.1,0.1,0.2,0.3,0.4,0.4c0.1,0.1,0.1-0.1,0.4,0.1c0.1,0,0.1,0.1,0.1,0.1c0.2,0.1,0.5,0.1,0.5-0.3c0-0.1,0-0.1-0.1-0.1
			c0-0.4-0.3-0.8-0.1-1.2c0.1-0.1,0.1-0.1,0.2-0.2c0-0.1,0.1-0.1,0.1-0.2c0-0.1,0-0.1,0-0.2c0.1-0.1,0.1-0.1,0-0.1
			C153,52.9,153,53.3,152.9,53.5z M153,53.6C153,53.6,153.1,53.5,153,53.6C153.1,53.6,153,53.6,153,53.6z M132.1,23.3
			C132.1,23.3,132,23.3,132.1,23.3c-0.1,1.6,0.4,3.1,1.1,4.6l0,0C132.7,26.4,132.4,24.8,132.1,23.3z M148.2,51.4
			c0.1,0.3,0.4,0.4,0.6,0.5c0.2,0.1,0.7,0.3,0.8,0.1c0.1-0.1,0.1-0.2-0.1-0.4c-0.1-0.1-0.1-0.1-0.2-0.1c-0.2-0.1-0.4-0.4-0.6-0.4
			C148.5,50.9,148.1,51,148.2,51.4z M134.4,23.3c0,0.1,0.1,0,0.1-0.1c-0.2-1.2-0.4-2.3-0.2-3.4l0,0C133.9,21,133.9,22.2,134.4,23.3z
			 M137.1,14.8c1.9,6.2,3.8,12.4,5.4,18.7h0.1C141.3,27.1,139.5,20.9,137.1,14.8C137.2,14.8,137.1,14.8,137.1,14.8z M145.8,28.5
			c-0.4-4-1.6-7.5-3.4-11l0,0C143.9,20.9,145.1,24.7,145.8,28.5C145.7,28.5,145.8,28.5,145.8,28.5z M157.7,51.1
			c-0.1,0.1-0.1,0.1-0.1,0.2c0.1,0.1,0.2,0.3,0.4,0.4s0.2,0.4,0.4,0.4c0.1,0.1,0.2,0,0.2-0.1c0.1-0.2-0.1-0.5-0.3-0.7
			C158.2,51.2,157.9,50.9,157.7,51.1z M139.9,15.9c2.4,5.2,3.7,10.8,4.9,16.4c0,0.1,0.1,0.1,0.1,0C144.5,26.5,142.5,21,139.9,15.9
			L139.9,15.9z M151.3,49.5c0.1,0.1,0.2,0.1,0.3,0.2c0.1,0.1,0.2,0.1,0.4,0.1c0.2,0,0.2-0.3,0.1-0.4c-0.1-0.1-0.2,0-0.4,0
			C151.6,49.5,151.5,49.5,151.3,49.5L151.3,49.5z M139.5,18.1C139.5,18.1,139.4,18.1,139.5,18.1c1.3,4.3,2.6,8.5,3.7,12.8
			c0,0,0.1,0,0,0C142.2,26.5,141,22.3,139.5,18.1z M138.8,28.9c-0.1-0.3-0.1-0.7-0.1-1c-0.1-0.3-0.2-0.5-0.4-0.7h-0.1
			c0.1,0.3,0.1,0.6,0.1,0.9C138.4,28.4,138.6,28.7,138.8,28.9C138.7,29.1,138.8,29,138.8,28.9z M156.9,47.8
			C156.9,47.8,156.9,47.7,156.9,47.8c0.1-0.1,0.1-0.1,0-0.1v-0.1c0,0,0-0.1-0.1,0c0,0-0.1,0-0.1,0.1c-0.1,0-0.1,0-0.1,0l0,0
			l-0.1,0.1c-0.1,0.1,0.1,0.3,0.2,0.2l0,0C156.9,47.9,156.9,47.8,156.9,47.8z M150.1,48.7c-1.3,0.6-3.1,0.5-4.3,0c0,0-0.1,0.1,0,0.1
			C147.2,49.6,148.6,49.6,150.1,48.7C150.1,48.7,150.1,48.7,150.1,48.7z M150.4,49.2C150.4,49.2,150.4,49.1,150.4,49.2
			c-0.5,0.3-1,0.4-1.5,0.4c-0.6,0.1-1.1,0.2-1.7,0.1c-0.1,0-0.1,0.1,0,0.1c0.5,0.1,1.2,0.4,1.8,0.2C149.5,49.9,150,49.5,150.4,49.2z
			 M141.6,34.5c-1.2-4.3-2.4-8.6-3.7-12.8c-1.3-4.3-2.6-8.5-3.7-12.8l0,0c1.2,4.3,2.2,8.7,3.4,12.9C138.8,26,140.1,30.3,141.6,34.5
			C141.6,34.5,141.6,34.5,141.6,34.5z M159.2,49.2c0,0.1,0,0.1,0.1,0.2c0.1,0.1,0.2,0.1,0.3,0.1c0.1,0.1,0.1,0.1,0.1,0.2
			c0.1,0.2,0.4,0.3,0.5,0.1c0.1-0.2-0.1-0.6-0.3-0.7C159.8,48.9,159.4,48.7,159.2,49.2z M138.8,33.8L138.8,33.8
			c0.1-0.1,0-0.2-0.1-0.3h-0.1l0,0c-0.9-1.5-1.7-3-2.5-4.6l0,0c0.7,1.6,1.3,3.2,2.2,4.8c0,0.1,0,0.1,0.1,0.1v0.1h0.1l0,0h0.1
			C138.7,33.9,138.8,33.9,138.8,33.8z M140.1,32.7c0.1-0.1,0-0.1-0.1-0.2C139.8,32.4,139.8,32.7,140.1,32.7
			C140.1,32.7,140.1,32.7,140.1,32.7C140.1,32.7,140.1,32.7,140.1,32.7C140.1,32.7,140.1,32.7,140.1,32.7z M158.9,50.5L158.9,50.5
			L158.9,50.5c0.1,0.1,0.1,0.1,0.1,0.1c0,0,0,0.1,0.1,0.1c0,0.1,0.1,0.1,0.1,0.1c0.1,0.1,0.1,0.1,0.2,0c0.2-0.1,0.1-0.4,0-0.6
			c-0.1-0.1-0.4-0.2-0.5-0.1C158.8,50.3,158.8,50.4,158.9,50.5z M154.8,49.3c-0.3,0.2-0.7,0.2-1,0.2c-0.3,0-0.7,0.1-1,0
			c-0.1,0-0.1,0.1-0.1,0.1c0.4,0.2,0.7,0.4,1.1,0.3C154.2,49.9,154.5,49.6,154.8,49.3L154.8,49.3z M152.3,49.9c-0.1-0.1-0.1,0-0.3,0
			c-0.1,0-0.2,0-0.3,0s-0.1,0.1,0,0.1s0.1,0.1,0.3,0.1c0.1,0,0.1,0.1,0.2,0.1s0.1-0.1,0.1-0.1S152.4,50,152.3,49.9z M150.4,49.9
			c-0.4,0.3-1,0.3-1.6,0.4c-0.1,0-0.1,0.1,0,0.1C149.4,50.6,149.9,50.3,150.4,49.9L150.4,49.9z M168.3,23.5c2.2-2.4,4.3-4.8,6.3-7.3
			l0,0C172.4,18.6,170.4,20.9,168.3,23.5L168.3,23.5z M166.5,62.3c6.5,2.5,13.6,3.5,20.4,5l0,0C180.1,65.6,173.3,63.8,166.5,62.3
			C166.5,62.2,166.5,62.2,166.5,62.3z M189.5,68c1.9,0.5,4,1.3,5.9,1.5c0.1,0,0.1-0.1,0-0.1C193.6,68.6,191.5,68.4,189.5,68
			C189.5,68,189.5,68,189.5,68z M192.9,60.7c0.4,0.2,0.7,0.4,1,0.7c0.3,0.2,0.5,0.4,0.8,0.7c0.1,0,0.1,0,0.1-0.1
			C194.4,61.4,193.5,61,192.9,60.7L192.9,60.7z M183.8,45.2C183.7,45.2,183.7,45.2,183.8,45.2c0.1,0,0.4,0,0.5,0
			c0.1,0,0.3,0.1,0.4-0.1c0.1-0.1,0.1-0.2,0-0.2c-0.1,0-0.3,0-0.4,0.1C184.1,45.1,183.9,45.1,183.8,45.2z M171.1,54.5
			c-1-0.1-2.1-0.4-3.2-0.5c0.1,0.3,0.1,0.7-0.1,0.8c1,0.1,2.2,0.2,3.2,0.4c2.1,0.3,4.1,0.7,6.1,1c4,0.7,7.9,1.8,11.8,3.1l0,0
			c-3.9-1.4-7.8-2.6-11.9-3.6C175,55.2,173,54.8,171.1,54.5z M188.5,68.9c2.2,0.5,4.3,1.2,6.6,1.5c0.1,0,0.1-0.1,0-0.1
			C193,69.6,190.7,69.3,188.5,68.9L188.5,68.9z M186.6,52.6c3.1,1.3,5.4,3.6,7.6,6.1h0.1C192.5,55.8,189.6,53.8,186.6,52.6
			L186.6,52.6z M193.7,61.9c0.2,0.1,0.4,0.3,0.6,0.4c0.1,0.1,0.2,0.3,0.4,0.4c0.1,0,0.1-0.1,0.1-0.1c-0.1-0.1-0.3-0.3-0.4-0.4
			C194.1,62.1,193.9,62,193.7,61.9C193.7,61.9,193.6,61.9,193.7,61.9z M185.1,69.2c3,0.8,6.1,1.9,9.2,2.1c0.1,0,0.1-0.1,0-0.1
			C191.3,70.3,188.1,70,185.1,69.2L185.1,69.2z M178,74.8c1.1,0.3,2.2,0.5,3.4,0.8l0,0C180.1,75.2,179.2,74.9,178,74.8
			C177.9,74.8,177.9,74.8,178,74.8z M181.5,75c-1.5-0.5-3-0.9-4.6-1.3c-0.1,0-0.1,0.1,0,0.1C178.4,74.3,179.9,74.7,181.5,75
			L181.5,75z M184.7,73.9c0.7,0.4,1.7,1,2.5,1c0.1,0,0.1-0.1,0.1-0.1c-0.4-0.1-0.7-0.2-1.2-0.3C185.7,74.3,185.1,74.2,184.7,73.9
			C184.7,73.9,184.7,73.9,184.7,73.9z M181.3,73.9c1.5,0.7,2.9,1.3,4.6,1.5c0.1,0,0.1-0.1,0-0.1C184.4,74.8,182.8,74.5,181.3,73.9
			L181.3,73.9z M184.8,70.3c2.5,0.9,5.2,1.8,8,1.9c0.1,0,0.1-0.1,0-0.1C190.1,71.5,187.4,71.1,184.8,70.3
			C184.8,70.3,184.8,70.3,184.8,70.3z M184.8,72.8c1.3,0.7,2.7,1.2,4.1,1.3c0.1,0,0.1-0.1,0-0.2C187.6,73.6,186.3,73.4,184.8,72.8
			L184.8,72.8z M186.3,72c1.5,0.4,3,1,4.6,1.3c0.1,0,0.1-0.1,0.1-0.1C189.4,72.6,187.7,72.4,186.3,72L186.3,72z M182.7,44.9
			c0.3-0.1,0.6-0.1,1-0.1c0.2,0,0.5-0.1,0.7-0.1c0.1-0.1,0.1-0.3-0.1-0.3C183.7,44.4,183.2,44.7,182.7,44.9
			C182.6,44.9,182.7,44.9,182.7,44.9z M171.6,21.3C171.6,21.3,171.6,21.3,171.6,21.3c2.2-2.4,4.3-4.9,6.3-7.3l0,0
			C175.7,16.3,173.6,18.7,171.6,21.3z M175,15.8C174.9,15.8,175,15.9,175,15.8c3.1-2.8,6-5.9,9-8.9l0,0
			C180.9,9.7,177.8,12.7,175,15.8z M183.4,43.8c-0.6,0.1-1.2,0.4-1.8,0.7l0,0c0.7-0.1,1.6-0.1,2.2-0.4c0.1-0.1,0.1-0.2-0.1-0.2
			C183.6,43.8,183.6,43.8,183.4,43.8c0.1-0.1,0.1-0.1,0-0.1c-0.8-0.3-1.5-0.1-2.3,0.2c-1.1,0.4-2.2,1-3.3,1.5l0,0
			c0.8-0.3,1.6-0.6,2.5-0.9C181.4,44.1,182.4,43.6,183.4,43.8z M165.9,32.6C165.9,32.7,166,32.7,165.9,32.6
			c4.1-3.4,7.8-7.1,11.1-11.3c2.1-2.6,4-5.2,6.1-7.8l0,0C177.6,20,172.2,26.8,165.9,32.6z M174,11.9c0.1-0.1-0.1-0.2-0.1-0.1
			c-1.3,1.3-2.3,2.7-3.4,4c-1.1,1.4-2.3,2.7-3.5,4l0,0C169.4,17.4,172.2,14.9,174,11.9z M181.1,17.9c2.9-3.7,5.5-7.5,7.6-11.7l0,0
			C186.3,10.1,183.8,14.1,181.1,17.9C181,17.9,181,17.9,181.1,17.9z M169.5,18.7c2.2-2.2,4.3-4.4,5.9-7.1c0-0.1,0-0.1-0.1-0.1
			C173.3,13.9,171.5,16.4,169.5,18.7C169.4,18.7,169.5,18.7,169.5,18.7z M172.5,16.7L172.5,16.7c1-1.1,1.9-2.2,3-3.2
			c0.9-1,1.9-1.9,2.7-2.9c0,0,0-0.1-0.1-0.1c-1.1,0.7-2.1,1.9-3,2.9C174.2,14.5,173.3,15.6,172.5,16.7z M177.8,16.7L177.8,16.7
			c-0.7,0.7-1.5,1.5-2.2,2.4c0,0,0,0.1,0.1,0C176.5,18.3,177.2,17.5,177.8,16.7z M185.7,12.8C185.7,12.9,185.7,12.9,185.7,12.8
			c1.2-1.6,2.6-3.4,3.1-5.4c0,0-0.1-0.1-0.1,0C187.7,9.2,186.9,11.1,185.7,12.8z M186.3,22.8c-1.9,3.1-3.9,6.3-6.1,9.3l0,0
			c2.4-2.9,4.6-5.9,6.3-9.3C186.5,22.8,186.3,22.7,186.3,22.8z M185.4,45.8c0.1-0.1-0.1-0.3-0.2-0.3c-0.1,0-0.1,0-0.1,0.1
			c-0.2,0.1-0.1,0.4,0.1,0.4c0.1,0,0.1,0,0.1,0l0,0C185.4,45.9,185.4,45.9,185.4,45.8z M186,18.4c-0.3,0.5-0.6,1.1-0.9,1.6l0,0
			c0.4-0.5,0.8-1,1.3-1.5c0.4-0.4,0.5-0.9,0.8-1.3c0-0.1-0.1-0.1-0.1-0.1C186.7,17.5,186.3,17.9,186,18.4z M182.9,25.9
			C182.9,25.9,182.9,25.9,182.9,25.9c1.5-1.8,3.1-3.7,4-5.7c0-0.1-0.1-0.1-0.1-0.1C185.4,22,184.3,24.1,182.9,25.9z M187.1,14.6
			c-1.6,2.5-3.1,5.1-5.1,7.5l0,0c2.1-2.2,4.1-4.6,5.2-7.4C187.2,14.6,187.1,14.5,187.1,14.6z M185.7,13.3c-1,1.2-1.6,2.5-2.6,3.8
			l0,0C184.1,15.9,185.1,14.7,185.7,13.3C185.7,13.3,185.7,13.2,185.7,13.3z M180.6,21.8c2.5-2.6,4.6-5.4,6.3-8.6
			c0-0.1-0.1-0.1-0.1-0.1C184.8,16.1,182.8,19.1,180.6,21.8L180.6,21.8z M158.5,51c0,0.1,0.1,0.1,0.1,0.1c0.1,0.1,0.3-0.1,0.2-0.2
			c0-0.1-0.1-0.1-0.1-0.1C158.7,50.6,158.4,50.8,158.5,51z M131.9,22.7C131.9,22.8,132,22.8,131.9,22.7c0.1-2.5,0.2-5.1,0.5-7.7l0,0
			C132,17.6,131.7,20.1,131.9,22.7z M131,23C131,23.1,131,23.1,131,23c0.1-2.2,0.1-4.5,0.5-6.6l0,0C131,18.6,130.7,20.8,131,23z
			 M127.7,22c0-0.3,0-0.7,0.1-1l0,0c-0.1,0.3-0.3,0.7-0.3,1c-0.1,0.3,0,0.5,0.1,0.8c0,0.1,0.1,0,0.1,0
			C127.7,22.6,127.7,22.3,127.7,22z M132.7,22.5c0.4-3.2,0.4-6.5,0.6-9.8l0,0c-0.3,3.2-0.7,6.5-0.7,9.8
			C132.5,22.5,132.7,22.6,132.7,22.5z M130,35.1c-1.7-3.1-3.1-6.6-3.3-10.2c-0.1-3.8,0.8-7.5,1.7-11.2l0,0
			c-1.1,3.7-2.3,7.5-2.1,11.4C126.6,28.7,128,32.1,130,35.1C130,35.1,130.1,35.1,130,35.1z M116.5,40.1c-0.6-0.5-1.1-1.1-1.7-1.6
			c-0.7-0.5-1.5-0.9-2.2-1.3c0,0-0.1,0,0,0.1c0.7,0.4,1.3,1,1.9,1.4C115.1,39.2,115.8,39.6,116.5,40.1L116.5,40.1z M135,14.1
			c-0.6-2.6-1.1-5.4-2-7.9c0-0.1-0.1-0.1-0.1,0C133.3,8.9,134.2,11.5,135,14.1C134.9,14.1,135,14.1,135,14.1z M127.4,31.2
			c-2.4-4.8-1.8-11-0.1-15.9l0,0C125.2,20.3,124.5,26.5,127.4,31.2C127.4,31.3,127.4,31.2,127.4,31.2z M147.9,13.8
			c0.4,0.7,1.1,1.2,1.2,2l0,0C149.2,14.9,148.6,14.2,147.9,13.8C148,13.7,147.9,13.7,147.9,13.8z M140.3,9.4c0.3,0.5,0.5,1.1,1,1.6
			c0,0.1,0.1,0,0.1-0.1C141.1,10.3,140.7,9.8,140.3,9.4C140.3,9.3,140.3,9.4,140.3,9.4z M136.9,14.4C136.9,14.4,137,14.4,136.9,14.4
			c-0.4-2.5-1.5-4.9-2.6-7.2l0,0C135.4,9.5,136,11.9,136.9,14.4z M142,10.9c0.1,0.1,0.3,0,0.2-0.1c-0.1-0.3-0.3-0.5-0.5-0.7l0,0
			C141.7,10.3,141.9,10.6,142,10.9z M140.2,11.1c0.1,0.1,0.1,0,0.1-0.1c-0.2-1-0.9-1.9-1.5-2.7l0,0C139.3,9.2,139.7,10.3,140.2,11.1
			z M119,40.2c-2.6-2.1-5.2-4-8.2-5.5c0,0-0.1,0,0,0.1C113.5,36.5,116.3,38.3,119,40.2L119,40.2z M137.2,12.3
			C137.2,12.4,137.3,12.4,137.2,12.3c-0.1-1.5-0.7-2.8-1.5-4.1l0,0C136.3,9.5,136.7,10.9,137.2,12.3z M137.8,9.5
			c-0.2-0.4-0.5-0.7-0.7-1l0,0c0.1,0.4,0.4,0.7,0.6,1.1C137.7,9.6,137.9,9.5,137.8,9.5z M138.9,10.3C139,10.3,139.1,10.3,138.9,10.3
			c-0.2-0.7-0.7-1.3-1.1-1.9l0,0C138.2,9,138.6,9.7,138.9,10.3z M131.8,69.7c-0.1-0.1-0.1-0.2-0.1-0.3c0.1-0.4,0.4-0.9,0.7-1.3
			c0.3-0.4,0.5-0.9,0.8-1.3l0,0c-0.4,0.7-1,1.3-1.4,1.9c-0.1,0.1-0.2,0.3-0.2,0.4c-0.1-0.1-0.4-0.1-0.6-0.2l0,0
			c0.2,0.1,0.3,0.2,0.4,0.4c0.1,0.1,0.1,0.1,0.1,0.2l0,0c0,0,0,0.1,0.1,0.1h0.1C131.7,69.7,131.8,69.7,131.8,69.7
			C131.8,69.8,131.8,69.8,131.8,69.7z M152.7,65.6C152.7,65.6,152.7,65.6,152.7,65.6c-1.5,0.2-2.8,1.2-3.2,2.7c0,0.1,0.1,0.1,0.1,0
			C150.3,67.1,151.3,66,152.7,65.6z M149.5,72C149.5,72.1,149.6,72.1,149.5,72c1.1-2.6,3.4-4.3,5.7-5.7l0,0
			C152.8,67.6,150.2,69,149.5,72z M154.2,65.9C154.2,65.9,154.2,65.9,154.2,65.9c-2.1,0.6-3.9,1.8-4.7,3.9c0,0.1,0.1,0.1,0.1,0
			C150.8,68.1,152.3,66.6,154.2,65.9z M142.7,83.3c0.6-0.1,1.2-0.4,1.7-0.5c0.9-0.3,1.6-1,2.1-1.8c1.5-1.8,2.1-3.7,2.8-5.8
			c0.4-1.1,1-2.2,1.6-3.3c0.5-1,1.6-2,2.5-2.7c0.8-0.6,1.5-1,2.2-1.9c0.5-0.7,1.3-1.5,2.1-1.9c0.3,0.1,0.6,0.1,0.8,0.2
			c0.5,0.1,0.6-0.1,1-0.2c0.1,0.1,0.3,0.3,0.5,0.4c0.2,0.3,0.5,0.5,0.8,0.7c0.7,0.6,1.3,1.1,2.2,1.3c0.8,0.2,1.6,0.4,2.5,0.6
			c0.3,0.1,0.6,0.1,0.9,0.3c1.1,0.6,2.2,1.1,3.4,1.6c0.6,0.2,1.2,0.4,1.7,0.8c0.7,0.5,1.1,1.2,1.6,1.9c0.7,0.9,1.6,1.5,2.5,2.2
			c0.3,0.2,0.5,0.4,0.8,0.5c0.2,0.1,0.5,0.1,0.9,0.1c0,0,0,0.1,0.1,0.1c0.9,0.5,1.9,0.4,2.9,0.2c0.4-0.1,1,0,1.5,0
			c0.6-0.1,1-0.1,1.6-0.2l0,0c0.3-0.1,0.6,0.1,1,0.1c0.2,0,0.5-0.1,0.7-0.1c0.5-0.1,1-0.3,1.4-0.4c0.3,0,0.6,0,0.9-0.1
			c0.6-0.1,0.9-0.6,1.5-0.6c0.3,0,0.5,0.1,0.7-0.1c0.1-0.1,0.1-0.2,0.3-0.4c0.5,0.1,0.7-0.1,1.2-0.4c0.7-0.4,1.5-0.4,2-1
			c1.2-1.3,2.8-2.2,3.6-3.8c0-0.1,0-0.1-0.1-0.1c-0.1-0.1-0.3-0.1-0.4-0.2c-0.6-0.5-0.4-2.1-0.4-2.7c0.1-0.9,0.2-1.5-0.1-2.3
			c-0.5-1.1-0.2-2.5-0.6-3.6l0,0c0.1-0.1,0.1-0.3,0.2-0.5c0-0.1,0-0.1,0.1-0.2c0.1-0.5-0.2-0.8-0.6-1.4c-0.7-1.1-1.4-2.5-1.6-3.8
			c-0.2-1.1-0.7-2-1.5-2.9l-0.1-0.1c-0.1-0.1-0.1-0.4-0.1-0.5c0-0.1,0-0.1,0-0.1c-0.1-0.4-0.3-0.8-0.6-1.2c-0.5-0.7-1.2-1.1-1.8-1.7
			c-0.7-0.6-1.3-1.3-1.9-1.9c-0.1-0.1-0.3-0.2-0.5-0.4c-0.2-0.2-0.4-0.4-0.6-0.6c-0.7-0.7-1.3-1.6-2.2-2.2c-0.6-0.4-1.2-0.7-1.9-0.5
			c-0.4,0.1-0.7,0.4-1,0.5c-0.6,0.3-1.2,0.4-1.8,0.6c-0.7,0.2-1.5,0.5-2.2,0.9c-3.1,0.8-5.7,2.9-9,3.2c0.1-0.3,0.4-0.5,0.4-0.9
			c0.3-0.7,0.1-1.6,0.6-2.2c0.3-0.4,0.7-0.8,1-1.3c0.1-0.1,0.1-0.2,0.1-0.4c2.3,0.5,4.4-0.7,6.2-2.1c1-0.7,1.9-1.5,2.8-2.2
			c0.5-0.4,1-0.8,1.6-1.3c0.3-0.3,0.6-0.6,1-1c0.9-0.1,1.4-1.5,1.9-2.2c1-1.6,1.8-3.2,2.6-4.9c0.7-1.5,1.2-3.2,1.7-4.8
			c0.3-0.7,0.7-1.6,0.7-2.4c0-0.1,0-0.3,0-0.4c0-0.3,0-0.5-0.1-0.9c-0.1-0.9-0.2-1.6-0.1-2.5c0.1-1.7,0.7-3.4,1-5.1
			c0.2-1.5,0.4-3,0.6-4.5c0.1-0.7,0.1-1.5,0.2-2.2c0-0.7-0.1-1.6,0.1-2.3c0.2,0.1,0.4,0.1,0.6,0.4c0,0,0.1,0,0.1-0.1
			c-0.2-0.9-1-1-1.9-0.8c-0.3,0-0.7,0.1-1,0.2l0,0c-0.7,0.1-1.5,0.4-2.2,1c-0.7,0.6-1.3,1.3-2.2,1.8c-0.9,0.6-1.8,1-2.7,1.6
			c-1.9,1-4,2.2-6.1,2.5c-0.4,0.1-0.7,0.1-1.2,0.1c-0.4,0-0.9,0.1-1.3,0.3c-0.1,0.1-0.2,0.1-0.4,0.2c-0.5,0.2-1,0.6-1.5,1
			c-0.7,0.8-1.3,1.8-1.9,2.8c-0.1,0.1-0.2,0.3-0.4,0.5c-0.8,1.1-1.6,2.2-2.5,3.4c-0.7,1-1.6,1.6-2.5,2.5c-0.7,0.7-1.4,1.4-2.1,2.2
			l0,0c-0.8,0.7-1.6,1.4-2.5,2.2c-0.7,0.7-1.8,1.9-2.8,2.2c-0.5-0.2-1-0.4-1.6-0.4c-0.7-0.1-1.6-0.1-2.3,0.1
			c0.1-0.1,0.2-0.4,0.3-0.6c0-0.1,0.1-0.1,0.1-0.2c0.3-0.9,0.2-1.9,0.1-2.8c-0.4-2.8-1.4-5.4-1.5-8.1c0-1.2,0.6-3.2-0.8-3.7
			c-0.1-0.1-0.2-0.1-0.4-0.1c-0.4-0.3-1-0.4-1.6-0.6c-0.7-0.1-1.3-0.3-2-0.1c-0.4,0.1-1,0.4-1.5,0.4c-0.1,0-0.2,0-0.3-0.1h-0.1l0,0
			c-0.1-0.1-0.2-0.3-0.3-0.4c-0.1-0.2-0.1-0.4-0.2-0.6c0-0.1-0.1-0.3-0.1-0.4c-0.1-0.2-0.1-0.4-0.2-0.7c-0.1-0.1-0.1-0.3-0.1-0.4
			c-0.5-0.9-1.6-1.5-2.5-1.9c-0.9-0.5-1.7-1-2.8-0.8c-0.4,0.1-0.9,0.1-1.3,0.3c-0.3,0-0.7,0-1-0.1c-0.4-0.1-0.7-0.2-1.1-0.4
			c-0.4-0.2-0.8-0.5-1.3-0.6c-0.1,0-0.4,0-0.5,0s-0.3,0.1-0.4,0.2c-0.2,0.1-0.1,0.3-0.3,0.5c-0.1,0.1-0.1,0.1-0.1,0.1
			c-0.3,0.1-0.6,0.1-0.9,0.2c-0.3,0.1-0.5,0.1-0.7,0.4c-0.2,0.4-0.1,0.7,0.1,1c0,0.1,0,0.1,0.1,0.2c0.1,0.2,0.1,0.5,0.1,0.8
			c-0.1,0.1-0.1,0.1-0.1,0.1c0,0.1-0.1,0.1-0.1,0.2c0,0.1,0.1,0.3,0.1,0.4c0,0.3,0,0.5,0,0.7c-0.2,0.3-0.5,0.5-0.7,0.8l0,0
			c-0.1,0.1-0.1,0.1-0.2,0.2c-0.5,0.5-0.6,1-1.2,1.4c-0.7,0.5-1.5,1-2.2,1.6c-1,0.7-1.9,1.6-2.2,2.8c-0.1,0.3-0.3,0.6-0.3,1
			c-0.1,0.4,0.1,0.7,0.2,1.1c0.1,0.9,0.4,1.9,0.7,2.8c0.1,0.8,0.3,1.6,0.4,2.5c0,0.8,0,1.6,0,2.5c0,0.6,0.1,1.1,0.2,1.7
			c0.2,0.9,0.7,1.7,1.3,2.5c1.4,2.1,2.7,4.3,4.2,6.3c0.9,1.1,1.6,2.3,2.4,3.5c0.1,0.1,0.3,0.4,0.4,0.5c-1.5-0.7-3.4-0.9-5.1-1.3
			c-1.5-0.6-2.8-1.4-4.3-2.2c-0.6-0.4-1.1-0.8-1.7-1.2c-1-0.7-1.9-1.6-3-2.2c-1.6-1.1-3.2-2.1-4.9-2.8c-2.9-1.3-6.5-1.9-9.8-1.8
			c-0.3,0-0.5-0.1-0.8-0.1c-0.4-0.1-0.8,0-1.2,0.1c-0.1,0.1-0.1,0.1,0,0.2c0.1,0.1,0.3,0.4,0.4,0.5c0.4,0.7,0.9,1.3,1.3,1.9
			c0.5,1,0.8,2,1.2,3.1c0.3,0.8,0.8,1.9,1.7,2.2l0,0c0.2,0.1,0.4,0.1,0.7,0.1l0,0c0.1,0,0.1,0,0.1,0c0.1,0,0.1,0,0.1-0.1
			c0.4-0.1,0.8-0.5,1-1c0.1,0.1,0.1,0.3,0.2,0.5c0.4,1.1,0.9,2.2,1.6,3.1c0.7,1.1,1.6,2.1,2.6,2.9c0.3,0.3,0.7,0.5,1,0.7
			c1.9,1.3,4.7,1.3,7,1.9c0.5,0.1,1,0.3,1.4,0.5c0.1,0.1,0.3,0.1,0.4,0.2c1,0.4,1.9,1,2.8,1.6c0.4,0.2,0.9,0.5,1.3,0.7
			c0,0,0.1,0,0.1,0.1c1,0.6,2.2,1,3.4,1.3c1,0.2,1.9,0.4,2.8,0.4c0.8,0.1,1.7-0.1,2.5,0.2c-0.2,0.1-0.4,0.1-0.6,0.2
			c-1.6,0.3-3.3,0.7-4.6,1.8c-0.7,0.5-1.3,1.1-1.9,1.7c-1.3,1.1-2.4,2.3-3.4,3.6c-0.1,0.1-0.1,0.1-0.1,0.2c-0.1,0.1-0.1,0.1-0.1,0.1
			c-1.4,1.4-2.6,2.8-2.8,4.9c-0.1,1.6,0.2,3.4,1,4.9c0.1,0.2,0.1,0.4,0.2,0.7c0,0.2,0,0.4,0,0.6c0.1,0.4,0.4,0.6,0.7,0.8
			c0.5,0.4,0.8,1,1.3,1.3c0.3,0.2,0.7,0.4,1,0.4c0.1,0.1,0.1,0.1,0.1,0.2c0.6,1.1,1.7,1.5,2.8,2.1c0.7,0.4,1.5,1,2.2,1.6
			c0.4,0.4,0.7,1,1.1,1.5c0.3,0.4,0.6,1,1.1,1.1c0.1,0.1,0.2,0.1,0.4,0c0.3-0.1,0.5-0.2,0.7-0.5c0.1-0.2,0.3-0.4,0.5-0.6
			c0.2-0.1,0.4-0.1,0.6-0.2l0,0c0.1,0.1,0.2,0.2,0.3,0.3c0.1,0.2,0.4,0.4,0.6,0.4c0.7,0.1,1.1-0.1,1.6,0.5c0.2,0.4,0.4,0.8,0.5,1.2
			c0.2,0.5,0.5,1.2,0.9,1.7c0.2,0.4,0.6,0.7,1,0.9C141.8,83.6,142.3,83.5,142.7,83.3z M191.2,50.9L191.2,50.9
			C191.1,50.9,191.1,50.9,191.2,50.9C191.1,50.9,191.1,50.9,191.2,50.9z M170.9,47.4c0.1,0,0.1-0.1,0.1-0.1c0.7-0.2,1.2-0.5,1.8-0.8
			c0.4-0.2,0.9-0.5,1.3-0.7c0.7-0.4,1.6-0.6,2.4-1c0.5-0.2,1-0.4,1.6-0.7c0.1,0,0.1-0.1,0.2-0.1l0,0h-0.1c0.4-0.1,1-0.4,1.5-0.4
			c1-0.3,2.2-1.3,3.4-0.7c1,0.4,1.7,1.6,2.5,2.3c0.4,0.4,0.7,0.7,1.1,1s0.8,0.8,1.2,1.3c0.6,0.6,1.3,1.1,1.9,1.7
			c0.3,0.3,0.5,0.6,0.7,0.9c0.1,0.1,0.1,0.2,0.1,0.4c0,0,0,0,0,0.1l0,0c-0.5-0.2-1-0.4-1.6-0.8c-0.6-0.4-1.3-0.6-1.8-1.2l0,0
			c0.1,0.2,0.3,0.5,0.5,0.7c0.3,0.3,0.7,0.4,1.1,0.6c0,0,0.1,0,0.1,0.1c0.4,0.4,1.1,0.7,1.6,1c0.9,0.7,1.9,2,2.2,3.1
			c0.2,1,0.5,1.8,0.9,2.7c0.4,0.8,1.2,1.7,1.3,2.6c0,0.1,0,0.1-0.1,0.3c0,0,0,0.1-0.1,0.1c-0.1-0.2-0.3-0.4-0.4-0.6h-0.1
			c0.7,1,0.5,2.2,0.6,3.4c0,0.4,0.1,0.7,0.2,1c-0.4-0.4-1-0.8-1.5-1.2l0,0c0.7,0.6,1.4,1.3,1.8,2.1c0.1,0.3,0.1,0.5,0.1,0.8
			c-0.2-0.2-0.6-0.4-0.9-0.4l0,0c0.2,0.1,0.4,0.2,0.6,0.4c0.1,0.1,0.1,0.3,0.2,0.5c-0.1,1-0.4,3,0.7,3.3c0,0.1,0.1,0.1,0.1,0.1
			c0.1,0.6-1.4,1.8-1.8,2.2c-0.6,0.6-1.3,1.4-2,1.9c-0.4,0.2-0.9,0.3-1.3,0.5c-0.4,0.2-0.8,0.7-1.3,0.4c-0.1,0-0.1,0-0.1,0.1
			c-0.1,0.1-0.1,0.1-0.1,0.1c-0.1,0.1-0.3,0.2-0.6,0.2c-0.3,0-0.4-0.1-0.7,0.1c-0.4,0.1-0.7,0.4-1,0.5c-0.3,0.1-0.7,0.1-1,0.1
			c-0.1,0-0.1,0.1-0.1,0.1c-0.4,0.1-0.9,0.2-1.4,0.4c-0.3,0.1-0.4,0.1-0.7,0c-0.1,0-0.1,0-0.1-0.1c0-0.1,0-0.1-0.1-0.1
			c-0.7-0.3-1.3-0.4-2-0.7l0,0c0.5,0.2,1,0.5,1.6,0.7c-0.4,0-0.9,0.1-1.4,0.2c-0.3,0-0.4,0.1-0.8,0c-0.2-0.1-0.1-0.1-0.3-0.2
			c-0.1,0-0.1,0-0.1,0c-0.2-0.1-0.4-0.1-0.7-0.1c-0.4-0.1-0.8-0.1-1.3-0.1l0,0c0.4,0.1,0.7,0.2,1.2,0.4c0.1,0,0.1,0,0.1,0.1
			c-0.2,0.1-0.4,0.2-0.7,0.2c-0.5,0-1-0.1-1.4-0.2c-0.1-0.1-0.3-0.1-0.5-0.2c-0.6-0.1-1.1-0.3-1.6-0.7c-0.6-0.4-1.2-0.8-1.7-1.3
			c-0.6-0.5-0.9-1.3-1.3-1.9c-0.1-0.1-0.3-0.4-0.4-0.5c0.6,0.2,1.2,0.5,1.9,0.7c1.9,0.5,3.9,1,5.8,1.5l0,0c-2-0.5-3.9-1.2-5.8-2
			c-1.4-0.6-2.8-1-4.3-1.5c-1.2-0.5-2.4-1.1-3.6-1.6h-0.1h-0.1c-0.5-0.2-1-0.4-1.6-0.4c-1.5-0.5-3-1-3.9-2.3c0.1,0,0.1,0,0.3-0.1
			c0.9,0.5,1.9,0.9,2.9,1.3c1.3,0.4,2.5,1,3.8,1.3l0,0c-1.3-0.5-2.6-1-3.9-1.6c-0.7-0.4-1.5-0.8-2.2-1.1c0.2-0.1,0.4-0.2,0.6-0.4
			c0.4,0.2,0.8,0.4,1.3,0.5c0.8,0.3,1.6,0.5,2.5,0.7l0,0c-0.8-0.3-1.6-0.6-2.4-1c-0.4-0.1-0.7-0.4-1-0.6c0.1-0.1,0.1-0.1,0.2-0.2
			c0.1-0.1,0.2-0.2,0.4-0.4c2,1,4.3,1.7,6.6,2.3l0,0c-2.2-0.7-4.3-1.6-6.3-2.6c0.1-0.1,0.3-0.3,0.4-0.4c1.2,0.6,2.5,0.9,3.7,1.3
			c1.6,0.4,3.1,0.9,4.6,1.3c3.1,0.8,6.3,1.5,9.4,2l0,0c-3.1-0.6-6.1-1.3-9.2-2.2c-1.5-0.4-3-0.9-4.4-1.3c-0.5-0.1-1-0.4-1.6-0.5
			c-0.6-0.2-1.1-0.5-1.7-0.7c-0.2-0.1-0.4-0.1-0.5-0.2l0.1-0.1c0.2-0.1,0.4-0.2,0.6-0.3c0.4-0.2,1-0.4,1.4-0.6
			c0.4-0.2,0.7-0.4,0.8-0.7c2.3,0.6,4.6,1,6.9,1.6l0,0c-2.2-0.7-4.4-1.4-6.6-2.1c0.1-0.2,0.1-0.5,0.1-0.7c0.6,0.2,1.3,0.3,1.9,0.4
			c1,0.2,2.1,0.5,3.1,0.7l0,0c-1-0.3-2.1-0.6-3.1-1c-0.7-0.2-1.3-0.6-2-0.8c-0.1-0.2-0.1-0.4-0.1-0.7c1.3,0.3,2.6,0.6,4,1l0,0
			c-1.3-0.4-2.7-1-4.1-1.6c0-0.1-0.1-0.3-0.1-0.4c1,0.2,2.2,0.4,3.2,0.6l0,0c-1.1-0.3-2.2-0.7-3.3-1c0-0.1,0-0.3,0-0.4
			c1.8,0.4,3.7,0.6,5.4,0.9c2.8,0.4,5.4,0.9,8.2,1.4l0,0c-2.8-0.6-5.5-1.2-8.4-1.8c-1.7-0.4-3.5-0.8-5.3-1.1v-0.1
			c0-0.1,0.1-0.1,0.1-0.1c5.2,0.4,10.4,1.3,15.4,2.8l0,0c-5-1.6-10-2.7-15.2-3.2c0.1-0.1,0.1-0.4,0.2-0.5c-0.3,0.1-0.5,0.1-0.7-0.1
			h-0.1c0,0.4-0.1,0.7-0.3,1c-0.1,0.3-0.3,0.6-0.4,1l0,0c0.1-0.5,0.1-1.2,0.1-1.7c0-0.4,0-0.7-0.1-1.1c-0.1-0.3-0.3-0.6-0.4-0.9
			c-0.1-0.5,0-1,0.1-1.6l0,0c-0.1,0.7,0.1,1.3,0.4,2c0.1,0.1,0.1,0.2,0.1,0.3c0.1-0.4,0.7-0.6,1-0.4c1,0.1,1.9,0.1,2.9,0.3
			c1.9,0.2,3.7,0.4,5.6,0.7l0,0c-1.9-0.3-3.7-0.7-5.6-1c-1.3-0.2-2.5-0.5-3.8-0.7c0-0.1-0.1-0.1-0.1-0.1c0-0.1-0.1-0.1-0.1-0.3
			c0.8,0.1,1.6,0.1,2.5,0.1c1.4,0.1,2.8,0.2,4.3,0.4l0,0c-1.4-0.2-2.8-0.4-4.3-0.7c-0.8-0.2-1.7-0.4-2.6-0.5c0-0.1,0-0.2,0-0.4
			c2.2,0.1,4.4-0.5,6.3-1.3l0,0c-1.3,0.5-2.5,0.7-3.9,0.8c-0.4,0-0.7,0-1.1,0c-0.4-0.1-0.7-0.2-1-0.4c2.5,0.1,5.2-0.9,7.4-1.9l0,0
			c-1.5,0.6-2.9,1-4.6,1.2c-0.4,0.1-0.9,0.1-1.3,0.1c-0.3,0-0.6-0.1-0.9-0.1c0.7-0.1,1.5-0.1,2.2-0.3c2.2-0.4,4.3-1.6,6.2-2.8l0,0
			c-1.6,1-3.2,1.8-5.1,2.2c-0.8,0.1-2.2,0.5-3.4,0.5c0-0.1,0.1-0.1,0.1-0.1c0.8-0.1,1.6-0.4,2.3-0.7c0.1,0,0.2-0.1,0.3-0.1
			C170.1,47.7,170.5,47.6,170.9,47.4z M159.2,64.3c0.1,0.3,0.5,0.4,0.8,0.4c0.4,0.1,0.9-0.1,1.2-0.5c0.3-0.4,0.4-1,0.7-1.5
			c0.1-0.2,0.4-0.4,0.4-0.7c0-0.1,0.1-0.1,0.1-0.2l0,0c0.1-0.1,0.3-0.3,0.3-0.3c0.2-0.2,0.3-0.5,0.5-0.7c0.2-0.4,0.5-0.6,1-0.7
			c0.2,0,0.4,0,0.7,0c0.1,0,0.2-0.1,0.4-0.1c0.7-0.3,1-0.9,1-1.6h0.1c0.1,0.3,0.2,0.5,0.3,0.8c0.2,0.8,0,1.4-0.5,1.9
			c-0.8,0.7-2,1-2.8,1.6c-0.5,0.4-1.1,0.8-1.5,1.4c-0.4,0.4-0.8,0.7-1.3,0.7c-0.4,0.1-0.8-0.1-1.3,0c-0.4,0-0.9,0-1.5,0
			c-0.3,0-0.8,0.1-1.3,0c-0.4-0.2-0.7-0.7-1-1.1c0.3,0.2,0.6,0.4,0.9,0.4C157.1,64.7,158.4,65.1,159.2,64.3z M151.9,61.4
			c-0.2,0-0.4,0-0.6-0.1c-0.2-0.1-0.4-0.4-0.4-0.7c-0.2-0.4-0.4-0.9-0.6-1.3l0,0c0.1,0.1,0.3,0.4,0.4,0.5c0.1,0.1,0.1,0.1,0.2,0.3
			c0.2,0.3,0.5,0.5,0.8,0.6c0.1,0,0.1,0.1,0.2,0.1c0.4,0,0.7,0,1.1,0.1c1,0.3,1.6,0.9,1.9,1.9c0,0-0.1,0.1-0.1,0
			c-0.4-0.5-0.9-0.9-1.5-1.2c-0.4-0.1-0.7-0.2-1.1-0.3C152.2,61.3,152.1,61.4,151.9,61.4z M158.5,26.6c0.6-0.5,1.2-1.1,1.8-1.7
			c1.2-1.2,2.4-2.3,3.5-3.5c0.2-0.1,0.4-0.4,0.6-0.5c1.1-1,2.1-2.2,3-3.4c1.2-1,1.9-2.5,2.9-3.8c0.1-0.1,0.2-0.3,0.3-0.4
			s0.1-0.2,0.2-0.3c0.8-1,1.9-1.6,3.2-1.9c0.6-0.1,1.2-0.1,1.8-0.2c1.6-0.4,3.1-1.2,4.6-2c1.4-0.7,2.9-1.5,4.2-2.5
			c0.8-0.7,1.6-1.3,2.4-1.9c0.1,0,0.2-0.1,0.3-0.1c0.1,0,0.1-0.1,0.1-0.1s0.1-0.1,0.2-0.1c0.1,0,0.3-0.1,0.4-0.1
			c-1.6,0.8-2.8,2.7-3.8,4.1c-2,2.7-4,5.4-6,8l0,0c1.8-2.3,3.7-4.6,5.5-6.8c0.8-1,1.6-2.2,2.5-3.2c0.8-1,1.6-1.9,2.8-2.3
			c0.1,0,0.1,0,0.2,0c-0.4,0.3-0.6,0.8-0.8,1.2c-0.8,1.4-1.6,2.8-2.5,4.3l0,0c0.6-0.9,1.2-1.8,1.9-2.8c0.4-0.7,1.1-2.2,2-2.6
			c0,0.1-0.1,0.5-0.1,0.5c-0.1,1-0.1,1.9-0.1,2.8c-0.1,0.9-0.2,1.8-0.3,2.7c-0.3,2.2-0.7,4.3-1.2,6.5c-0.1,0.8-0.3,1.8-0.3,2.6
			c0,0.7,0.3,1.5,0.4,2.2c-0.1,0.7-0.4,1.5-0.6,2.2c-0.6,1.6-1,3.3-1.6,4.9c-0.6,1.5-1.3,2.9-2.1,4.3c-0.5,0.9-1.1,2.3-2,3
			c-0.7,0.3-1,0.8-1.6,1.4c-0.9,0.9-1.9,1.6-2.8,2.3c-1.6,1.2-3.1,2.3-4.9,2.8c-0.9,0.1-1.7,0-2.5-0.4c-0.1-0.1-0.2-0.1-0.4-0.3
			c-0.1-0.1-0.1-0.1-0.2-0.2l0,0c-0.2-0.3-0.1-0.6-0.2-1c0-0.1,0.1-0.1,0.1-0.1c0.1-0.2,0.1-0.4,0.3-0.7c0.2-0.4,0.5-0.7,0.9-1l0,0
			c-0.4,0.2-0.7,0.6-1,0.9c-0.1,0.1-0.2,0.3-0.4,0.4c-0.1-0.2-0.4-0.3-0.6-0.4c0.4-0.4,0.8-1,1.2-1.4c0.5-0.7,1-1.3,1.6-1.9l0,0
			c-0.6,0.6-1.3,1.3-1.9,1.9c-0.4,0.4-1,0.9-1.3,1.4c-0.3,0-0.6-0.1-0.8-0.1c1.7-1.9,3.2-3.9,5-5.7l0,0c-0.5,0.5-5.1,5.6-5.4,5.4
			c0,0,0,0-0.1,0c0-0.1,0-0.1,0-0.1c0.1-0.4,0.4-0.7,0.4-1c0.8-0.7,1.5-1.6,2.2-2.5c0.8-1,1.6-1.9,2.5-2.9l0,0
			c-0.9,1-1.9,1.9-2.8,2.8c-0.7,0.7-1.3,1.3-1.9,2c-0.1-0.1-0.2-0.4-0.4-0.4c-0.1-0.1-0.2-0.1-0.4-0.2c0.5-0.4,0.9-0.8,1.3-1.3
			c0.6-0.6,1.2-1.3,1.7-1.9c1.1-1.3,2.2-2.6,3.4-4l0,0c-1.2,1.3-2.4,2.5-3.6,3.7c-0.6,0.5-1.1,1.1-1.7,1.6c-0.4,0.4-0.7,0.7-1.1,1.1
			c-0.1,0.1-0.3,0.3-0.4,0.4c-0.2-0.1-0.4-0.2-0.7-0.4c-0.4-0.2-0.8-0.6-1.1-0.9c-0.1-0.1-0.1-0.1-0.1-0.2c0.3-0.2,0.5-0.5,0.7-0.7
			c0.3-0.4,0.6-0.7,1-1l0,0c-0.4,0.3-0.7,0.6-1.1,0.9c-0.2,0.2-0.5,0.4-0.7,0.6c-0.2-0.4-0.4-0.7-0.6-1c0.1-0.1,0.1-0.2,0.1-0.3
			c0.1-0.1,0.1-0.4,0.3-0.5l0,0c-0.1,0.1-0.3,0.3-0.4,0.4c-0.1,0-0.1,0.1-0.1,0.1c-0.1-0.1-0.2-0.3-0.3-0.4c0.1-0.1,0.1-0.3,0.2-0.4
			c0.1-0.2,0.3-0.4,0.5-0.7l0,0c-0.2,0.2-0.4,0.4-0.7,0.6c-0.1,0.1-0.2,0.1-0.3,0.2c-0.1-0.1-0.2-0.3-0.4-0.4c0.4-0.4,0.9-1,1.3-1.5
			l0,0c-0.5,0.4-1,0.7-1.5,1.2c-0.1-0.1-0.2-0.2-0.4-0.4c0.7-0.6,1.2-1.3,1.7-2l0,0c-0.4,0.4-0.7,0.7-1.1,1
			c-0.3,0.2-0.6,0.4-0.9,0.7c-0.1-0.1-0.2-0.2-0.4-0.4l0,0c1-1,1.8-2.2,2.8-3.1l0,0c-1,1-2.1,1.9-3,2.9c-0.2-0.2-0.4-0.4-0.6-0.5
			c1.4-1.3,2.7-2.8,4-4.3l0,0c-0.7,0.7-1.5,1.5-2.3,2.2c-0.6,0.6-1.3,1.1-1.9,1.8c-0.1-0.1-0.3-0.2-0.4-0.3c0.8-0.7,1.6-1.6,2.3-2.5
			c0.9-1,1.8-1.9,2.8-3l0,0c-1,1-2,1.9-3.1,2.9c-0.7,0.7-1.6,1.4-2.3,2.2c-0.1-0.1-0.3-0.2-0.5-0.3c1-0.9,2-2.1,3-3.1
			c1.1-1.2,2.3-2.4,3.4-3.5l0,0c-1.2,1.1-2.4,2.2-3.7,3.4c-1,1-2.2,1.9-3.3,3c-0.1-0.1-0.4-0.1-0.6-0.2c0.1-0.1,0.1-0.1,0.1-0.1
			C157.6,27.5,158,27.1,158.5,26.6z M130.6,36L130.6,36c0.3,0.8,0.7,1.6,1.1,2.5c-0.1-0.1-0.1-0.1-0.1-0.2c-0.1-0.1-0.1-0.1-0.2-0.3
			c-0.8-1.2-1.7-2.4-2.5-3.7c-0.8-1.3-1.6-2.5-2.4-3.9c-0.4-0.7-0.9-1.6-1.2-2.5c-0.1-0.3-0.1-0.6-0.1-0.8c0.1-1.3,0.1-2.7-0.1-4.1
			c0-0.1-0.1-0.3-0.1-0.4c0.1-2,0.4-4,0.9-5.9l0,0c-0.6,1.7-0.9,3.4-1,5c-0.1-0.4-0.1-0.7-0.2-1.1c0,0,0,0,0-0.1
			c0-0.9,0.1-1.8,0.3-2.6l0,0c-0.3,0.7-0.5,1.3-0.5,1.9c0,0,0,0,0-0.1c-0.1-0.7-0.2-1.5-0.1-2.2c0.1-0.4,0.2-0.7,0.4-1
			c0.2-0.2,0.4-0.4,0.6-0.7c0.4-0.5,0.6-0.7,1.2-1c0.4-0.2,0.7-0.5,1-0.8c0.1-0.1,0.1-0.1,0.2-0.1c0.4-0.3,0.9-0.6,1.3-0.9
			c0,0.4-0.1,0.9-0.2,1.4c-0.2,0.7-0.4,1.4-0.6,2.2c-0.3,1.4-0.4,2.7-0.4,4.2c0,0.1,0.1,0.1,0.1,0c0.3-1.9,0.7-3.9,1.3-5.7
			c0.1-0.3,0.4-1,0.4-1.6c0.1-0.2,0.1-0.4,0.2-0.7c0.1-0.3,0.1-0.5,0.2-0.8c0.1-0.3,0.1-0.6,0.2-1c0.1-0.2,0.2-0.2,0.4-0.5
			c0.2-0.4,0.1-0.7,0.1-1.1c0-0.1,0-0.1,0.1-0.2c0.1-0.2,0.2-0.4,0.1-0.7V8.3c0-0.1,0-0.3-0.1-0.4c-0.1-0.1-0.1-0.3-0.2-0.4
			c0-0.1,0-0.1,0-0.1c0-0.1-0.1-0.1-0.1-0.1c-0.1-0.1,0-0.2,0.1-0.2c0.2-0.1,0.4-0.1,0.7-0.1l0,0c0,0-0.1,0-0.1,0.1l0,0l0,0
			c-0.4,0.4-0.1,0.5,0.1,1c0.1,0.3,0.2,0.7,0.2,1v0.1c0.1,0.2,0.1,0.5,0.1,0.7c0,0.1,0,0.3,0,0.4c-0.1,0.9-0.2,1.7-0.4,2.6
			c-0.4,1.6-0.9,3.1-1.2,4.7c0,0.1,0.1,0.1,0.1,0c0.6-1.9,1-4,1.6-5.9c0.2-0.7,0.4-1.4,0.3-2.2c0-0.1-0.1-0.4-0.1-0.7
			c0-0.1-0.1-0.4-0.1-0.5c-0.1-0.5,0-1.1,0.2-1.6c0.2-0.3,0.4-0.6,0.7-0.7c0.7-0.1,1.5,0.7,2.1,0.8l0,0c0.6,0.2,1.2,0.1,1.9,0.1
			c0.7-0.1,1.3-0.3,2-0.1s1.3,0.6,1.9,0.9c0.4,0.2,0.8,0.4,1.2,0.7c0.3,0.2,0.6,0.5,0.9,0.9c0.4,0.7,0.4,1.4,0.6,2.2
			c0.1,0.5,0.4,0.9,0.9,1c0.3,0.1,0.6,0.1,0.9,0.2c0.7,0.2,1.3,0.4,1.9,0.7c0.2,0.1,0.4,0.2,0.7,0.3c0.1,0,0.1,0,0.1-0.1
			c-0.2-0.2-0.3-0.4-0.6-0.6c-0.3-0.1-0.6-0.4-0.9-0.4c-0.2-0.1-0.4-0.1-0.7-0.2l0,0h-0.1c0.4-0.1,0.7-0.2,1-0.3
			c0.4-0.1,0.8,0,1.3,0.1c0.1,0,0.1,0,0.2,0.1c0.1,0,0.1,0.1,0.3,0.1c1,0.4,2.2,0.5,2.2,1.9c-0.1,1-0.1,2,0,3
			c0.1,2.1,0.8,4.2,1.2,6.3c0.2,1.1,0.3,2.4,0,3.6c-0.1,0.6-0.5,1-0.9,1.4c0.1-0.2,0.1-0.4,0.2-0.7c0.3-0.9,0.1-1.7,0.1-2.6l0,0
			c-0.1,1.1-0.1,2-0.6,3c-0.2,0.5-0.4,1-0.6,1.6c-0.1,0.1-0.1,0.2-0.2,0.4l0,0c0,0.1-0.1,0.1-0.1,0.2c0.1,0.2,0.3,0.5,0.3,0.9
			s-0.1,0.7-0.4,1v0.1l0.1,0.1c0.4,0.1,0.7,0.2,1,0.3c0.6,0.2,1.2,0.5,1.7,0.9c1,0.8,1.5,2.1,1.5,3.4l0,0c0.1-1.3-0.1-2.7-1.1-3.7
			c-0.5-0.6-1.6-1.2-2.5-1.3c1.3-0.4,2.6-0.2,3.4,1c0,0,0.1,0,0,0c-0.6-1.2-1.9-2-3.2-1.7c0.3-0.2,0.6-0.4,1-0.4
			c0.7-0.1,1.5,0.1,2,0.6l0,0c-0.8-0.7-2.2-1-3.1-0.5c0.1-0.3,0.3-0.5,0.7-0.7c0.4-0.2,1-0.2,1.5-0.1l0,0c-0.6-0.1-1.3-0.3-1.9-0.1
			c-0.1,0.1-0.2,0.1-0.4,0.2c0,0,0,0,0-0.1c0.5-0.3,1-0.6,1.6-0.7c0.7-0.2,1.5-0.3,2.2-0.1l0,0c-0.8-0.2-1.9-0.4-2.8-0.1
			c0.6-0.4,1.3-0.7,1.6-0.8c0.1,0,0.1,0,0.1,0c0.4,0,0.9,0,1.3,0.1c0.4,0.1,0.8,0.4,1.3,0.6s1,0.4,1.6,0.6c0.3,0,0.5,0.1,0.7,0.2
			s0.4,0.3,0.5,0.5c0.2,0.1,0.4,0.2,0.6,0.4c0.9,0.6,1.7,1.3,2.5,2.2c0.3,0.4,0.5,0.7,0.8,1c0.1,0.2,0.3,0.5,0.5,0.7
			c0.1,0.2,0.3,0.4,0.4,0.7c0.3,0.6,0.7,1.2,1.1,1.5c0.4,0.2,0.9,0.3,1.3,0.4c0.2,0.1,0.4,0.2,0.5,0.3c0.1,0.1,0.1,0.4,0.1,0.6
			c0,0,0,0,0,0.1c0,0.1,0,0.1,0,0.1c-0.2,0.4-0.6,0.9-0.2,1.3c0.1,0.1,0.3,0.2,0.5,0.2l0,0l0,0c0.4,0.1,1,0.2,1.3,0.5
			c0.4,0.3,0.4,0.7,0.4,1.1c0,0,0,0.1,0.1,0.1c0,0.1,0.1,0.1,0.1,0.2c0.1,0.1,0.3,0.2,0.4,0.4c0.4,0.6,0.4,0.9,0.3,1.2
			c0,0.1-0.1,0.1-0.1,0.1c-0.1,0.1-0.3,0.4-0.4,0.5c-0.2,0.3-0.4,0.5-0.5,0.8c0,0.1-0.1,0.1-0.1,0.1c-0.3,0.4-0.2,1.1-0.4,1.6
			c-0.1,0.4-0.3,0.7-0.5,1c-0.1,0.2-0.3,0.4-0.5,0.6l0,0c0.2-0.7,0.4-1.4,0.7-2.2c0-0.2-0.1-0.4-0.1-0.7c-0.1-0.1-0.1-0.2,0-0.4
			s0.2-0.2,0.4-0.4s0.3-0.2,0.4-0.4c0.3-0.8,0.2-1.6-0.5-2.2l0,0c0.4,0.4,0.4,0.9,0.3,1.3l-0.1-0.1c-0.2-0.3-0.4-0.7-0.7-0.9
			c-0.1-0.1-0.2-0.1-0.3-0.1l0,0c-0.3,0.1-0.3,0.3-0.2,0.6c0,0.4,0.1,0.7,0.1,1.1c0,0-0.1,0.1-0.1,0c-0.1-0.4-0.4-0.7-0.4-1
			c-0.4-0.7-0.7-1.3-1-2.1c0-0.1,0.1-0.1,0.1-0.1c0.1,0.1,0.1,0.1,0.1,0.1c0.2,0.1,0.4,0.3,0.5,0.5v-0.1c-0.1-0.4,0-0.6-0.2-0.9
			c-0.1-0.1-0.1-0.1-0.2-0.2c-0.4-0.5-0.4-1-0.4-1.5c0,0,0,0,0.1,0c0.2-0.1,0.2-0.4,0-0.5c-0.1,0-0.1-0.1-0.1-0.1
			c-0.1-0.1-0.3-0.1-0.4,0.1c-0.3,0.2-0.4,0.4-0.4,0.9c-0.1,0.4,0,0.7,0,1c-0.1,0.6-0.3,1-0.7,1.6c-0.2,0.3-0.4,0.5-0.4,0.8
			c0,0.1,0.1,0.1,0.1,0.1c0.1,0.1,0.1,0.1,0.1,0.1c0.3,0.4,0.3,0.8,0,1.2c-0.1,0.1,0,0.3,0.1,0.3c0.1,0,0.1,0.2,0.2,0.4
			c0.1-0.1,0.1-0.1,0.3-0.1c0.2,0,0.4,0.1,0.4,0.3c0.1,0.4,0.1,1-0.4,1c-0.1,0-0.2-0.1-0.4-0.1c-0.1,0.2-0.4,0.4-0.6,0.6
			c-0.4,0.4-0.7,0.7-1.2,0.7c0,0-0.1-0.1-0.1-0.1c-0.1-0.1-0.1-0.1-0.2-0.2c-0.1-0.1-0.4-0.1-0.6,0c-0.5,0.2-0.7,1-0.6,1.5
			c0,0.2,0.1,0.4,0.2,0.6c0.1,0.1,0.1,0.1,0.2,0.1h0.1c0,0,0,0,0,0.1c0,0.3-0.1,0.4,0,0.7c0.1,0.1,0.2,0.2,0.3,0.2c0,0,0,0,0.1,0.1
			c0,0.3-0.3,0.7-0.4,1c0,0.1-0.1,0.5-0.1,0.7c-0.1,0.1-0.1,0.1-0.1,0.1c-0.1,0-0.1,0-0.2,0.1c-0.2,0.1-0.4-0.1-0.6,0.2
			c-0.3,0.4,0.2,0.7,0.1,1.1c-0.1,0.4-0.7,0.2-0.9,0.6c-0.1,0.2-0.2,0.7-0.3,0.9c-0.1,0.2,0,0.5,0.1,0.7c0,0,0,0,0,0.1
			c0.1,0.1,0.2,0.1,0.4-0.1l0,0h0.1c0,0.1,0,0.1,0.1,0.1c0,0,0,0,0,0.1c-0.1,0.1,0.1,0.4,0.2,0.3c0.1,0,0.1-0.1,0.1-0.1l0.1-0.1
			c0.1-0.1,0.1-0.2,0-0.3c0-0.1-0.1-0.1-0.1-0.1h-0.1c-0.1,0-0.1,0-0.2,0.1c0.1-0.3,0.2-0.4,0.4-0.4c0.1-0.1,0.2-0.1,0.4,0
			c0.3,0,0.5,0.1,0.7-0.1c0.5-0.4,0.1-1,0.1-1.6c0-0.3,0.4-1.1,0.6-1.4c0.1-0.1,0.2-0.8,0.3-1.1c0.3-0.5,1-0.7,1.5-0.5
			c0.1,0,0.1,0,0.1,0c-0.1-0.4-0.3-1,0.2-1.3c0.3-0.1,0.6-0.1,0.7,0.1l0,0c-0.4,0.1-0.6,0.2-0.5,0.5c0,0.1,0.1,0.2,0.1,0.3
			c0.1,0.1,0.1,0.4,0.2,0.5c0.1,0.2-0.1,0.4-0.4,0.4c-0.4-0.1-0.7,0.1-1,0.2c-0.4,0.4-0.5,1-0.1,1.6c0.1,0.1,0.4,0.2,0.4,0.4
			c0,0-0.5,0.7-0.5,0.8c-0.1,0.3-0.4,0.9,0,1c-0.5,0.2-1,1-0.7,1.4c-0.4,0.2-0.8,0.7-1,1.2c-0.1,0.3,0,0.6,0.2,0.7
			c-0.3,0.3-0.9,1-0.9,1c-0.1-0.1-0.7-1.1-0.7-1.2c-0.2-0.4-0.4-0.9-0.7-1.3c-0.1-0.3-0.4-0.6-0.5-0.8c0,0,0,0,0-0.1
			c-0.2-0.4-0.5-0.7-0.7-1c-0.1-0.1-0.1-0.1-0.2-0.1c-0.1-0.1,0-0.2-0.1-0.4c-0.1-0.3-0.1-0.3-0.4-0.5l0,0c-0.1-0.1-0.1-0.1-0.2-0.2
			c-0.2-0.2-0.6-0.4-0.8-0.6c-0.3-0.5-0.1-1-0.7-1.3c-0.2-0.1-0.8-0.3-1,0c-0.1,0.2,0.1,0.4,0.3,0.5c0.1,0.3,0.3,0.6,0.5,0.9
			c0.2,0.3,0.7,0.6,1,0.9c0.5,0.6,0.6,1.4,1.1,2.1c-0.4-0.1-0.7-0.2-1-0.4c-0.1-0.1-0.4-0.1-0.6-0.1l-0.2,0.1
			c-0.1-0.1-0.4-0.5-0.5-0.6c-0.1-0.1-0.4-0.3-0.6-0.4c-0.2,0-0.4,0-0.5,0.1c-0.1,0.1-0.1,0.1-0.1,0.2v0.1c0,0.1,0,0.1,0.1,0.2
			c0.1,0.1,0.1,0.1,0.2,0.1c0.1,0,0.2,0,0.3,0.1c0.1,0.1,0.1,0.1,0.1,0.3c0.1,0.2,0.1,0.5,0.4,0.6c0.2,0.1,0.5-0.1,0.7-0.1
			c0.1,0,0.1,0.1,0.1,0.1c0.1,0.3,0.3,0.6,0.4,0.8c0.4,0.4,0.7,0.4,1.2,0.4c0.1,0,0.1-0.1,0-0.1c-0.2-0.1-0.4-0.3-0.6-0.4
			c0.2,0.1,0.4,0.1,0.7,0c0.4-0.1,0.5-0.2,1,0.3c0.1,0.1,0.1,0.1,0.1,0.2c-0.1,0-0.1,0.1-0.2,0.1c-0.3,0.3-0.3,0.8-0.3,1.3
			c-0.5-0.3-1,0.1-1,0.7c-0.1,0.5,0.4,1,0.9,0.7c-0.1,0.1-0.2,0.4-0.2,0.4c-0.9,1-1,0.4-1.4-0.1s-0.8-0.8-1.3-1.3
			c-0.1-0.1-0.1-0.1-0.1-0.1c-0.1-0.1-0.1-0.1-0.1-0.1c-0.1-0.2-0.3-0.5-0.4-0.7c-0.3-0.3-0.8-0.4-1.2-0.4c-0.1,0-0.1-0.1,0-0.1
			c0.4-0.1,0.7-0.2,1-0.1c0.3,0,0.5,0.1,0.7,0.3c0,0.1,0.1,0,0.1-0.1c-0.2-0.7-0.7-0.9-1.4-0.8c-0.2,0-0.5,0.1-0.8,0.1
			c-0.2-0.1-0.4-0.1-0.4-0.1c-0.1-0.1-0.1-0.4-0.3-0.5c-0.2-0.2-0.6-0.2-0.9-0.4c-0.2-0.1-0.4-0.4-0.7-0.2c0,0,0,0-0.1,0
			c0,0.1,0,0.3,0.1,0.4c0.1,0.7,0.6,0.9,1.2,0.9c0,0,0,0,0,0.1c-0.7,0.2-1.5-0.4-1.6-1c-0.1-0.4-0.1-0.7-0.4-1
			c-0.1-0.1-0.1-0.1-0.3-0.2c-0.2-0.1-0.5-0.2-0.7-0.1c-0.2-0.7-1-0.9-1.5-0.4c0,0,0-0.1,0-0.1c-0.1-0.2-0.2-0.4-0.4-0.6
			c-0.3-0.2-0.5-0.2-0.8-0.3c-0.4-0.1-0.3,0.1-0.7-0.4c-0.1-0.1-0.2-0.3-0.3-0.4c0.4,0.1,0.7,0.3,1.1,0.1c0.1,0,0.1-0.1,0.1-0.1
			c0.2,0,0.2,0.1,0.4,0.2c0.3,0.1,0.5,0.2,0.8,0.3c0.2,0,0.8,0.2,1,0v-0.1c-0.1-0.1-0.3-0.3-0.5-0.4c-0.1-0.2,0.1-0.5,0-0.7
			c-0.1-0.2-0.1-0.1-0.4-0.1c-0.4,0-0.4-0.1-0.9-0.6c-0.1-0.1-0.1-0.1-0.1-0.1c-0.2-0.2-0.5-0.4-0.7-0.6c0,0-0.1-0.1-0.2-0.3
			c-0.3,0.1-0.6,0.4-0.7,0.6c-0.1,0.1-0.4,0.1-0.4-0.1c0-0.1,0.1-0.2,0.1-0.3c-0.1-0.4-0.4-0.4-0.7-0.1c-0.1,0.1-0.3,0.1-0.4,0.1
			c-0.1,0-0.1,0.1,0,0.1c0,0-0.3,0.7-0.3,0.8c0,0.4,0.4,0.7,0.7,0.8c0.1,0.1,0.6,0.5,0.8,0.9c0.1,0.2,0.2,0.4,0.1,0.6
			c0,0-0.5,0-0.6,0c-0.1,0-0.1,0.1-0.2,0.1c-0.4,0.4-0.9,1.6-0.7,2.1c0.1,0.3,0.4,0.5,0.7,0.4c-0.1,0.6,0.1,1.2,0.4,1.6
			c0.7,0.4,1.8,0.6,2.5,0.7c1,0.2,2,0.6,2.9,1.1l0,0c-1.5-0.7-3-0.6-4.6-0.7l0,0c-0.6-0.1-1.3-0.1-1.6,0.3h-0.1
			c-0.1,0-0.3-0.1-0.3-0.3c0-0.1,0-0.2-0.1-0.3c-0.1-0.4-0.4-0.7-0.5-1.1c0-0.1-0.1-0.3-0.1-0.4c0.1-0.4-0.1-0.7-0.2-1
			c-0.1-0.4-0.2-0.7-0.3-1.2c0-0.3,0.1-0.6,0.3-0.9c0.1-0.3,0.2-0.5,0.4-0.7c0,0,0-0.1-0.1-0.1l0,0c0,0,0-0.1-0.1-0.1h-0.1
			c0,0-0.1-0.1-0.1-0.1c-0.4-0.2-0.8-0.4-0.7-1.1c0.1-0.4,0.3-0.5,0.4-0.8c0.1-0.3,0.1-0.5,0.1-0.9c0.2-0.5,1.1-1.3,1.6-1.3
			c0.3,0,0.2,0,0.4,0.4c0.1,0.1,0.1,0.4,0.1,0.5c0.1-0.1,0.1-0.2,0.1-0.4c0-0.4-0.1-0.7-0.4-0.9c-0.1,0-0.1,0-0.3,0
			c-0.1,0-0.2-0.1-0.2-0.1V48c-0.1-0.1-0.1-0.2-0.2-0.3c-0.3-0.1-0.7-0.1-1-0.1c0.1-0.2,0-0.4-0.1-0.5c-0.2-0.2-0.4-0.4-0.6-0.7
			c-0.1-0.2-0.3-0.5-0.4-0.7c0-0.1-0.1,0-0.1,0.1c0,0.1,0,0.1,0,0.1c0,0.2,0,0.4-0.1,0.6c0,0.1,0,0.1,0.1,0.2
			c0.1,0.3,0.1,0.5,0.1,0.8c0.1,0.1,0.1,0.2,0.1,0.3c0.1,0.1,0.2,0.2,0.4,0.3c0.3,0.2,0,0.6-0.3,0.5h-0.1c-0.1,0.1-0.1,0.1-0.1,0.2
			c0,0.2,0.1,0.3,0.2,0.4c0,0,0,0,0,0.1c0.1,0.3-0.1,0.4-0.1,0.7c0,0.2,0,0.5,0,0.7c-0.2,0.4-0.4,0.7-0.4,1.2c0,0.1,0,0.2,0.1,0.3
			c-0.1-0.1-0.1-0.1-0.2-0.1c-0.1-0.1-0.2-0.2-0.3-0.4c-0.1-0.4,0.1-0.5,0.3-0.9c0.1-0.1,0.1-0.4,0.1-0.5c0.1-0.1,0.1-0.4,0.1-0.6
			c0-0.5-0.1-1-0.1-1.5c0-0.2,0-0.5-0.1-0.7c-0.1-0.6-0.3-1.2-0.4-1.7c-0.3-1.1-0.8-2.1-1.3-3.1c-0.1-0.1-0.1-0.2-0.1-0.3
			c-0.1-0.3-0.3-0.7-0.4-1c0-0.1-0.1-0.1-0.1-0.2c-0.1-0.3-0.2-0.6-0.3-1c-0.1-0.7-0.3-1.3-0.4-2.1V38c0.1-1,0.4-1.9,0.4-2.8
			c0.1-0.1,0.1-0.3,0.1-0.5c0-0.1,0-0.1-0.1-0.1c-0.1-0.1-0.2-0.1-0.3-0.2c-1.5-2.1-2.8-4.3-3.5-6.8l0,0c0.7,2.5,1.9,4.9,3.4,7
			c0,0.1,0,0.2,0,0.4c-0.1,0.1-0.1,0.2-0.2,0.4l-0.1-0.1c-0.2-0.3-0.4-0.5-0.5-0.8c-0.3-0.4-0.5-1-0.7-1.5l0,0
			c0.3,0.9,0.7,1.9,1.3,2.8c-0.1,0.2-0.1,0.4-0.2,0.6c-1-1.3-1.9-2.6-2.5-4.2l0,0c0.6,1.6,1.4,3.1,2.5,4.6c-0.1,0.3-0.1,0.7-0.1,1
			c-1.8-2.4-3.3-5.1-4.5-7.8l0,0c1.1,3,2.7,5.7,4.5,8.4c0,0.4,0,0.8,0,1.2c-0.7-1.1-1.6-2.2-2.3-3.4c-1.8-2.8-3.2-5.7-4.2-9l0,0
			c0.8,3,1.9,5.8,3.5,8.5c1,1.6,2.1,3.1,3.1,4.8c0.1,0.4,0.1,0.7,0.1,1c0.1,0.7,0.4,1.3,0.6,2c-0.7-1.4-1.5-2.8-2.3-4.1
			c-1.8-2.8-3.8-5.3-5.1-8.3l0,0c1.2,2.9,2.9,5.5,4.6,8.2c1.3,2,2.4,4.2,3.5,6.3c0.1,0.5,0.2,1,0.4,1.6c-0.9-1.6-1.9-3.2-2.9-4.9
			c-1.4-2.4-2.8-4.8-4.3-7.2l0,0c1.3,2.5,2.5,4.9,3.9,7.4c0.8,1.5,1.6,3.1,2.4,4.6c0.1,0.1,0.1,0.2,0.2,0.3c0.4,0.7,0.7,1.4,1,2.2
			c0,0,0,0.1-0.1,0c-0.4-0.5-0.8-1-1.1-1.6c-1.3-2.6-2.8-5.1-4.3-7.6c-0.9-1.5-1.9-3-2.7-4.6c-1.8-3.2-3.5-7-3.5-10.8l0,0
			c-0.1,3.5,0.9,6.9,2.5,10c1.4,2.6,3.1,5.1,4.5,7.7c0.1,0.1,0.1,0.2,0.1,0.3C133.3,40.3,131.8,38.3,130.6,36z M140.4,50.4
			L140.4,50.4L140.4,50.4L140.4,50.4z M138.1,49.5L138.1,49.5L138.1,49.5L138.1,49.5z M135.6,50.2c0.4,0.1,0.7,0.4,0.9,0.7l0,0
			c-0.1,0-0.1,0-0.1,0c-0.2,0-0.4-0.1-0.6,0c-0.1,0-0.1,0-0.1,0c-0.7-0.1-1.3,0-1.9-0.1c-0.4-0.1-1-0.3-1.5-0.4
			c-0.7-0.1-1.4-0.1-2.1-0.2c-0.7-0.2-1.5-0.4-2.2-0.7c-1.8-1-3.4-2.3-5.4-3.1c-1.4-0.5-3.1-0.7-4.6-1c-1.4-0.4-2.8-1.3-4-2.1
			c-0.1-0.1-0.2-0.1-0.3-0.2l-0.1-0.1c-0.6-0.6-1.2-1.2-1.8-1.9c-0.7-0.9-1.2-1.9-1.6-2.9c-0.1-0.4-0.2-0.9-0.4-1.3
			c-0.1-0.3-0.4-0.5-0.7-0.7c-0.1-0.1-0.1-0.1-0.1-0.1c-0.6-0.7-1-1.8-1.8-2.4c0-0.1-0.1-0.1-0.1-0.1c-0.1-0.1-0.4-0.3-0.5-0.5
			c0,0,0,0,0-0.1s-0.1-0.1-0.1-0.2c-0.1-0.2-0.1-0.2-0.2-0.4c-0.1-0.1-0.2-0.3-0.4-0.4c-0.2-0.2-0.5-0.4-0.8-0.6l-0.1-0.1
			c0,0,0,0-0.1,0c-0.1-0.1-0.4-0.1-0.5-0.2c-0.1,0-0.1,0.1-0.1,0.1c1,1.5,1.9,3.1,2.5,4.9l0,0c-0.4-1.6-1-3.3-2-4.6
			c0.2,0.2,0.5,0.4,0.7,0.7c0.1,0.1,0.3,0.3,0.4,0.4l0.1,0.1c0.4,0.8,0.7,1.7,1,2.5l0,0c-0.1-0.6-0.2-1.2-0.4-1.8
			c0.1,0.1,0.1,0.2,0.3,0.4c0.4,1.1,0.9,2.3,1.3,3.5l0,0c-0.2-1-0.4-2.1-0.8-3.1c0.1,0,0.1,0.1,0.1,0.1c0.2,0.1,0.4,0.4,0.6,0.6
			c0.1,0.3,0.2,0.6,0.3,0.9c0.1,0.5,0.4,1,0.5,1.6l0,0c-0.1-0.4-0.1-0.9-0.2-1.3c0.2,0.4,0.5,0.8,0.7,1.2c-0.4,0.7-1.2,0.8-1.8,0.4
			c-0.1-0.1-0.4-0.4-0.4-0.5c-0.5-0.5-0.7-0.9-0.9-1.6c-0.1-0.4-0.3-0.7-0.4-1.1c-0.1-0.2-0.2-0.4-0.3-0.6c-0.4-1-1-2.2-1.9-2.9
			c-0.1-0.1-0.2-0.3-0.2-0.4c0,0,0,0,0-0.1c0.1,0,0.1,0,0.2,0c0.4,0,0.7,0.1,1.1,0.1c0.3,0,0.5,0.1,0.8,0.1c0.4,0,1,0.1,1.4,0.1
			c1.2,0.3,2.3,0.7,3.5,1c1.6,0.4,3,1.1,4.3,1.9l0,0c-1.3-0.9-2.8-1.8-4.3-2.4c-0.1-0.1-0.4-0.1-0.5-0.2c0.8,0.1,1.6,0.3,2.4,0.5
			c1.3,0.4,2.5,1,3.7,1.7c1,0.6,2.1,1.1,3.1,1.7c1.3,0.7,2.2,1.8,3.4,2.5c2.5,1.7,4.8,3.6,7.4,5.1l0,0c-0.7-0.6-1.5-1.2-2.2-1.8
			c0.2,0.1,0.5,0.1,0.7,0.1c1,0.1,2.2,0.4,3.2,0.7c0.5,0.1,1,0.4,1.5,0.7l0,0l0,0c0.4,0.2,0.7,0.4,1.1,0.7c0.2,0.1,0.5,0.4,0.8,0.6
			c0.1,0.1,0.2,0.3,0.3,0.4c-0.1-0.1-0.3-0.1-0.4-0.2c-1-0.5-2.1-1-3.1-1.5l0,0c0.8,0.4,1.6,1,2.4,1.4c0.5,0.3,1.1,0.6,1.6,1
			c0.1,0.1,0.1,0.3,0.1,0.4c-0.7-0.5-1.6-0.9-2.4-1.3c-1.3-0.7-2.5-1.5-3.8-2.2l0,0c1.2,0.7,2.3,1.5,3.5,2.2c1,0.7,1.9,1.3,2.9,1.9
			c0.1,0.1,0.1,0.4,0.1,0.5c0,0.1,0.1,0.1,0.1,0.1l0,0c-1.8-1.2-3.7-2.2-5.5-3.4l0,0c1.3,0.9,2.5,1.9,3.9,2.9
			c-0.2-0.1-0.5-0.1-0.7-0.1c-0.7-0.4-1.5-0.8-2.2-1.3l0,0c0.5,0.5,1,1,1.6,1.3c-0.2,0-0.4,0-0.6,0c-1.3-0.6-2.3-1.6-3.4-2.5
			c-1.3-1-2.7-2-4-3l0,0c1.6,1.2,3.1,2.5,4.6,3.7c0.7,0.6,1.5,1.3,2.2,1.8c-0.2,0-0.4,0-0.6,0c-0.7-0.4-1.6-1.1-2.1-1.6
			c-1-0.7-2-1.4-3-2.2c-1.9-1.4-3.9-2.8-5.9-4.2l0,0c2.2,1.7,4.5,3.4,6.7,5.1c1.1,0.8,2.2,1.6,3.3,2.5c0.1,0.1,0.2,0.1,0.4,0.2
			c-0.4,0-0.7,0-1.1-0.1c-1.3-1.2-3.1-2-4.6-3.1l0,0c1.2,0.9,2.4,2.1,3.7,2.9c-0.4-0.1-1-0.2-1.4-0.4c-1.4-0.6-2.6-1.7-3.4-3l0,0
			c1.1,2.1,3.1,3.5,5.4,3.9c0.2,0.1,0.4,0.1,0.6,0.1c0,0,0,0,0.1,0s0.1,0,0.1,0c0.7,0.1,1.4,0.1,2.2,0.1c0.1,0,0.3,0,0.4,0
			c2.1,0.1,3.9,0.7,5.1,2.5l0,0c-0.9-0.6-1.9-1-2.9-1.2l0,0c1.6,0.4,2.5,1.5,3.5,2.6c-0.1,0-0.1,0-0.1,0.1c-0.5-1-1.9-1.3-2.8-1.4
			l0,0c0.6,0.1,1,0.4,1.6,0.7c0.3,0.2,0.6,0.5,0.9,0.8c-0.1,0-0.1,0.1-0.1,0.1h-0.1C136.9,50.5,136.1,50.3,135.6,50.2L135.6,50.2z
			 M141.6,82.9c-0.4-0.1-0.7-0.4-1-0.7c-0.1-0.1-0.1-0.1-0.1-0.2c-0.3-0.5-0.6-1-0.8-1.6c-0.2-0.6-0.4-1.5-1-1.8
			c-0.2-0.1-0.4-0.1-0.7-0.1c-0.4,0-0.6,0.1-1-0.2c-0.1-0.1-0.1-0.1-0.1-0.2c0-0.1,0-0.1-0.1-0.1l0.1-0.1c0.1-0.1,0.2-0.1,0.4-0.2
			l0,0c-0.1,0-0.2,0.1-0.4,0.1c-0.1,0-0.2,0-0.3,0c-0.2,0-0.4,0.1-0.5,0.3l0,0c-0.2,0.1-0.4,0.1-0.7,0.3c-0.1,0.1-0.3,0.4-0.4,0.5
			l-0.1,0.1c-0.2,0.1-0.5,0.1-0.7-0.1c-0.1-0.1-0.1-0.1-0.2-0.3c-0.1-0.2-0.3-0.4-0.4-0.6c-0.1-0.1-0.1-0.3-0.2-0.4
			c-0.4-0.6-0.8-1.1-1.3-1.6c-0.8-0.7-1.9-1.3-2.8-1.9c-0.5-0.4-1-0.8-1.3-1.4c0.4,0.1,0.8,0.2,1.2,0.4l0,0
			c-0.4-0.4-0.8-0.6-1.3-0.8c-0.3-0.1-0.6-0.2-0.9-0.3c-0.3-0.1-0.5-0.4-0.8-0.7c-0.2-0.3-0.4-0.6-0.7-0.8c-0.1,0-0.1-0.1-0.1-0.1
			l0,0c0-0.1,0-0.1-0.1-0.1c0,0,0,0,0-0.1c0.1-0.5-0.1-1.2-0.2-1.7c-0.1-0.6-0.3-1.3-0.4-1.9l0,0c0.1,0.7,0.1,1.3,0.1,2
			c0,0.1,0,0.1,0,0.1c-0.2-0.5-0.4-1-0.6-1.6c-0.1-0.6-0.1-1.2-0.2-1.9s0-1.3,0.1-1.9c0-0.1,0-0.1,0.1-0.1c0-0.1,0-0.1,0.1-0.1
			c0.1-0.3,0.1-0.5,0.3-0.7c0.1-0.3,0.3-0.5,0.4-0.8c0.5-0.8,1.2-1.5,1.8-2.2c0.1-0.1,0.2-0.2,0.4-0.4c1.5-1.5,3-3.1,4.6-4.6
			c0.5-0.4,1.1-0.8,1.7-1.2c1-0.3,1.9-0.2,2.9-0.7c0.7-0.4,2.5-1.3,3.8-1.3l0,0c0,0.1,0,0.1,0.1,0.2c-0.8,0.3-1.6,1-2.2,1.5l0,0
			c0.4-0.3,1-0.6,1.5-0.7c0.3-0.1,0.6-0.1,0.9-0.3c0,0.1,0.1,0.1,0.1,0.1c-1,0.5-1.9,1.3-2.8,2l0,0c0.8-0.5,1.8-1,2.6-1.5
			c0.1-0.1,0.3-0.1,0.4-0.1l0,0c-1.3,1.3-2.4,2.8-3.5,4.1l0,0c1.2-1.3,2.6-2.5,3.8-3.9c0.1,0.1,0.2,0.1,0.4,0.1
			c-0.5,0.4-0.9,1-1.3,1.6l0,0c0.5-0.7,1.2-1,1.9-1.5c0,0,0,0,0.1,0c-1.3,1.3-2.3,2.8-3.5,4.3l0,0c1-1.1,2.1-2.1,3.1-3.1
			c0,0.2,0,0.4,0,0.7c-0.2,0.3-0.4,0.6-0.7,0.9c-0.3,0.4-0.7,0.7-1,1l0,0c0.4-0.3,0.8-0.7,1.3-1c0.1-0.1,0.4-0.3,0.5-0.4
			c0,0.1,0.1,0.2,0.1,0.3c-1.3,1.6-2.5,3.4-3.8,4.9l0,0c1.3-1.5,2.7-3,4-4.5c0.1,0.1,0.1,0.2,0.1,0.4c-0.4,0.4-0.7,0.8-1,1.3
			c-0.4,0.7-1,1.3-1.5,1.9l0,0c0.5-0.6,1-1.3,1.6-1.8c0.4-0.4,0.8-0.7,1.1-1l0,0c0,0.1,0,0.1,0,0.1c-0.8,1-1.6,2.3-2.3,3.4
			c-0.9,1.3-1.9,2.7-2.9,4l0,0c1-1.3,2.1-2.5,3.1-3.8c0.8-1,1.7-2.1,2.5-3.2c0.1,0.1,0.1,0.1,0.1,0.2c0,0.1,0,0.1,0,0.1
			c-0.2,0.1-0.4,0.4-0.4,0.7c-0.1,0.3-0.4,0.7-0.6,1l0,0c0.2-0.3,0.5-0.5,0.8-0.7c0.1-0.1,0.3-0.2,0.4-0.4c0,0.1,0,0.1,0.1,0.1
			c-0.2,0.4-0.6,0.9-0.9,1.3c-0.4,0.6-0.9,1.2-1.3,1.8l0,0c0.6-0.6,1.2-1.3,1.8-1.9c0.2-0.2,0.4-0.5,0.6-0.8
			c0.1,0.1,0.1,0.1,0.1,0.2c-0.2,0.3-0.4,0.7-0.7,1c-0.3,0.4-0.6,0.9-0.9,1.3l0,0c0.4-0.4,0.7-0.8,1.1-1.3c0.2-0.2,0.5-0.5,0.7-0.8
			c0.1,0.1,0.2,0.1,0.3,0.2c-1.6,1.9-3,4-4.3,6.1l0,0c1.6-2.3,3.5-4.4,5.3-6.6c0.1,0,0.3,0,0.4,0.1c-1,1.3-1.6,2.7-2.2,4.1l0,0
			c0.8-1.6,1.9-2.8,3.1-4c0.1,0,0.2,0,0.3,0c-1.3,1.9-2.4,3.9-3.5,5.7l0,0c1-1.6,2.2-3.1,3.3-4.6c0.3-0.4,0.7-0.8,1-1.2
			c0,0,0,0,0.1,0c-0.1,0.2-0.2,0.4-0.4,0.6c-0.2,0.4-0.4,0.7-0.7,1.1l0,0c0.3-0.4,0.5-0.7,0.8-1c0.2-0.2,0.4-0.4,0.6-0.7h0.1
			c-1.5,2.2-2.8,4.5-4,6.7l0,0c1-1.6,2-3.2,3.2-4.8c0.4-0.6,0.9-1.1,1.3-1.7c0.1,0,0.1,0.1,0.1,0.1c-0.7,0.9-1.3,1.9-1.8,2.9l0,0
			c0.6-1,1.4-1.9,2.2-2.8c0,0,0.1,0,0.1,0.1h0.1c-1,1.4-1.9,2.8-2.8,4.3c-1.9,3.4-3.4,7-5.1,10.4l0,0c1.5-2.9,3.1-5.7,4.9-8.6
			c0.8-1.3,1.6-2.7,2.5-4c0.4-0.6,0.8-1.3,1.3-1.9c0.1,0.1,0.2,0.1,0.3,0.1l0.1,0.1c-0.5,0.8-1,1.8-1.4,2.5
			c-1.3,2.2-2.5,4.5-3.8,6.7l0,0c1.3-2,2.6-4,4-5.9c0.6-0.9,1.1-1.7,1.7-2.5c0.1,0.1,0.1,0.3,0.3,0.4c-0.1,0.1-0.1,0.1-0.1,0.1
			c-1.2,1.9-2.1,4-3.1,5.9l0,0c0.8-1.6,1.7-3.1,2.8-4.6c0.3-0.4,0.6-0.9,1-1.3c0.1,0,0.2,0,0.3-0.1c-0.8,1.1-1.4,2.4-1.9,3.7l0,0
			c0.6-1.6,1.6-2.7,2.8-3.7c0.1,0,0.3,0,0.4,0.1c-0.7,0.7-1.2,1.6-1.6,2.5l0,0c0.5-1,1.3-1.7,2.3-2.3c0.1,0.1,0.2,0.1,0.3,0.2
			c-0.7,0.5-1.2,1.2-1.6,1.9l0,0c0.5-0.7,1.2-1.2,1.9-1.6c0.1,0.1,0.1,0.1,0.2,0.2c-0.6,0.3-1,0.9-1.4,1.4l0,0c0.4-0.5,1-0.8,1.6-1
			c0.1,0.1,0.1,0.2,0.2,0.4c-0.4,0.1-0.8,0.4-1.1,0.7l0,0c0.4-0.3,0.8-0.4,1.3-0.4c0.1,0.1,0.1,0.3,0.2,0.4c-0.4,0-0.7,0.2-1,0.4
			l0,0c0.4-0.1,0.8-0.1,1.3,0c0.1,0.1,0.1,0.1,0.2,0.2c-0.2,0-0.4,0.1-0.7,0.1l0,0c0.4,0,0.7,0.1,1.2,0.1c0.1,0.1,0.3,0.1,0.5,0.1
			c0.1,0,0.1,0.1,0.2,0.1c-0.9,0.6-1.6,1.6-2.4,2.4c-0.8,0.7-1.7,1.3-2.5,2.1c-0.8,0.8-1.3,1.4-1.8,2.5c-0.4,1-1,1.8-1.3,2.8
			c-0.4,1.2-0.7,2.4-1.3,3.5c-0.6,1-1.4,2.1-2.3,2.9c-0.7,0.5-1.1,0.6-1.9,0.8c-0.2,0.1-0.4,0.2-0.7,0.3c-0.1,0-0.1,0.1-0.2,0.1
			C142.1,83,141.9,83,141.6,82.9z M139.4,77.4c0.2-0.7,0.7-1.5,1-2.2l0,0c-0.4,0.7-0.7,1.3-1.2,1.9c-0.1-0.1-0.2-0.1-0.4-0.1
			c0-0.1,0.1-0.1,0.1-0.1c0.2-0.6,0.4-1.1,0.7-1.7l0,0c-0.1,0.3-0.4,0.7-0.5,1c-0.1,0.1-0.2,0.3-0.3,0.4c-0.1,0.1-0.1,0.1-0.1,0.2
			l0,0c0,0,0,0-0.1,0c-0.1-0.1-0.2-0.1-0.3-0.1c1-1.9,1.8-3.8,2.9-5.7l0,0c-1.2,1.8-2.5,3.6-3.3,5.6c-0.3-0.1-0.4-0.1-0.7-0.1
			c0-0.1-0.1-0.1-0.1-0.1c-0.1-0.1,0.9-1.9,1-2.2c0.4-0.7,0.8-1.5,1.2-2.2l0,0c-0.8,1.3-1.7,2.5-2.5,3.7c-0.1,0.1-0.1,0.2-0.1,0.4
			c-0.1-0.1-0.1-0.1-0.3-0.2c-0.4-0.2-0.8-0.4-1.3-0.7c-0.1-0.1-0.3-0.3-0.4-0.4l0,0c-0.1-0.1-0.1-0.1-0.1-0.2
			c-0.1-0.1-0.2-0.3-0.3-0.5c-0.3-0.7,0.4-1.6,0.7-2.3l0,0c-0.3,0.4-1,1-1.2,1.7l0,0c-0.1-0.4-0.2-0.7-0.1-1.2
			c0.2-0.7,0.7-1.3,1.1-1.9l0,0c-0.4,0.5-1.4,1.4-1.6,2.2c-0.3-0.4-0.6-0.7-0.9-1.1l0,0c0.3,0.6,0.6,1.3,1,1.9
			c0.1,0.2,0.4,0.5,0.6,0.7c0.1,0.2,0.2,0.4,0.4,0.5c0.4,0.7,1,1.3,1.6,1.6c0.4,0.2,0.7,0.4,1,0.7c0.1,0.1,0.2,0.2,0.4,0.3
			c0.3,0.1,0.6,0,0.9,0.1c0.4,0.1,0.7,0.3,1,0.4c0.1,0,0.1,0.1,0.1,0.1C139.2,77.6,139.4,77.5,139.4,77.4z M143.6,78
			c0,0,0.1,0.1,0.1,0V78c0.5-0.2,1-0.7,1.3-1.1c0.1-0.1,0.4-0.4,0.5-0.5c1.4-1.7,2.2-4,2.6-6.1l0,0c-0.4,1.7-1.6,4.8-3.4,6.4
			c0.8-1.1,1.3-2.7,1.6-4l0,0c-0.3,1-0.7,1.9-1.3,2.8c-0.2,0.4-0.4,0.7-0.7,1c0.4-0.8,0.7-1.6,1-2.4l0,0c-0.6,1-1.3,2.1-1.7,3.2
			l-0.1,0.1c-0.1,0.1-0.2,0.1-0.3,0.1c0.3-0.5,0.5-1.2,0.7-1.6l0,0c-0.2,0.4-0.4,0.7-0.6,1.1c-0.1,0.3-0.4,0.4-0.6,0.6
			c-0.1,0-0.1,0-0.3,0c0.2-0.3,0.4-0.7,0.5-1c0.2-0.5,0.4-1.1,0.7-1.6l0,0c-0.2,0.5-0.5,1-0.8,1.6c-0.2,0.4-0.5,0.7-0.7,1.2
			c-0.1,0-0.3-0.1-0.5-0.1l0,0c0.7-1.2,1.3-2.5,1.9-3.7l0,0c-0.7,1.2-1.6,2.3-2.3,3.5c-0.1-0.1-0.2-0.1-0.4-0.1
			c1.2-1.8,2.2-3.7,3.1-5.7l0,0c-1,2-2.4,3.8-3.5,5.7c-0.2,0.1-0.4,0.1-0.8,0l0,0c0.6,0.4,1,0.2,1.6,0.4c0.6,0.2,0.8,0.4,1.6,0.3
			C143.1,78.2,143.3,78.1,143.6,78z M130.1,68.5c-1.1-0.5-2.1-1.3-1.7-2.7c0.3-0.9,0.8-1.8,1.4-2.5l0,0c-0.7,0.8-1.9,1.9-1.9,3.1
			c0-0.1-0.1-0.1-0.1-0.1c-0.3-1,0.4-2.3,1-3l0,0c-0.4,0.4-1.1,1.3-1.4,2.1c0-1.7,1.9-3.4,2.4-5l0,0c-0.4,1.1-1.8,2.3-2.5,3.5
			c0.1-1.2,0.7-2.2,1.5-3.2l0,0c-0.7,0.7-1.4,1.6-1.7,2.5c0.1-0.9,0.4-1.8,0.8-2.5c0.1-0.1-0.1-0.1-0.1-0.1
			c-1.3,1.8-1.5,3.9-0.6,5.6c0,0,0,0,0,0.1c0,0,0,0.1,0.1,0.1c0.1,0.2,0.1,0.4,0.4,0.6c0.1,0.1,0.2,0.2,0.3,0.4
			c0.3,0.5,0.9,0.9,1.5,1.2c0.1,0.1,0.1,0.1,0.2,0.1l0,0C129.8,68.4,129.9,68.5,130.1,68.5L130.1,68.5z M135.7,57.4
			c-0.1,0.1-0.3,0.3-0.4,0.4c-0.3,0.4-0.6,0.7-0.8,1.1l0,0c0.3-0.4,0.6-0.7,0.9-1c0.1-0.1,0.3-0.3,0.4-0.4c0.1-0.1,0.3-0.4,0.4-0.6
			c0,0,0-0.1-0.1-0.1C136.2,57.1,136,57.1,135.7,57.4z M133.4,63.1C133.4,63.2,133.5,63.2,133.4,63.1c1.4-1.7,2.7-3.5,4-5.4l0,0
			C136,59.5,134.8,61.2,133.4,63.1z M133.5,68.8C133.5,68.9,133.6,68.9,133.5,68.8c0.9-1.3,1.5-2.7,2.5-3.9l0,0
			C135,66,133.9,67.4,133.5,68.8z M134.7,54.4c0.4-0.2,0.8-0.5,1.3-0.7l0,0c-0.4,0.1-1,0.2-1.4,0.4c-0.4,0.2-0.8,0.5-1.2,0.9
			c0,0,0,0.1,0.1,0.1C133.8,54.8,134.3,54.6,134.7,54.4z M128.6,59.5L128.6,59.5L128.6,59.5C128.6,59.5,128.6,59.5,128.6,59.5
			c0.1-0.1,0.1-0.1,0.1-0.3c-0.1-0.1-0.1,0-0.1,0.1l0,0l0,0v0.1l0,0c-0.1-0.1-0.2,0-0.3,0.1l0,0l0,0c-0.2,0.1-0.1,0.4,0.1,0.4
			C128.6,60,128.8,59.8,128.6,59.5z M130.3,57.4c0.4-0.4,0.7-0.8,1-1.3l0,0c-0.4,0.4-0.8,0.8-1.2,1.3c-0.4,0.4-0.7,0.7-1,1.1
			c-0.1,0.1,0.1,0.2,0.2,0.1C129.6,58.4,129.9,57.9,130.3,57.4z M122.2,41.4c-2-2-4.2-4-6.4-5.6c-2.3-1.7-4.9-2.8-7.6-3.8
			c-0.1,0-0.1,0.1,0,0.1c2.5,1.2,4.9,2.6,7.2,4.1C117.8,37.7,120.1,39.4,122.2,41.4L122.2,41.4z M157,30.7
			C157,30.8,157,30.8,157,30.7L157,30.7z M157.4,30.4c-0.1-0.1-0.3-0.1-0.4,0.1l0,0c-0.1,0.1-0.1,0.1,0,0.2l0,0l0,0v0.1
			c0,0.1,0.1,0.1,0.1,0.1c0.1,0.1,0.2,0.1,0.3,0.1C157.6,30.9,157.7,30.6,157.4,30.4z M157.1,30.9L157.1,30.9L157.1,30.9L157.1,30.9
			z M154,47.4C154,47.4,153.9,47.4,154,47.4c-0.1,0.1-0.2,0.1-0.3,0.2c-0.1,0.1-0.2,0.1-0.3,0.2s0,0.1,0,0.1
			c0.1,0.1,0.4,0.1,0.5-0.1C154,47.8,154,47.6,154,47.4z M158.6,31.8c0.1-0.1,0.1-0.3,0.1-0.4c-0.1-0.2-0.3-0.3-0.4-0.1
			c-0.1,0.1-0.1,0.4-0.1,0.5c0,0.1,0.1,0.3,0.2,0.3C158.4,32.1,158.6,31.9,158.6,31.8z M156.6,30c0-0.1-0.1-0.1-0.2-0.1
			c0.1,0,0,0,0,0c-0.1-0.1-0.2,0-0.2,0.1c0,0.1,0.1,0.3,0.1,0.3C156.4,30.4,156.6,30.2,156.6,30z M159.7,37.4
			c0.1,0.1,0.2,0.1,0.3,0.3c0.1,0.1,0.1-0.1,0.1,0.1c0.1,0.2-0.1,0.4-0.2,0.6c-0.4,1-0.7,1.9,0,2.3c0.1,0,0.1,0,0.1,0.1
			c0.1,0,0.1,0.1,0.3,0.1c0.1,0,0.1,0,0.1,0c0.1-0.2,0-0.4,0.1-0.7c0.2-0.4,0.6-0.8,1-1l0,0c-0.4,0.2-0.7,0.6-0.8,1
			c-0.1,0.4,0,0.7,0,1c0,0.1-0.1,0.1-0.2,0.1c-0.1,0.1-0.3,0-0.4-0.1c0,0-0.1,0-0.1-0.1c0,0-0.1,0-0.1-0.1c-0.1,0-0.1-0.1-0.1-0.1
			c-0.2,0-0.5,0.1-0.6,0.3c-0.1,0.2-0.1,0.4,0,0.7c0.1,0.1,0.1,0.1,0.3,0.1c0.1,0,0.3-0.1,0.4-0.1c0,0.1-0.1,0.4-0.1,0.4
			c0,0,0.1,0.3,0.1,0.2c0,0.1-0.4,0.2-0.5,0.3c-0.3,0.1-0.7,0.4-0.6,0.7c0.1,0.1,0.1,0.1,0.2,0.2c0,0.1-0.1,0.4-0.1,0.4
			c0,0.1,0,0.3,0.1,0.4c0.1,0.4,0.4,0.4,0.8,0.2c-0.1,0.4,0,0.8,0.5,0.5c0.3-0.1,0.4-0.5,0.6-0.7c0.1-0.2,0.2-0.4,0.3-0.6
			c0.2-0.3,0.5-0.4,0.8-0.7c0.3-0.3,0.4-0.7,0.5-1.1c-0.1-0.2-0.2-0.4-0.4-0.7c-0.1-0.1-0.1-0.3,0.1-0.4c0.3-0.1,0.5-0.4,0.7-0.7
			c0.1-0.8,0.1-1.6,0.1-2.5c0-0.5,0.3-1.1,0.3-1.6c0-0.2,0.1-0.1-0.1-0.3c0-0.1-0.1-0.1-0.1-0.1c-0.2-0.1-0.5-0.1-0.5-0.4
			c0-0.1,0.1-0.2,0.1-0.4s-0.4-0.2-0.5-0.4c-0.4-0.4-0.4-1.2-0.9-1.3c-0.4-0.1-0.6,0.1-0.7,0.4c-0.1-0.1-0.4-0.4-0.2-0.6
			c0,0,0.1,0,0.2-0.1c0.2-0.1,0.2-0.4,0.2-0.6c-0.1-0.2-0.1-0.4-0.4-0.4s-0.3,0-0.4,0.1c-0.1-0.3-0.3-0.5-0.6-0.7
			c0-0.1-0.1-0.1-0.2-0.1h-0.1c-0.1,0.1-0.1,0.1,0,0.4c0,0.1,0.1,0.4,0.1,0.4c0.1,0.1,0.1,0.2,0,0.3l0,0c0,0.1-0.1,0.1-0.1,0.2
			s0.2,0.2,0.2,0.2c0.1,0.1,0,0.3-0.1,0.4c-0.1-0.1-0.1-0.3-0.3-0.4c-0.1-0.1-0.3,0-0.3,0.1c0.1,0.1,0.1,0.3,0.2,0.5
			c0.1,0.1,0.1,0.2,0.2,0.4c0.1,0.2,0.1,0.4,0.3,0.5c0.1,0.1,0.1,0.1,0.1,0.1c0.1,0.1,0.1,0.1,0.1,0.1c0.1,0,0.1,0,0.3,0.1l0.2-0.5
			l0,0c0.1,0.4-0.1,0.8-0.6,0.9c-0.1,0.1-0.2,0.2-0.2,0.3s0,0.1,0.1,0.1C160,36.4,159.5,37,159.7,37.4z M144.9,36.1
			c0.7-1.6,2.3-2.9,4.1-3.1l0,0C146.9,33,145.4,34.1,144.9,36.1C144.8,36.2,144.9,36.2,144.9,36.1z M145.9,29.5L145.9,29.5
			c0.1,0.6,0.1,1.1,0.1,1.7c0,0.4,0,0.7,0.1,1.1c-0.1,0-0.2,0.1-0.3,0.1c-0.7,0.4-1.3,1-1.7,1.7c-1,1.3-1.7,2.7-1.6,4.3l0,0
			c0-0.9,0.4-1.7,0.8-2.5v0.1c-0.9,2.3-1,4.9-0.6,7.4c-0.1-0.6-0.3-1.1-0.4-1.7l0,0c0.1,0.7,0.1,1.4,0.2,2.2
			c0.1,0.6,0.1,1.1,0.5,1.6h0.1c0-0.1,0-0.1,0-0.1l0,0c0-1.7-0.3-3.4-0.3-5.1c0-0.8,0.1-1.6,0.3-2.3c0.1-0.4,0.2-0.7,0.3-1
			c0.1-0.2,0.1-0.4,0.1-0.4c0,0,0.1-0.1,0-0.1c-0.2-0.4,0.7-1.3,0.8-1.8c0.1-0.2,0.1-0.4,0.2-0.5c0.1-0.1,0.2-0.4,0.3-0.5l0,0
			c0.1-0.1,0.2-0.2,0.4-0.3c0.5-0.4,1.1-0.5,1.7-0.5c0.8,0,2.1,0.1,2.7,0.8c0.1,0.1,0.1,0.1,0.1,0.2l0,0c-0.5-0.1-1-0.1-1.6,0.1l0,0
			c0.5-0.1,1,0,1.5,0.1c0.2,0.1,0.4,0.3,0.7,0.4c0,0,0,0,0.1,0.1c0.4,0.4,0.6,0.1,1.1,0.5c0.7,0.6,1.3,1.5,1.2,2.4
			c0,0.1,0,0.1-0.1,0.2c-0.1-0.3-0.1-0.7-0.4-1l0,0c0.1,0.3,0.1,0.6,0.1,0.9c-0.1-0.1-0.1-0.1-0.1-0.1c-0.1-0.5-0.1-1.3-0.8-1.3l0,0
			c0.4,0.2,0.4,0.7,0.5,1.2c-0.1-0.1-0.4-0.1-0.6,0.1l0,0c-0.4,1.2-0.3,2.5,0,3.8l0,0c-0.3-0.8-0.5-1.6-0.6-2.4
			c-0.1-0.7-0.1-1.8,0.3-1.7c0.1,0,0.2,0,0.4,0l0,0c-0.2-0.1-0.7-0.4-1-0.1c0,0,0,0.1-0.1,0.1c-0.1,0.1-0.1,0.3-0.1,0.4
			s0,0.2-0.1,0.4c-0.1,0.6,0,1.3,0,1.6c0,0.7,0,1.5,0.1,2.2l0,0c-0.2-1.1-0.4-2.3-0.4-3.5c-0.1,0-0.4-0.1-0.7-0.2
			c-0.1,0-0.1,0-0.1,0.1c0,0.2-0.1,0.4-0.3,0.4c-0.2,1.7-0.1,3.4,0.6,5l0,0c-0.7-1.5-1.3-3.3-1.1-5c-0.1,0-0.2,0-0.3-0.1
			c-0.1,0-0.1,0-0.2-0.1c-0.1,0.1-0.1,0.2-0.1,0.3c-0.1,0.4-0.1,0.8-0.1,1.3l0,0c-0.1-0.4-0.3-1-0.3-1.6c-0.1,0-0.1,0-0.1,0
			c-0.1,0.1-0.1,0.2-0.2,0.3c-0.1,0.2-0.1,0.5-0.1,0.7c0.1,0.5,0.2,1.1,0.4,1.6c0,0.1-0.1,0.1-0.2,0.1c-0.4-1-1-2.8,0.1-3.5
			c0.1-0.1,0.1-0.1,0.1-0.1l0,0c-0.7,0.4-1.1,0.9-1.3,1.5l0,0c-0.3,1.1-0.3,2.3-0.1,3.5l0,0c-0.2-1-0.4-2.2-0.3-3.1l0,0
			c0.2-1,0.7-1.9,1.6-2.6l0,0c-1,0.6-1.9,1.7-2.2,2.9c-0.2,0.1-0.4,0.1-0.7,0.2c0,0,0,0,0-0.1c0.1-1.1,0.1-2.2,0.3-3.3l0,0
			c-0.3,1-0.7,1.9-0.8,3c-0.1,1-0.1,1.8-0.1,2.8c0,0.1,0.1,0.1,0.1,0c0.1-0.7,0.3-1.3,0.4-1.9c0.2,0.4,0.2,0.8,0.2,1.3
			c0.1-0.2,0.2-0.4,0.3-0.5l0,0c-0.1,0.4,0.1,0.8,0,1.2c0,0.1-0.1,0.3-0.2,0.5c-0.1,0.2-0.1,0.4-0.1,0.7h-0.1c0-0.3-0.1-0.5-0.1-0.8
			v-0.1c-0.1,0.8-0.4,1.6-0.5,2.3c-0.1-0.6-0.1-1.3-0.1-1.9l0,0c-0.3,1-0.4,1.9-0.3,2.9l0,0c0,0.1-0.1,0.4-0.1,0.5
			c-1.2-1.5-1.4-4.2-1.6-5.8l0,0c0.1,1.4,0.2,2.8,0.4,4.2c0.1,0.4,0.1,0.7,0.3,1c-0.1-0.1-0.1-0.1-0.2-0.1c-0.4-0.8-0.7-1.8-0.8-2.6
			c-0.3-1.3-0.5-2.7-0.6-4l0,0c0,1.6,0.1,3.1,0.4,4.7c0.1,0.6,0.2,1,0.4,1.4c-0.1-0.1-0.3-0.1-0.4-0.2c-0.1-0.1-0.1-0.3-0.1-0.4
			c0-0.2-0.1-0.4-0.1-0.5c-0.6-1.9-1-3.9-1-6l0,0c-0.1,1.5-0.1,3,0.1,4.5c-0.1-0.1-0.1-0.2-0.2-0.3c-0.8-1.4-1.1-3.5-1-5.1l0,0
			c-0.2,1.4-0.1,2.7,0.3,4.1c0.1,0.6,0.3,1.2,0.6,1.7c0.1,0.3,0.4,0.6,0.6,0.9c0.1,0.3,0.2,0.6,0.4,0.9c0,0.1,0.1,0.2,0.1,0.3
			c0.1,0.3,0.1,0.3,0.3,0.4c0.4,0.4,0.9,0.5,1.3,0.9c0.4,0.4,0.7,0.7,1.1,1c0.8,0.7,1.8,1.1,2.8,1.4c0.7,0.2,1.6,0.4,2.4,0.1v-0.1
			c-0.9,0.2-1.9,0-2.8-0.4c0.2,0,0.4,0,0.7,0l0,0c-0.1-0.1-0.4-0.1-0.5-0.2c0.1-0.1,0.1-0.1,0.1-0.2c0.3,0.1,0.5,0.1,0.7,0.4l0,0
			c-0.1-0.3-0.4-0.5-0.6-0.7c0-0.1,0-0.1,0.1-0.2c0.4,0.1,0.7,0.3,1,0.6l0,0c-0.2-0.3-0.6-0.7-0.9-0.9c0-0.1,0.1-0.1,0.1-0.2
			c0.6,0.2,1.1,0.6,1.4,1.2l0,0c-0.2-0.6-0.5-1.2-1-1.6c0.1-0.6,0.7-0.7,1.3-0.7c0.7,0.7,1.3,1.4,1.6,2.4l0,0
			c-0.3-0.9-0.7-1.8-1.3-2.5c0,0,0-0.1,0.1-0.1c0.2,0.1,0.4,0.3,0.7,0.4c0.2,0.3,0.4,0.6,0.7,0.9l0,0c-0.2-0.5-0.5-1-0.7-1.4
			c0.1,0,0.2,0.1,0.3,0.1c0.6,0.7,1.2,1.4,1.6,2.2l0,0c-0.2-0.6-0.4-1.2-0.7-1.8l0,0c0.1,0.1,0.2,0.2,0.4,0.3
			c0.3,0.4,0.6,0.9,0.8,1.3c0.2,0.5,0.3,1,0.4,1.6l0,0c0-0.9-0.1-1.8-0.4-2.5c-0.1-0.7-0.4-1.3-0.6-1.9l0,0c0.1,0.1,0.3,0.1,0.4,0.2
			c0.1,0.1,0.1,0.1,0.1,0.1c0.4,0.5,0.8,1.1,1.1,1.7l0,0c-0.3-0.8-0.7-1.7-1.1-2.5c0-0.1,0-0.2,0-0.4c0-0.1,0.1-0.1,0.1-0.1
			s0.1,0,0.1-0.1c0.1,0,0.4,0.1,0.5,0.3c0.1,0.3,0.4,0.6,0.5,1l0,0c-0.1-0.5-0.3-1-0.4-1.6c0.1,0,0.1,0,0.1,0c0.4,0.4,0.7,0.8,1,1.3
			l0,0c-0.1-0.4-0.4-0.8-0.5-1.3c0-0.1,0-0.1,0-0.2c0-0.1,0.1-0.2,0.1-0.3c0.1-0.1,0.2-0.1,0.4,0c0.1,0.1,0.2,0.2,0.3,0.4
			c0.1,0.2,0.1,0.4,0.2,0.7c0,0.1,0.1,0,0.1,0c-0.1-0.4-0.1-1,0-1.5c0.6-1.6,0.5-3.4,0.4-5.2l0,0c0.1,1.3-0.1,2.6-0.4,3.9l0,0
			c0-0.2-0.1-0.4-0.1-0.6c0.1-0.9,0-1.8-0.1-2.7l0,0c0,0.7-0.1,1.3-0.3,2c-0.1-0.1-0.1-0.2-0.1-0.3c-0.2-0.4-0.2-0.8-0.4-1.2
			c0-0.1-0.1-0.1-0.1-0.1c-0.1-0.6,0.2-1.2,0.1-1.8c-0.1-0.5-0.7-1-1-1.4c-0.4-0.4-0.5-0.6-1-0.7c-0.1-0.1-0.2-0.1-0.3-0.1
			c-0.1-0.1-0.1-0.1-0.3-0.2c-0.1-0.1-0.1-0.1-0.2-0.2c-0.1-0.2-0.2-0.4-0.4-0.6c-0.2-0.2-0.5-0.3-0.9-0.4c-0.2-0.1-0.5-0.1-0.8-0.1
			c-0.7-0.2-1.3-0.3-1.9-0.1c0-0.4-0.1-0.7-0.1-1C146.1,30.6,146,30,145.9,29.5z M152.2,38.5c0,0.9,0,1.8,0.2,2.7l0,0
			c-0.4-0.9-0.5-1.7-0.4-2.7C152.1,38.3,152.2,38.4,152.2,38.5z M155.1,45.6c1.1-1.2,1.5-2.7,1.6-4.3l0,0
			C156.5,42.9,155.8,44.2,155.1,45.6C155.1,45.6,155.1,45.6,155.1,45.6z M158.6,47.4c-0.1,0.1-0.2,0-0.3,0.1c-0.1,0-0.2,0.1-0.4,0.1
			c-0.1,0-0.1,0-0.2-0.1c-0.1,0-0.1-0.1-0.1-0.1c-0.1,0-0.1,0.1-0.1,0.1c-0.1,0.3,0.3,0.5,0.5,0.4c0.1,0,0.3-0.1,0.4-0.1
			c0.1-0.1,0.1-0.1,0.1-0.1C158.6,47.7,158.6,47.5,158.6,47.4C158.6,47.5,158.6,47.4,158.6,47.4z M156.6,47.2
			c0.1-0.1,0.1-0.4,0.2-0.5l0,0c-0.1,0.1-0.4,0.2-0.5,0.4c-0.1,0.1-0.1,0.3-0.3,0.4c0,0.1,0,0.1,0.1,0.1s0.1-0.1,0.1-0.1v0.1
			l0.1,0.1c0.1,0.1,0.2,0,0.3-0.1c0.1-0.1,0.1-0.1,0.1-0.2c0-0.1,0.1-0.1,0.1-0.2l0,0C156.7,47.1,156.6,47.1,156.6,47.2
			C156.6,47.1,156.6,47.1,156.6,47.2z M157.1,48c-0.1,0.1-0.1,0.1-0.2,0.1c-0.1,0.1-0.1,0.1-0.1,0.2c0,0.1,0.1,0.1,0.2,0.1
			C157.1,48.4,157.1,48.2,157.1,48C157.1,48,157.1,48,157.1,48z M147.7,32.8L147.7,32.8c-0.7,0-1.4,0.1-2,0.6c-0.7,0.4-1,1-1.3,1.7
			c0,0,0,0.1,0.1,0C145.1,34.2,146.5,33.1,147.7,32.8z M162.3,44.3c-0.4,0.4-0.9,1.2-0.4,1.6c0.6,0.4,1-0.4,1.2-0.8
			c0.1-0.3,0.2-0.7,0-1C163,44,163,43.9,163,44C162.7,43.9,162.4,44.2,162.3,44.3z M155.6,46.3c0.7-0.4,1-1.3,1.3-1.9l0,0
			C156.6,45.1,156.1,45.6,155.6,46.3C155.4,46.2,155.5,46.4,155.6,46.3z M149.2,16.5c0,0.1,0.1,0.2,0,0.3c0,0.1,0,0.1,0,0.2
			c0.1,0.1,0.4,0.1,0.3-0.1c0-0.1-0.1-0.1-0.1-0.2C149.4,16.6,149.3,16.5,149.2,16.5C149.3,16.4,149.2,16.4,149.2,16.5z M156.3,39.5
			c-0.3,1.9-1,3.6-1.6,5.4c0,0.1,0.1,0.1,0.1,0.1C155.7,43.2,156.1,41.3,156.3,39.5C156.3,39.4,156.3,39.4,156.3,39.5z M148.4,36
			c-0.1,0.1-0.1,0.1,0,0.1l0,0c0,0.1,0,0.1,0.1,0.1l0,0l0,0c0,0,0.1,0,0.1,0C148.8,36.2,148.6,35.9,148.4,36z M150.6,36.2
			c-0.1-0.1-0.4-0.3-0.6-0.2c-0.1,0.1-0.1,0.3,0,0.2c0.1,0,0.1-0.1,0.2-0.1C150.4,36.1,150.5,36.1,150.6,36.2L150.6,36.2z
			 M150.1,23.4C150.1,23.5,150.1,23.5,150.1,23.4c0.1-0.9,0.1-1.7-0.2-2.5s-0.8-1.5-1.4-2.2l0,0C149.3,20,149.9,21.8,150.1,23.4z
			 M149,36.3c-0.1,0.1-0.2,0.1-0.4,0.2c-0.1,0-0.2,0.1-0.4,0c-0.1,0-0.1,0.1-0.1,0.1c0.1,0.1,0.3,0.2,0.5,0.1
			C148.9,36.7,149,36.5,149,36.3L149,36.3z M144.8,16.6L144.8,16.6c2.2,3.4,3.7,7.8,3.7,11.9h0.1c0.1-2.2-0.1-4.3-0.7-6.3
			C147.1,20.2,146.1,18.3,144.8,16.6z M150.9,35.5c-0.3-0.2-0.6-0.4-1-0.4c-0.4-0.1-0.7,0-1,0.2c-0.1,0,0,0.1,0,0.1
			C149.6,35.2,150.3,35.2,150.9,35.5L150.9,35.5z M142,15c3.7,4.6,5.6,10.6,5.7,16.4c0,0.1,0.1,0.1,0.1,0
			C148.2,25.3,146,19.6,142,15L142,15z M149,37.4c0.3-0.2,0.3-0.6,0.3-0.9l0,0c-0.1,0.2-0.1,0.4-0.3,0.6s-0.4,0.1-0.6,0.1
			s-0.4,0-0.6,0.1c0,0,0,0.1,0,0c0.3-0.1,0.5,0.1,0.8,0.1c0.1-0.1,0.1-0.1,0.2,0C148.9,37.4,149,37.4,149,37.4z M145.1,38.6
			C145.1,38.6,145.2,38.6,145.1,38.6c0.4-1.2,1.4-2.1,2.4-2.8c0.4-0.3,0.7-0.7,1.3-0.9c1-0.4,2.1,0.1,2.8,0.8l0,0
			c-1-1.3-2.8-1.7-4.1-0.6c-0.2,0.2-0.4,0.5-0.7,0.7c-0.3,0.2-0.7,0.3-1,0.6c-0.1,0.1-0.1,0.1-0.2,0.2c0.4-1.1,1.3-2.2,2.4-2.7l0,0
			c-1.7,0.6-2.8,2-2.8,3.8C145.2,38,145.1,38.3,145.1,38.6z M150.7,35.8c-0.3-0.2-1-0.5-1.3-0.1c0,0.1,0,0.1,0,0.1
			c0.1,0,0.4,0,0.5-0.1C150.3,35.6,150.5,35.7,150.7,35.8C150.7,35.8,150.8,35.8,150.7,35.8z M149.4,26.6
			C149.4,26.7,149.5,26.7,149.4,26.6c0.4-3.4-0.7-6.3-2.8-8.9l0,0C148.4,20.2,149.3,23.5,149.4,26.6z M135.7,62.7
			c-0.4,0.5-0.7,1.1-1,1.7c0,0,0,0.1,0,0c0.4-0.5,0.7-1,1.1-1.6c0.4-0.5,0.7-1.1,1-1.6l0,0C136.6,61.7,136.1,62.1,135.7,62.7z
			 M134.3,65c-0.2,0.3-0.5,0.6-0.7,1c0,0.1,0.1,0.1,0.1,0.1C134,65.7,134.2,65.3,134.3,65L134.3,65z M139.8,74.2
			c-0.1,0.1-0.1,0.3-0.1,0.4c0,0.1,0.1,0.1,0.1,0c0.1-0.1,0.1-0.2,0.1-0.3c0.1-0.1,0.1-0.2,0.1-0.4c0.1-0.2,0.2-0.4,0.4-0.7l0,0
			c-0.1,0.2-0.3,0.4-0.4,0.6C139.9,74,139.8,74.2,139.8,74.2z M144.2,71.1c0-0.1,0.1-0.2,0.1-0.3c0.1-0.1,0.1-0.2,0.1-0.4l0,0
			c-0.1,0.1-0.2,0.1-0.2,0.3C144.2,70.9,144.2,70.9,144.2,71.1C144.2,71.2,144.2,71.2,144.2,71.1z M144,73.6L144,73.6
			c0.4-0.6,0.7-1.1,1-1.7c0.3-0.6,0.6-1.2,1-1.8l0,0c-0.4,0.6-0.7,1.1-1,1.7C144.5,72.3,144.3,72.9,144,73.6z M144.2,75.1
			L144.2,75.1c0.2-0.3,0.4-0.5,0.5-0.8c0.1-0.4,0.3-0.7,0.4-1.1l0,0c-0.2,0.3-0.4,0.7-0.6,1C144.4,74.4,144.3,74.7,144.2,75.1z
			 M158.7,33.1c0.1-0.2-0.1-0.6-0.4-0.5c-0.1,0-0.1,0.1-0.1,0.2c0,0,0,0,0,0.1l0,0c0,0.1,0.1,0.2,0.1,0.3
			C158.5,33.3,158.6,33.3,158.7,33.1z M158.9,46.2C158.9,46.2,158.9,46.1,158.9,46.2c-0.1-0.1-0.1-0.2-0.1-0.3c0-0.1,0-0.1,0-0.1
			c0,0,0-0.1,0,0c0-0.1,0-0.2-0.1-0.3c-0.1-0.1-0.4-0.1-0.6,0S158,45.8,158,46c0.1,0.4,0.4,0.7,0.8,0.7c0.1,0,0.2-0.1,0.2-0.2
			c0.1,0.1,0.3,0.1,0.4,0.1c0,0,0-0.1,0.1-0.1c0.1-0.1,0.1-0.4,0-0.5C159.2,45.8,158.9,45.9,158.9,46.2z M158.9,47.4
			c0,0.1,0,0.2,0.1,0.4l0,0c0,0.1,0.1,0.1,0.1,0.1C159.4,47.7,159.3,47.3,158.9,47.4C159,47.2,158.9,47.3,158.9,47.4z M152.5,51.5
			C152.5,51.6,152.5,51.6,152.5,51.5c0,0.1,0,0.1-0.1,0.1l0,0l0,0v0.1c0,0.1,0.3,0.2,0.4,0.1c0.1-0.1,0.1-0.2-0.1-0.3
			C152.7,51.4,152.5,51.5,152.5,51.5z M152.6,51.8L152.6,51.8L152.6,51.8L152.6,51.8z M136.9,53.3c0-0.1-0.1-0.1-0.1-0.1
			s-0.1,0.1-0.1,0.1l0,0c-0.1,0.1,0.1,0.2,0.1,0.1C136.9,53.4,136.9,53.3,136.9,53.3z M137.9,30.2L137.9,30.2
			c0.1,0.6,0.4,1.1,0.5,1.6c0.1,0.4,0.4,1,0.7,1.3l0,0c0,0.1,0.1,0.1,0.2,0.1c0.1,0,0.1-0.1,0.1-0.1V33c0-0.1-0.1-0.1-0.2-0.1
			c-0.1-0.4-0.4-0.7-0.7-1C138.3,31.2,138,30.7,137.9,30.2z M170.6,40.1C170.5,40.2,170.7,40.3,170.6,40.1c1.2-0.9,2-2.2,3.1-3.2
			l0,0C172.5,37.9,171.3,38.9,170.6,40.1z M171.1,40.5C171,40.6,171.2,40.6,171.1,40.5c0.7-0.6,1.3-1.3,1.9-2l0,0
			C172.3,39.1,171.6,39.7,171.1,40.5z M171.9,40.6C171.9,40.7,171.9,40.7,171.9,40.6c0.4-0.2,0.7-0.7,1-1l0,0
			C172.5,40,172.2,40.3,171.9,40.6z M187.3,14.1c-0.1,0.1,0.1,0.2,0.1,0.1c0.2-0.4,0.3-0.8,0.4-1.2l0,0
			C187.7,13.3,187.4,13.7,187.3,14.1z M115.1,34.1c0.3,0.2,0.6,0.4,0.9,0.7c0.3,0.2,0.7,0.4,0.9,0.7l0,0c-0.2-0.3-0.5-0.6-0.8-0.7
			C115.8,34.4,115.4,34.2,115.1,34.1L115.1,34.1z M130.9,59.6c0.7-1,1.6-1.8,2.5-2.6c0.9-0.8,1.9-1.7,2.9-2.4l0,0
			c-1.1,0.7-2.1,1.3-3.1,2.2C132.4,57.6,131.6,58.6,130.9,59.6C130.8,59.6,130.9,59.6,130.9,59.6z M123.3,42.3
			c-0.1-0.1-0.1-0.3-0.2-0.4c-0.1-0.1-0.2-0.1-0.4-0.2l0,0c0.1,0.1,0.1,0.2,0.3,0.3C123,42.1,123.1,42.2,123.3,42.3
			C123.3,42.4,123.3,42.3,123.3,42.3z M142.9,11.2c0.1,0.1,0.2,0,0.2-0.1c-0.1-0.3-0.4-0.5-0.6-0.7l0,0
			C142.6,10.6,142.7,11,142.9,11.2z"/>
	</g>
</g>
<g>
	<g>
		
			<linearGradient id="SVGID_1_" gradientUnits="userSpaceOnUse" x1="158.3663" y1="23.7109" x2="158.3663" y2="64.4593" gradientTransform="matrix(1 0 0 -1 0 86)">
			<stop  offset="0" style="stop-color:#4D250D"/>
			<stop  offset="1" style="stop-color:#A87D28"/>
		</linearGradient>
		<path class="st4" d="M155,62.3c0,0,7.4-6.9,4-19.4c-3.7-13.6,2.8-21.3,2.8-21.3s-4.5,3.2-5.1,11.9C156.2,40.5,163.8,52.4,155,62.3
			z"/>
		
			<linearGradient id="SVGID_2_" gradientUnits="userSpaceOnUse" x1="156.2106" y1="43.845" x2="156.2106" y2="55.6771" gradientTransform="matrix(1 0 0 -1 0 86)">
			<stop  offset="0" style="stop-color:#4D250D"/>
			<stop  offset="1" style="stop-color:#A87D28"/>
		</linearGradient>
		<path class="st5" d="M158.4,42.1c0,0-3.8-7.2-4.3-11.9C153.6,33,155.9,39.1,158.4,42.1z"/>
		
			<linearGradient id="SVGID_3_" gradientUnits="userSpaceOnUse" x1="161.0801" y1="39.5158" x2="161.0801" y2="49.2283" gradientTransform="matrix(1 0 0 -1 0 86)">
			<stop  offset="0" style="stop-color:#4D250D"/>
			<stop  offset="1" style="stop-color:#A87D28"/>
		</linearGradient>
		<path class="st6" d="M159.1,46.5c0,0,0.2-6.3,3.9-9.7C160.6,38,158.9,42.5,159.1,46.5z"/>
		
			<linearGradient id="SVGID_4_" gradientUnits="userSpaceOnUse" x1="157.013" y1="32.7962" x2="157.013" y2="44.0401" gradientTransform="matrix(1 0 0 -1 0 86)">
			<stop  offset="0" style="stop-color:#4D250D"/>
			<stop  offset="1" style="stop-color:#A87D28"/>
		</linearGradient>
		<path class="st7" d="M159.2,53.2c0,0,0.1-7.6-4.6-11.3C158.8,44.4,159.7,50,159.2,53.2z"/>
		
			<linearGradient id="SVGID_5_" gradientUnits="userSpaceOnUse" x1="160.0828" y1="53.3223" x2="160.0828" y2="60.885" gradientTransform="matrix(1 0 0 -1 0 86)">
			<stop  offset="0" style="stop-color:#4D250D"/>
			<stop  offset="1" style="stop-color:#A87D28"/>
		</linearGradient>
		<path class="st8" d="M157.4,32.7c0,0,1-5.6,5.3-7.5C161.6,25.1,158.7,26.6,157.4,32.7z"/>
		
			<linearGradient id="SVGID_6_" gradientUnits="userSpaceOnUse" x1="156.719" y1="50.8978" x2="156.719" y2="61.8498" gradientTransform="matrix(1 0 0 -1 0 86)">
			<stop  offset="0" style="stop-color:#4D250D"/>
			<stop  offset="1" style="stop-color:#A87D28"/>
		</linearGradient>
		<path class="st9" d="M156.8,35.1c0,0,0.3-8-0.6-11C157.2,25.6,157.5,31.9,156.8,35.1z"/>
		
			<linearGradient id="SVGID_7_" gradientUnits="userSpaceOnUse" x1="160.1417" y1="43.1252" x2="160.1417" y2="49.7313" gradientTransform="matrix(1 0 0 -1 0 86)">
			<stop  offset="0" style="stop-color:#4D250D"/>
			<stop  offset="1" style="stop-color:#A87D28"/>
		</linearGradient>
		<path class="st10" d="M159.5,42.9c0,0-0.1-3.9,1.3-6.6C159.7,36.6,159.4,40.4,159.5,42.9z"/>
		
			<linearGradient id="SVGID_8_" gradientUnits="userSpaceOnUse" x1="162.8068" y1="46.9211" x2="162.8068" y2="52.1664" gradientTransform="matrix(1 0 0 -1 0 86)">
			<stop  offset="0" style="stop-color:#4D250D"/>
			<stop  offset="1" style="stop-color:#A87D28"/>
		</linearGradient>
		<path class="st11" d="M160.9,39.1c0,0,3.2-1.2,3.9-5.2C161.5,36,160.9,39.1,160.9,39.1z"/>
		
			<linearGradient id="SVGID_9_" gradientUnits="userSpaceOnUse" x1="160.7557" y1="46.5655" x2="160.7557" y2="52.8183" gradientTransform="matrix(1 0 0 -1 0 86)">
			<stop  offset="0" style="stop-color:#4D250D"/>
			<stop  offset="1" style="stop-color:#A87D28"/>
		</linearGradient>
		<path class="st12" d="M159.7,39.5c0,0,2.6-2.2,1.9-6.3C159.3,36.3,159.7,39.5,159.7,39.5z"/>
		
			<linearGradient id="SVGID_10_" gradientUnits="userSpaceOnUse" x1="156.202" y1="58.6523" x2="156.202" y2="64.9705" gradientTransform="matrix(1 0 0 -1 0 86)">
			<stop  offset="0" style="stop-color:#4D250D"/>
			<stop  offset="1" style="stop-color:#A87D28"/>
		</linearGradient>
		<path class="st13" d="M157,27.4c0,0,1-3.3-1.7-6.3C154.9,25,157,27.4,157,27.4z"/>
		
			<linearGradient id="SVGID_11_" gradientUnits="userSpaceOnUse" x1="154.0377" y1="51.9213" x2="154.0377" y2="58.2399" gradientTransform="matrix(1 0 0 -1 0 86)">
			<stop  offset="0" style="stop-color:#4D250D"/>
			<stop  offset="1" style="stop-color:#A87D28"/>
		</linearGradient>
		<path class="st14" d="M154.8,34.1c0,0,1-3.3-1.7-6.3C152.7,31.7,154.8,34.1,154.8,34.1z"/>
		
			<linearGradient id="SVGID_12_" gradientUnits="userSpaceOnUse" x1="155.9315" y1="41.08" x2="155.9315" y2="44.0169" gradientTransform="matrix(1 0 0 -1 0 86)">
			<stop  offset="0" style="stop-color:#4D250D"/>
			<stop  offset="1" style="stop-color:#A87D28"/>
		</linearGradient>
		<path class="st15" d="M157.5,44.9c0,0,0.7-2.2-3.2-2.9C156.3,45.3,157.5,44.9,157.5,44.9z"/>
		
			<linearGradient id="SVGID_13_" gradientUnits="userSpaceOnUse" x1="162.0232" y1="58.4965" x2="162.0232" y2="62.5499" gradientTransform="matrix(1 0 0 -1 0 86)">
			<stop  offset="0" style="stop-color:#4D250D"/>
			<stop  offset="1" style="stop-color:#A87D28"/>
		</linearGradient>
		<path class="st16" d="M159.4,27.5c0,0,3.4-0.3,5.1-4C160.8,24.7,159.4,27.5,159.4,27.5z"/>
		
			<linearGradient id="SVGID_14_" gradientUnits="userSpaceOnUse" x1="161.1276" y1="59.9814" x2="161.1276" y2="66.9102" gradientTransform="matrix(1 0 0 -1 0 86)">
			<stop  offset="0" style="stop-color:#4D250D"/>
			<stop  offset="1" style="stop-color:#A87D28"/>
		</linearGradient>
		<path class="st17" d="M158.4,26c0,0,4.4-1.5,5.4-6.9C159.4,21.9,158.4,26,158.4,26z"/>
	</g>
	
		<linearGradient id="SVGID_15_" gradientUnits="userSpaceOnUse" x1="161.4635" y1="27.1986" x2="161.4635" y2="35.3442" gradientTransform="matrix(1 0 0 -1 0 86)">
		<stop  offset="0" style="stop-color:#4D250D"/>
		<stop  offset="1" style="stop-color:#A87D28"/>
	</linearGradient>
	<path class="st18" d="M158.2,58.8c0,0,2.1-6,6.6-8.1C162,51,159.1,55,158.2,58.8z"/>
	
		<linearGradient id="SVGID_16_" gradientUnits="userSpaceOnUse" x1="163.4862" y1="33.5288" x2="163.4862" y2="36.0833" gradientTransform="matrix(1 0 0 -1 0 86)">
		<stop  offset="0" style="stop-color:#4D250D"/>
		<stop  offset="1" style="stop-color:#A87D28"/>
	</linearGradient>
	<path class="st19" d="M162,52.2c0,0,1.2,1.3,3.1-2.3C161.2,51,162,52.2,162,52.2z"/>
	<g>
		
			<linearGradient id="SVGID_17_" gradientUnits="userSpaceOnUse" x1="161.165" y1="30.5383" x2="161.165" y2="36.4849" gradientTransform="matrix(1 0 0 -1 0 86)">
			<stop  offset="0" style="stop-color:#4D250D"/>
			<stop  offset="1" style="stop-color:#A87D28"/>
		</linearGradient>
		<path class="st20" d="M159.6,55.5c0,0,1-3.7,3.1-6C161.6,49.5,160.1,53.1,159.6,55.5z"/>
		
			<linearGradient id="SVGID_18_" gradientUnits="userSpaceOnUse" x1="162.1618" y1="33.7789" x2="162.1618" y2="39.0216" gradientTransform="matrix(1 0 0 -1 0 86)">
			<stop  offset="0" style="stop-color:#4D250D"/>
			<stop  offset="1" style="stop-color:#A87D28"/>
		</linearGradient>
		<path class="st21" d="M160.8,52.2c0,0,2.2-1.2,2.8-5.2C160.3,49.3,160.8,52.2,160.8,52.2z"/>
	</g>
	<g>
		
			<linearGradient id="SVGID_19_" gradientUnits="userSpaceOnUse" x1="158.5902" y1="23.9826" x2="158.5902" y2="27.5915" gradientTransform="matrix(1 0 0 -1 0 86)">
			<stop  offset="0" style="stop-color:#4D250D"/>
			<stop  offset="1" style="stop-color:#A87D28"/>
		</linearGradient>
		<path class="st22" d="M155.7,62c0,0,2.8-2.7,5.7-3.5C160.5,57.9,157.4,60.2,155.7,62z"/>
		
			<linearGradient id="SVGID_20_" gradientUnits="userSpaceOnUse" x1="161.3515" y1="26.1524" x2="161.3515" y2="28.9688" gradientTransform="matrix(1 0 0 -1 0 86)">
			<stop  offset="0" style="stop-color:#4D250D"/>
			<stop  offset="1" style="stop-color:#A87D28"/>
		</linearGradient>
		<path class="st23" d="M158.4,59.8c0,0,3.4,0.4,5.9-2.8C160.3,57.4,158.4,59.8,158.4,59.8z"/>
	</g>
	<g>
		
			<linearGradient id="SVGID_21_" gradientUnits="userSpaceOnUse" x1="157.3406" y1="27.4221" x2="157.3406" y2="34.1463" gradientTransform="matrix(1 0 0 -1 0 86)">
			<stop  offset="0" style="stop-color:#4D250D"/>
			<stop  offset="1" style="stop-color:#A87D28"/>
		</linearGradient>
		<path class="st24" d="M157,58.6c0,0,0.9-3.7,0.1-6.7C158.1,52.4,157.7,56.2,157,58.6z"/>
		
			<linearGradient id="SVGID_22_" gradientUnits="userSpaceOnUse" x1="157.1041" y1="30.8235" x2="157.1041" y2="37.3353" gradientTransform="matrix(1 0 0 -1 0 86)">
			<stop  offset="0" style="stop-color:#4D250D"/>
			<stop  offset="1" style="stop-color:#A87D28"/>
		</linearGradient>
		<path class="st25" d="M157.5,55.2c0,0-2.2-2.7-0.6-6.5C158.6,52.2,157.5,55.2,157.5,55.2z"/>
	</g>
</g>
<g>
	<path class="st26" d="M75.8,63.9c0,0.4,0.1,0.7,0.1,0.9c0.1,0.4,0.4,0.7,0.7,0.7c0.1,0,0.3-0.1,0.4-0.1c0.2-0.1,0.4-0.5,0.4-1
		c0-0.4-0.1-0.6-0.1-0.7c-0.1-0.1-0.3-0.3-0.5-0.4L76.4,63c-0.3-0.1-0.4-0.3-0.6-0.4c-0.2-0.3-0.3-0.7-0.3-1.2c0-0.6,0.1-1,0.3-1.4
		s0.4-0.6,0.8-0.6c0.3,0,0.6,0.1,0.8,0.5c0.2,0.3,0.4,0.9,0.4,1.6h-0.4c0-0.4-0.1-0.6-0.1-0.8c-0.1-0.4-0.4-0.5-0.7-0.5
		c-0.2,0-0.4,0.1-0.5,0.3c-0.1,0.2-0.1,0.4-0.1,0.7c0,0.3,0.1,0.5,0.2,0.7c0.1,0.1,0.3,0.2,0.6,0.4l0.4,0.2c0.2,0.1,0.4,0.2,0.5,0.4
		c0.2,0.3,0.3,0.7,0.3,1.3c0,0.7-0.1,1.3-0.4,1.6s-0.5,0.4-0.9,0.4s-0.7-0.2-0.9-0.6c-0.2-0.4-0.3-1-0.3-1.7
		C75.5,63.9,75.8,63.9,75.8,63.9z"/>
	<path class="st26" d="M78.7,59.4h1.5c0.3,0,0.5,0.1,0.7,0.5c0.1,0.3,0.3,0.8,0.3,1.4c0,0.5-0.1,1-0.2,1.3s-0.4,0.6-0.7,0.6h-1V66
		h-0.4V59.4z M80.5,60.3c-0.1-0.1-0.2-0.1-0.4-0.1h-0.9v2.2h0.9c0.2,0,0.4-0.1,0.4-0.2s0.1-0.4,0.1-0.9
		C80.8,60.8,80.7,60.5,80.5,60.3z"/>
	<path class="st26" d="M82.6,59.4h0.5l1.2,6.6h-0.5L83.4,64h-1.3l-0.4,1.9h-0.4L82.6,59.4z M83.4,63.3l-0.5-2.9l-0.5,2.9H83.4z"/>
	<path class="st26" d="M84.9,66.9c0.1,0,0.1-0.1,0.2-0.4c0-0.1,0-0.3,0-0.4V66c0,0,0,0,0-0.1h-0.2v-1h0.4v0.9c0,0.4,0,0.7-0.1,0.9
		c-0.1,0.3-0.2,0.4-0.4,0.5V66.9z"/>
	<path class="st26" d="M87.9,59.4h1.4c0.4,0,0.7,0.2,0.8,0.7c0.1,0.3,0.1,0.6,0.1,1c0,0.4-0.1,0.7-0.1,1c-0.1,0.1-0.1,0.3-0.3,0.4
		c0.1,0.1,0.3,0.3,0.4,0.4c0.1,0.3,0.2,0.7,0.2,1.2c0,0.4-0.1,0.8-0.2,1.1c-0.2,0.5-0.5,0.7-1,0.7h-1.4L87.9,59.4L87.9,59.4z
		 M89.2,62.2c0.2,0,0.4-0.1,0.4-0.1c0.1-0.1,0.2-0.4,0.2-0.9c0-0.4-0.1-0.7-0.3-0.9c-0.1-0.1-0.2-0.1-0.4-0.1h-0.8v2L89.2,62.2
		L89.2,62.2z M89.3,65.2c0.3,0,0.4-0.1,0.6-0.4C90,64.5,90,64.3,90,64c0-0.4-0.1-0.8-0.3-1c-0.1-0.1-0.3-0.1-0.4-0.1h-0.9v2.3H89.3z
		"/>
	<path class="st26" d="M91.1,59.4h0.4v0.9h-0.4V59.4z M91.1,61.2h0.4V66h-0.4V61.2z"/>
	<path class="st26" d="M93.9,61.3c0.1,0.1,0.3,0.4,0.4,0.6c0.1,0.2,0.1,0.5,0.1,0.8c0,0.2,0,0.6,0,1h-1.7c0,0.5,0.1,0.9,0.1,1.2
		s0.3,0.4,0.5,0.4s0.4-0.1,0.5-0.4c0.1-0.1,0.1-0.4,0.1-0.6h0.4c0,0.1-0.1,0.4-0.1,0.6s-0.1,0.4-0.2,0.5c-0.1,0.2-0.3,0.4-0.4,0.4
		C93.6,66,93.4,66,93.4,66c-0.3,0-0.5-0.2-0.7-0.7s-0.3-1-0.3-1.8s0.1-1.4,0.3-1.9c0.2-0.4,0.4-0.7,0.8-0.7
		C93.5,61.1,93.7,61.2,93.9,61.3z M94,63.2c0-0.4-0.1-0.6-0.1-0.8c-0.1-0.4-0.3-0.6-0.5-0.6c-0.1,0-0.3,0.1-0.4,0.4
		c-0.1,0.3-0.2,0.6-0.2,1H94z"/>
	<path class="st26" d="M95.2,61.2h0.4v0.7c0.1-0.3,0.2-0.4,0.4-0.6c0.1-0.1,0.3-0.1,0.4-0.1c0.4,0,0.6,0.2,0.7,0.7
		c0.1,0.2,0.1,0.6,0.1,1.1v3.1h-0.4v-3c0-0.3,0-0.5-0.1-0.7c-0.1-0.3-0.2-0.4-0.4-0.4c-0.1,0-0.1,0-0.2,0.1
		c-0.1,0.1-0.2,0.2-0.3,0.4c-0.1,0.1-0.1,0.3-0.1,0.5c0,0.1,0,0.4,0,0.7v2.5h-0.4L95.2,61.2L95.2,61.2z"/>
	<path class="st26" d="M99.4,61.3c0.1,0.1,0.3,0.4,0.4,0.6c0.1,0.2,0.1,0.5,0.1,0.8c0,0.2,0,0.6,0,1h-1.7c0,0.5,0.1,0.9,0.1,1.2
		c0.1,0.3,0.3,0.4,0.5,0.4c0.2,0,0.4-0.1,0.5-0.4c0.1-0.1,0.1-0.4,0.1-0.6h0.4c0,0.1-0.1,0.4-0.1,0.6s-0.1,0.4-0.2,0.5
		c-0.1,0.2-0.3,0.4-0.4,0.4C99.1,66,99,66,98.9,66c-0.3,0-0.5-0.2-0.7-0.7c-0.2-0.4-0.3-1-0.3-1.8s0.1-1.4,0.3-1.9
		c0.2-0.4,0.4-0.7,0.8-0.7C99,61.1,99.3,61.2,99.4,61.3z M99.6,63.2c0-0.4-0.1-0.6-0.1-0.8c-0.1-0.4-0.3-0.6-0.5-0.6
		c-0.1,0-0.3,0.1-0.4,0.4c-0.1,0.3-0.2,0.6-0.2,1H99.6z"/>
	<path class="st26" d="M100.9,64.5c0,0.3,0.1,0.4,0.1,0.6c0.1,0.2,0.3,0.4,0.5,0.4c0.1,0,0.3-0.1,0.4-0.2c0.1-0.1,0.1-0.3,0.1-0.6
		c0-0.2-0.1-0.4-0.1-0.4c-0.1-0.1-0.1-0.1-0.4-0.2l-0.3-0.1c-0.2-0.1-0.4-0.2-0.4-0.4c-0.1-0.2-0.3-0.5-0.3-0.9
		c0-0.4,0.1-0.8,0.2-1.1c0.1-0.3,0.4-0.4,0.7-0.4c0.4,0,0.6,0.2,0.8,0.6c0.1,0.3,0.1,0.5,0.1,0.9H102c0-0.1-0.1-0.4-0.1-0.5
		c-0.1-0.2-0.2-0.3-0.5-0.3c-0.1,0-0.3,0.1-0.4,0.1c-0.1,0.1-0.1,0.3-0.1,0.4c0,0.2,0.1,0.4,0.1,0.5c0.1,0.1,0.1,0.1,0.3,0.2
		l0.3,0.1c0.3,0.1,0.5,0.3,0.6,0.4c0.1,0.2,0.2,0.5,0.2,1s-0.1,0.8-0.2,1.1c-0.1,0.3-0.4,0.4-0.7,0.4c-0.4,0-0.6-0.1-0.7-0.4
		c-0.1-0.3-0.2-0.7-0.2-1.2L100.9,64.5L100.9,64.5z"/>
	<path class="st26" d="M103.3,59.8h0.4v1.3h0.4v0.7h-0.4V65c0,0.1,0,0.3,0.1,0.3c0,0,0.1,0.1,0.1,0.1h0.1h0.1V66
		c-0.1,0-0.1,0.1-0.1,0.1s-0.1,0-0.1,0c-0.2,0-0.3-0.1-0.4-0.3c-0.1-0.2-0.1-0.4-0.1-0.7v-3.1H103v-0.7h0.3V59.8z"/>
	<path class="st26" d="M106,63.1c0.1,0,0.1-0.1,0.1-0.2c0-0.1,0-0.1,0-0.3c0-0.3-0.1-0.4-0.1-0.6c-0.1-0.1-0.2-0.1-0.4-0.1
		c-0.2,0-0.4,0.1-0.4,0.4c-0.1,0.1-0.1,0.3-0.1,0.5h-0.4c0-0.6,0.1-1,0.3-1.3c0.1-0.2,0.4-0.4,0.7-0.4c0.3,0,0.5,0.1,0.7,0.3
		c0.1,0.2,0.2,0.5,0.2,1v2.8c0,0.1,0,0.1,0,0.2c0,0.1,0.1,0.1,0.1,0.1h0.1h0.1V66c-0.1,0-0.1,0.1-0.1,0.1c0,0-0.1,0-0.1,0
		c-0.1,0-0.2-0.1-0.3-0.3c0-0.1-0.1-0.2-0.1-0.4c-0.1,0.2-0.2,0.4-0.4,0.5c-0.1,0.1-0.3,0.2-0.5,0.2s-0.4-0.1-0.5-0.4
		c-0.1-0.3-0.2-0.6-0.2-1c0-0.4,0.1-0.8,0.2-1c0.1-0.2,0.3-0.4,0.5-0.4L106,63.1z M105.2,65.3c0.1,0.1,0.1,0.2,0.3,0.2
		c0.1,0,0.3-0.1,0.4-0.2c0.2-0.2,0.3-0.6,0.3-1v-0.7c-0.1,0.1-0.1,0.1-0.2,0.1c-0.1,0.1-0.1,0.1-0.2,0.1l-0.2,0.1
		c-0.1,0.1-0.2,0.1-0.3,0.1c-0.1,0.1-0.1,0.4-0.1,0.7C105,64.9,105,65.1,105.2,65.3z"/>
	<path class="st26" d="M107.5,61.2h0.4V62c0-0.1,0.1-0.4,0.2-0.6c0.1-0.2,0.3-0.4,0.4-0.4c0,0,0,0,0.1,0h0.1v0.8h-0.1h-0.1
		c-0.2,0-0.4,0.1-0.4,0.4c-0.1,0.2-0.1,0.5-0.1,0.9v2.8h-0.4L107.5,61.2L107.5,61.2z"/>
	<path class="st26" d="M110.8,59.4h2.2v0.8h-1.8v2h1.6V63h-1.6v3h-0.4V59.4z"/>
	<path class="st26" d="M113.7,59.4h0.4v0.9h-0.4V59.4z M113.7,61.2h0.4V66h-0.4V61.2z"/>
	<path class="st26" d="M115.2,64.5c0,0.3,0.1,0.4,0.1,0.6c0.1,0.2,0.3,0.4,0.5,0.4c0.1,0,0.3-0.1,0.4-0.2c0.1-0.1,0.1-0.3,0.1-0.6
		c0-0.2-0.1-0.4-0.1-0.4c-0.1-0.1-0.1-0.1-0.4-0.2l-0.3-0.1c-0.2-0.1-0.4-0.2-0.4-0.4c-0.1-0.2-0.3-0.5-0.3-0.9
		c0-0.4,0.1-0.8,0.2-1.1c0.1-0.3,0.4-0.4,0.7-0.4c0.4,0,0.6,0.2,0.8,0.6c0.1,0.3,0.1,0.5,0.1,0.9h-0.4c0-0.1-0.1-0.4-0.1-0.5
		c-0.1-0.2-0.2-0.3-0.5-0.3c-0.1,0-0.3,0.1-0.4,0.1c-0.1,0.1-0.1,0.3-0.1,0.4c0,0.2,0.1,0.4,0.1,0.5c0.1,0.1,0.1,0.1,0.3,0.2
		l0.3,0.1c0.3,0.1,0.5,0.3,0.6,0.4c0.1,0.2,0.2,0.5,0.2,1s-0.1,0.8-0.2,1.1s-0.4,0.4-0.7,0.4c-0.4,0-0.6-0.1-0.7-0.4
		s-0.2-0.7-0.2-1.2L115.2,64.5L115.2,64.5z"/>
	<path class="st26" d="M117.5,59.4h0.4v0.9h-0.4V59.4z M117.5,61.2h0.4V66h-0.4V61.2z"/>
	<path class="st26" d="M120.3,61.5c0.1,0.3,0.3,0.7,0.3,1.3h-0.4c0-0.3-0.1-0.5-0.1-0.7c-0.1-0.2-0.2-0.3-0.4-0.3
		c-0.2,0-0.4,0.2-0.5,0.7c-0.1,0.3-0.1,0.7-0.1,1.2c0,0.4,0.1,0.9,0.1,1.2c0.1,0.3,0.2,0.5,0.4,0.5c0.1,0,0.3-0.1,0.4-0.3
		c0.1-0.2,0.1-0.4,0.2-0.8h0.4c-0.1,0.6-0.1,1.1-0.3,1.4c-0.1,0.3-0.4,0.4-0.7,0.4c-0.3,0-0.6-0.2-0.7-0.7c-0.1-0.4-0.3-1-0.3-1.7
		c0-0.8,0.1-1.5,0.3-1.9c0.2-0.4,0.4-0.7,0.7-0.7C119.9,61,120.1,61.2,120.3,61.5z"/>
	<path class="st26" d="M122.9,61.7c0.2,0.4,0.3,1,0.3,1.8s-0.1,1.4-0.3,1.9c-0.1,0.5-0.4,0.7-0.9,0.7c-0.3,0-0.6-0.2-0.7-0.7
		c-0.2-0.4-0.3-1-0.3-1.8c0-0.8,0.1-1.4,0.3-1.9c0.2-0.4,0.4-0.7,0.8-0.7C122.5,61,122.8,61.2,122.9,61.7z M122.7,64.8
		c0.1-0.4,0.1-0.8,0.1-1.3c0-0.4,0-0.8-0.1-1.1c-0.1-0.4-0.3-0.7-0.6-0.7c-0.2,0-0.4,0.2-0.5,0.6c-0.1,0.4-0.1,0.8-0.1,1.3
		c0,0.5,0.1,0.9,0.1,1.3c0.1,0.4,0.3,0.5,0.5,0.5C122.4,65.4,122.6,65.3,122.7,64.8z"/>
	<path class="st26" d="M125.4,63h1.1v0.8h-1.1V63z"/>
	<path class="st26" d="M128.8,59.4h2.4v0.8h-1.9v2h1.8V63h-1.8v2.2h1.9v0.7h-2.4V59.4z"/>
	<path class="st26" d="M132,61.2h0.4v0.7c0.1-0.2,0.1-0.4,0.2-0.5c0.1-0.1,0.3-0.3,0.4-0.3c0.2,0,0.4,0.1,0.4,0.3
		c0.1,0.1,0.1,0.3,0.1,0.4c0.1-0.2,0.2-0.4,0.3-0.6c0.1-0.1,0.2-0.1,0.4-0.1c0.3,0,0.5,0.2,0.7,0.7c0.1,0.2,0.1,0.6,0.1,1v3.2h-0.4
		v-3.3c0-0.3-0.1-0.5-0.1-0.7c-0.1-0.1-0.1-0.1-0.3-0.1c-0.1,0-0.3,0.1-0.4,0.3c-0.1,0.2-0.1,0.6-0.1,1v2.8h-0.3v-3.1
		c0-0.3,0-0.6-0.1-0.7c-0.1-0.2-0.1-0.3-0.4-0.3c-0.1,0-0.3,0.1-0.4,0.4c-0.1,0.2-0.1,0.7-0.1,1.3v2.5H132L132,61.2L132,61.2z"/>
	<path class="st26" d="M137.8,61.7c0.2,0.4,0.3,1,0.3,1.8s-0.1,1.4-0.3,1.9c-0.1,0.5-0.4,0.7-0.9,0.7c-0.3,0-0.6-0.2-0.7-0.7
		c-0.2-0.4-0.3-1-0.3-1.8c0-0.8,0.1-1.4,0.3-1.9c0.2-0.4,0.4-0.7,0.8-0.7S137.6,61.2,137.8,61.7z M137.6,64.8
		c0.1-0.4,0.1-0.8,0.1-1.3c0-0.4,0-0.8-0.1-1.1c-0.1-0.4-0.3-0.7-0.6-0.7c-0.2,0-0.4,0.2-0.5,0.6c-0.1,0.4-0.1,0.8-0.1,1.3
		c0,0.5,0.1,0.9,0.1,1.3s0.3,0.5,0.5,0.5S137.4,65.3,137.6,64.8z"/>
	<path class="st26" d="M140.4,61.5c0.1,0.3,0.3,0.7,0.3,1.3h-0.4c0-0.3-0.1-0.5-0.1-0.7c-0.1-0.2-0.2-0.3-0.4-0.3
		c-0.2,0-0.4,0.2-0.5,0.7c-0.1,0.3-0.1,0.7-0.1,1.2c0,0.4,0.1,0.9,0.1,1.2c0.1,0.3,0.2,0.5,0.4,0.5c0.1,0,0.3-0.1,0.4-0.3
		c0.1-0.2,0.1-0.4,0.2-0.8h0.4c-0.1,0.6-0.1,1.1-0.3,1.4s-0.4,0.4-0.7,0.4c-0.3,0-0.6-0.2-0.7-0.7c-0.1-0.4-0.3-1-0.3-1.7
		c0-0.8,0.1-1.5,0.3-1.9c0.2-0.4,0.4-0.7,0.7-0.7C140,61,140.2,61.2,140.4,61.5z"/>
	<path class="st26" d="M141.3,59.4h0.4v0.9h-0.4V59.4z M141.3,61.2h0.4V66h-0.4V61.2z"/>
	<path class="st26" d="M144.3,61.7c0.2,0.4,0.3,1,0.3,1.8s-0.1,1.4-0.3,1.9c-0.1,0.5-0.4,0.7-0.9,0.7c-0.3,0-0.6-0.2-0.7-0.7
		c-0.2-0.4-0.3-1-0.3-1.8c0-0.8,0.1-1.4,0.3-1.9c0.2-0.4,0.4-0.7,0.8-0.7C143.8,61,144,61.2,144.3,61.7z M144,64.8
		c0.1-0.4,0.1-0.8,0.1-1.3c0-0.4,0-0.8-0.1-1.1c-0.1-0.4-0.3-0.7-0.6-0.7c-0.2,0-0.4,0.2-0.5,0.6c-0.1,0.4-0.1,0.8-0.1,1.3
		c0,0.5,0.1,0.9,0.1,1.3s0.3,0.5,0.5,0.5C143.7,65.4,144,65.3,144,64.8z"/>
	<path class="st26" d="M145.3,61.2h0.4v0.7c0.1-0.3,0.2-0.4,0.4-0.6c0.1-0.1,0.3-0.1,0.4-0.1c0.4,0,0.6,0.2,0.7,0.7
		c0.1,0.2,0.1,0.6,0.1,1.1v3.1h-0.4v-3c0-0.3,0-0.5-0.1-0.7c-0.1-0.3-0.2-0.4-0.4-0.4c-0.1,0-0.1,0-0.2,0.1
		c-0.1,0.1-0.2,0.2-0.3,0.4c-0.1,0.1-0.1,0.3-0.1,0.5c0,0.1,0,0.4,0,0.7v2.5h-0.4V61.2z"/>
	<path class="st26" d="M149.3,63.1c0.1,0,0.1-0.1,0.1-0.2c0-0.1,0-0.1,0-0.3c0-0.3-0.1-0.4-0.1-0.6c-0.1-0.1-0.2-0.1-0.4-0.1
		s-0.4,0.1-0.4,0.4c-0.1,0.1-0.1,0.3-0.1,0.5H148c0-0.6,0.1-1,0.3-1.3c0.1-0.2,0.4-0.4,0.7-0.4c0.3,0,0.5,0.1,0.7,0.3
		c0.1,0.2,0.2,0.5,0.2,1v2.8c0,0.1,0,0.1,0,0.2c0,0.1,0.1,0.1,0.1,0.1h0.1h0.1V66c-0.1,0-0.1,0.1-0.1,0.1c0,0-0.1,0-0.1,0
		c-0.1,0-0.2-0.1-0.3-0.3c0-0.1-0.1-0.2-0.1-0.4c-0.1,0.2-0.2,0.4-0.4,0.5c-0.1,0.1-0.3,0.2-0.5,0.2s-0.4-0.1-0.5-0.4
		c-0.1-0.3-0.2-0.6-0.2-1c0-0.4,0.1-0.8,0.2-1c0.1-0.2,0.3-0.4,0.5-0.4L149.3,63.1z M148.5,65.3c0.1,0.1,0.1,0.2,0.3,0.2
		c0.1,0,0.3-0.1,0.4-0.2c0.2-0.2,0.3-0.6,0.3-1v-0.7c-0.1,0.1-0.1,0.1-0.2,0.1c-0.1,0.1-0.1,0.1-0.2,0.1l-0.2,0.1
		c-0.1,0.1-0.2,0.1-0.3,0.1c-0.1,0.1-0.1,0.4-0.1,0.7C148.4,64.9,148.4,65.1,148.5,65.3z"/>
	<path class="st26" d="M150.8,59.4h0.4v6.6h-0.4V59.4z"/>
</g>
<g>
	<g>
		
			<linearGradient id="SVGID_23_" gradientUnits="userSpaceOnUse" x1="39.0317" y1="31.5472" x2="39.0317" y2="61.1584" gradientTransform="matrix(1 0 0 -1 0 86)">
			<stop  offset="0" style="stop-color:#4D250D"/>
			<stop  offset="1" style="stop-color:#8D6320"/>
		</linearGradient>
		<path class="st27" d="M34.2,54.5c-0.6,0-1.1-0.1-1.6-0.4c-2-1.3-3-3.4-2.8-6.3c0.1-1.3,0.3-2.7,0.7-4.2s1-3,1.7-4.5
			c0.7-1.5,1.6-3,2.5-4.4s1.9-2.8,2.9-4c1-1.2,2-2.2,3.1-3.2c1-0.9,2-1.6,2.9-2c1.5-0.7,2.6-0.7,3.5-0.1c0.7,0.5,1.1,1.2,1.3,2.1
			c0.1,0.7,0.1,1.3-0.1,2.1c-0.1,0.7-0.4,1.5-0.7,2.3c-0.3,0.7-0.7,1.5-1.1,2.2c-0.4,0.7-0.8,1.3-1.2,1.9c-0.4,0.6-0.7,1-1,1.4
			c-0.3,0.4-0.4,0.6-0.4,0.6c-0.1,0.1-0.1,0.1-0.2,0.1s-0.1,0-0.2-0.1c-0.1-0.1-0.2-0.3-0.1-0.5c0.5-0.7,1-1.3,1.3-1.9
			c0.4-0.5,0.7-1.2,1.1-1.9c0.4-0.7,0.7-1.4,1-2.2c0.3-0.7,0.6-1.5,0.7-2.2c0.1-0.7,0.2-1.3,0.1-2s-0.4-1.2-1-1.6
			c-0.7-0.4-1.6-0.4-2.8,0.2c-0.7,0.3-1.3,0.7-2,1.3s-1.4,1.3-2.2,2c-0.7,0.7-1.5,1.6-2.2,2.6s-1.4,1.9-2.2,3
			c-1.5,2.3-2.6,4.6-3.5,6.8c-0.8,2.2-1.3,4.2-1.4,6c-0.1,2.8,0.7,4.6,2.5,5.7c0.6,0.4,1.3,0.4,2,0.3c0.7-0.1,1.5-0.5,2.3-1
			c0.7-0.5,1.6-1.1,2.3-1.9s1.5-1.5,2.2-2.2c0.7-0.8,1.4-1.7,2.1-2.5c0.7-0.9,1.2-1.6,1.7-2.3c0.4-0.7,1-1.5,1.6-2.3
			c0.1-0.2,0.3-0.2,0.5-0.1c0.1,0.1,0.1,0.1,0.1,0.2c0,0.1,0,0.1-0.1,0.2c-0.1,0.1-0.2,0.3-0.4,0.7c-0.3,0.4-0.6,0.9-1,1.6
			c-0.4,0.6-0.9,1.3-1.5,2.1c-0.6,0.7-1.2,1.6-1.9,2.3s-1.3,1.6-2.1,2.3c-0.7,0.7-1.5,1.4-2.2,2c-0.7,0.6-1.5,1-2.2,1.4
			C35.6,54.3,34.9,54.5,34.2,54.5z"/>
		
			<linearGradient id="SVGID_24_" gradientUnits="userSpaceOnUse" x1="49.7967" y1="38.1893" x2="49.7967" y2="46.9455" gradientTransform="matrix(1 0 0 -1 0 86)">
			<stop  offset="0" style="stop-color:#4D250D"/>
			<stop  offset="1" style="stop-color:#8D6320"/>
		</linearGradient>
		<path class="st28" d="M47.9,47.8c-0.1,0-0.3,0-0.4,0c-0.8-0.1-1.3-0.7-1.5-1.6c-0.1-0.4-0.1-1,0-1.6c0.1-0.6,0.2-1.2,0.4-1.8
			c0.2-0.6,0.5-1.2,0.9-1.7c0.4-0.5,0.7-1,1.2-1.3c0.7-0.5,1.1-0.7,1.5-0.7s0.6,0.1,0.7,0.2c0.3,0.3,0.4,0.7,0.2,1.2
			c-0.1,0.5-0.3,1-0.7,1.3c-0.3,0.4-0.6,0.7-1,0.9c-0.4,0.2-0.7,0.4-1,0.4c-0.3,0.1-0.6,0.1-0.8,0.1s-0.4,0-0.4,0s0,0-0.1,0
			c0,0,0,0-0.1,0c-0.2,0.5-0.3,1-0.4,1.5c-0.1,0.5-0.1,0.9,0.1,1.3c0.1,0.6,0.4,0.9,1,1c0.4,0.1,1-0.1,1.5-0.4s1-0.9,1.6-1.5
			c0.5-0.6,1-1.2,1.3-1.9c0.4-0.6,0.7-1.1,0.9-1.6c0.1-0.2,0.3-0.3,0.5-0.1c0.2,0.1,0.3,0.3,0.1,0.5c-0.1,0.1-0.1,0.3-0.4,0.7
			c-0.1,0.3-0.4,0.7-0.7,1.1c-0.3,0.4-0.6,0.9-1,1.3c-0.4,0.4-0.7,0.9-1.1,1.3c-0.4,0.4-0.8,0.7-1.3,1
			C48.7,47.7,48.2,47.8,47.9,47.8z M50.1,39.8c-0.1,0-0.2,0.1-0.4,0.1c-0.2,0.1-0.4,0.3-0.7,0.5c-0.3,0.2-0.6,0.6-0.9,1
			c-0.3,0.4-0.5,0.7-0.7,1.2c0.1,0,0.2,0,0.4-0.1c0.2-0.1,0.4-0.1,0.7-0.1c0.2-0.1,0.4-0.2,0.7-0.4c0.2-0.1,0.4-0.4,0.7-0.6
			c0.3-0.4,0.4-0.7,0.5-1c0.1-0.3,0.1-0.5-0.1-0.6l0,0C50.2,39.8,50.1,39.8,50.1,39.8L50.1,39.8z"/>
		
			<linearGradient id="SVGID_25_" gradientUnits="userSpaceOnUse" x1="55.5475" y1="37.3684" x2="55.5475" y2="46.9211" gradientTransform="matrix(1 0 0 -1 0 86)">
			<stop  offset="0" style="stop-color:#4D250D"/>
			<stop  offset="1" style="stop-color:#8D6320"/>
		</linearGradient>
		<path class="st29" d="M52.5,48.6c-0.1,0-0.1,0-0.3-0.1c-0.6-0.2-0.8-0.8-0.8-1.9c0.1-0.9,0.2-1.7,0.4-2.5c0.3-0.8,0.6-1.5,1-2.2
			c0.4-0.7,0.8-1.2,1.2-1.6c0.4-0.4,0.8-0.8,1.2-1c0.3-0.1,0.6-0.2,0.7-0.2c0.2,0,0.4,0.1,0.4,0.1c0.3,0.1,0.5,0.4,0.6,0.8
			c0.1,0.4,0.1,0.7,0,1.1c-0.1,0.4-0.1,0.7-0.2,1c-0.1,0.3-0.1,0.5-0.2,0.6c0,0.1-0.1,0.1-0.1,0.2s-0.1,0.1-0.2,0
			c-0.1,0-0.1-0.1-0.2-0.2c0-0.1,0-0.1,0-0.3c0.1-0.1,0.1-0.4,0.2-0.7s0.1-0.5,0.1-0.8s0.1-0.5,0-0.7c0-0.2-0.1-0.4-0.2-0.4
			c-0.1-0.1-0.2,0-0.5,0.1c-0.4,0.2-0.7,0.5-1.1,0.9c-0.4,0.4-0.7,0.9-1.1,1.6c-0.4,0.6-0.7,1.3-0.9,2c-0.2,0.7-0.4,1.5-0.4,2.3
			c-0.1,0.7,0.1,1.1,0.3,1.2c0.3,0.1,0.7-0.1,1.3-0.4c0.6-0.4,1.2-0.9,1.9-1.6s1.3-1.3,2-2.1c0.7-0.7,1.2-1.5,1.6-2.2
			c0-0.1,0.1-0.1,0.2-0.1c0.1,0,0.1,0,0.3,0.1c0.1,0.1,0.1,0.1,0.1,0.2c0,0.1,0,0.1-0.1,0.2c-0.1,0.2-0.4,0.6-0.7,1
			c-0.3,0.4-0.7,0.9-1.1,1.3c-0.4,0.5-0.9,1-1.3,1.5c-0.4,0.5-1,1-1.4,1.3s-1,0.7-1.4,1C53.2,48.5,52.9,48.6,52.5,48.6z"/>
		
			<linearGradient id="SVGID_26_" gradientUnits="userSpaceOnUse" x1="60.7935" y1="38.6518" x2="60.7935" y2="49.142" gradientTransform="matrix(1 0 0 -1 0 86)">
			<stop  offset="0" style="stop-color:#4D250D"/>
			<stop  offset="1" style="stop-color:#8D6320"/>
		</linearGradient>
		<path class="st30" d="M63.7,41.7c0.1,0.1,0.1,0.1,0.1,0.2s0,0.2,0,0.3c-0.1,0.1-0.2,0.4-0.4,0.7c-0.2,0.3-0.4,0.7-0.7,1
			c-0.3,0.4-0.6,0.7-0.9,1.2c-0.4,0.4-0.7,0.7-1,1.1s-0.7,0.6-1,0.8c-0.4,0.2-0.7,0.3-1,0.3h-0.2c-0.3-0.1-0.4-0.2-0.6-0.4
			c-0.1-0.2-0.1-0.6-0.1-1c0.1-0.4,0.1-0.9,0.3-1.4c0.1-0.5,0.4-1,0.6-1.6c0.2-0.5,0.4-1,0.7-1.6c0.2-0.5,0.4-0.9,0.6-1.3
			c0.2-0.4,0.3-0.7,0.4-0.8c0-0.1,0.1-0.1,0.2-0.1c0.1,0,0.2,0,0.3,0.1c0.1,0,0.1,0.1,0.1,0.2c0,0.1,0,0.2,0,0.3
			c-0.3,0.6-0.6,1.3-1,2c-0.3,0.7-0.6,1.4-0.9,2.1c-0.2,0.7-0.4,1.3-0.6,1.8s-0.1,0.9-0.1,1v0.1l0,0c0.2,0,0.5-0.1,0.9-0.4
			c0.4-0.3,0.7-0.7,1.2-1.2c0.4-0.4,0.8-1,1.3-1.6c0.4-0.6,0.8-1.1,1.1-1.6c0.1-0.1,0.1-0.1,0.2-0.1C63.5,41.6,63.6,41.6,63.7,41.7z
			 M61.7,38c-0.1,0-0.3-0.1-0.4-0.1c-0.1-0.1-0.1-0.2-0.1-0.4s0.1-0.3,0.1-0.4c0.1-0.1,0.2-0.1,0.4-0.1c0.1,0,0.3,0.1,0.4,0.1
			c0.1,0.1,0.1,0.2,0.1,0.4s-0.1,0.3-0.1,0.4C62,37.9,61.9,38,61.7,38z"/>
		
			<linearGradient id="SVGID_27_" gradientUnits="userSpaceOnUse" x1="65.1282" y1="34.7182" x2="65.1282" y2="59.0004" gradientTransform="matrix(1 0 0 -1 0 86)">
			<stop  offset="0" style="stop-color:#4D250D"/>
			<stop  offset="1" style="stop-color:#8D6320"/>
		</linearGradient>
		<path class="st31" d="M60.9,51.3L60.9,51.3c-0.1,0-0.2-0.1-0.3-0.1c-0.1-0.1-0.1-0.1-0.1-0.2c0-0.4,0.1-1,0.4-1.9
			c0.2-0.9,0.5-1.9,1-3.1c0.4-1.1,0.8-2.4,1.3-3.7c0.4-1.3,1-2.7,1.5-4c0.5-1.3,1-2.7,1.5-4c0.4-1.3,0.9-2.4,1.3-3.4
			c0.4-1,0.7-1.8,1-2.5c0.2-0.7,0.4-1,0.4-1.1c0-0.1,0.1-0.1,0.2-0.2c0.1-0.1,0.1-0.1,0.3,0c0.1,0,0.1,0.1,0.2,0.2
			c0.1,0.1,0.1,0.1,0,0.3c0,0-0.1,0.4-0.4,1c-0.2,0.6-0.5,1.3-0.9,2.4c-0.4,1-0.8,2.1-1.3,3.4c-0.4,1.3-1,2.5-1.5,4
			c-0.5,1.3-1,2.7-1.5,4.1c-0.4,1.3-0.9,2.6-1.3,3.8c-0.4,1.2-0.7,2.2-1,3.1c-0.2,0.9-0.4,1.5-0.4,1.9
			C61.3,51.2,61.1,51.3,60.9,51.3z"/>
		
			<linearGradient id="SVGID_28_" gradientUnits="userSpaceOnUse" x1="67.8088" y1="38.6518" x2="67.8088" y2="49.142" gradientTransform="matrix(1 0 0 -1 0 86)">
			<stop  offset="0" style="stop-color:#4D250D"/>
			<stop  offset="1" style="stop-color:#8D6320"/>
		</linearGradient>
		<path class="st32" d="M70.7,41.7c0.1,0.1,0.1,0.1,0.1,0.2s0,0.2,0,0.3c-0.1,0.1-0.2,0.4-0.4,0.7c-0.2,0.3-0.4,0.7-0.7,1
			s-0.6,0.7-0.9,1.2c-0.4,0.4-0.7,0.7-1,1.1s-0.7,0.6-1,0.8c-0.4,0.2-0.7,0.3-1,0.3h-0.2c-0.3-0.1-0.4-0.2-0.6-0.4
			c-0.1-0.2-0.1-0.6-0.1-1c0.1-0.4,0.1-0.9,0.3-1.4c0.1-0.5,0.4-1,0.6-1.6c0.2-0.5,0.4-1,0.7-1.6c0.2-0.5,0.4-0.9,0.6-1.3
			c0.2-0.4,0.3-0.7,0.4-0.8c0-0.1,0.1-0.1,0.2-0.1c0.1,0,0.2,0,0.3,0.1c0.1,0,0.1,0.1,0.1,0.2c0,0.1,0,0.2,0,0.3
			c-0.3,0.6-0.6,1.3-1,2c-0.3,0.7-0.6,1.4-0.9,2.1c-0.2,0.7-0.4,1.3-0.6,1.8s-0.1,0.9-0.1,1v0.1l0,0c0.2,0,0.5-0.1,0.9-0.4
			c0.4-0.3,0.7-0.7,1.2-1.2c0.4-0.4,0.8-1,1.3-1.6s0.8-1.1,1.1-1.6c0.1-0.1,0.1-0.1,0.2-0.1C70.5,41.6,70.6,41.6,70.7,41.7z
			 M68.8,38c-0.1,0-0.3-0.1-0.4-0.1s-0.1-0.2-0.1-0.4s0.1-0.3,0.1-0.4c0.1-0.1,0.2-0.1,0.4-0.1s0.3,0.1,0.4,0.1s0.1,0.2,0.1,0.4
			s-0.1,0.3-0.1,0.4C69.1,37.9,68.9,38,68.8,38z"/>
		
			<linearGradient id="SVGID_29_" gradientUnits="userSpaceOnUse" x1="75.0782" y1="38.4335" x2="75.0782" y2="48.0629" gradientTransform="matrix(1 0 0 -1 0 86)">
			<stop  offset="0" style="stop-color:#4D250D"/>
			<stop  offset="1" style="stop-color:#8D6320"/>
		</linearGradient>
		<path class="st33" d="M70.3,47.6c-0.2,0-0.4-0.1-0.5-0.1c-0.2-0.1-0.4-0.4-0.6-0.7c-0.1-0.4-0.1-0.7-0.1-1.3c0-0.4,0.1-1,0.2-1.5
			s0.4-1,0.6-1.6c0.7-1.4,1.5-2.5,2.3-3.1c0.7-0.7,1.4-1,1.9-1.2c0.3-0.1,0.5-0.1,0.7,0c0.1,0.1,0.3,0.1,0.4,0.2
			c0.1,0.1,0.3,0.4,0.4,0.5c0.1,0.2,0.1,0.4,0.1,0.6s-0.1,0.4-0.1,0.5s-0.1,0.3-0.2,0.4c-0.1,0.1-0.3,0.2-0.5,0.1
			c-0.1-0.1-0.2-0.3-0.1-0.5c0.1-0.1,0.1-0.3,0.2-0.4c0-0.1,0.1-0.2,0-0.4c0-0.1-0.1-0.2-0.2-0.3c-0.1-0.1-0.2-0.1-0.5-0.1
			c-0.4,0.1-1,0.4-1.7,1c-0.7,0.6-1.4,1.6-2.1,2.9c-0.2,0.4-0.4,1-0.6,1.4c-0.1,0.4-0.2,0.9-0.2,1.3s0,0.7,0.1,1
			c0.1,0.3,0.1,0.4,0.3,0.5c0.1,0.1,0.4,0,0.7-0.2c0.4-0.2,0.8-0.7,1.3-1.6c0.6-0.8,1-1.6,1.5-2.2c0.4-0.6,0.7-1.1,1-1.5
			s0.4-0.7,0.6-1s0.2-0.4,0.3-0.6c0-0.1,0.1-0.1,0.1-0.1c0-0.1,0-0.1,0.1-0.1c0-0.1,0.1-0.1,0.1-0.2c0.1,0,0.1-0.1,0.2,0
			c0.2,0.1,0.3,0.2,0.2,0.4c0,0,0,0.1-0.1,0.4c-0.1,0.3-0.2,0.6-0.3,1c-0.1,0.4-0.2,0.7-0.2,1.1c-0.1,0.4-0.1,0.7-0.1,1.1
			s0.1,0.7,0.2,0.9c0.1,0.1,0.3,0.3,0.5,0.3c0.4,0.1,0.8,0,1.3-0.3s0.9-0.5,1.3-0.9s0.7-0.7,1-1.1c0.3-0.4,0.6-0.7,0.7-0.9
			c0.1-0.1,0.1-0.1,0.2-0.1c0.1,0,0.1,0,0.2,0.1c0.2,0.1,0.2,0.3,0.1,0.5c0,0-0.2,0.2-0.5,0.7c-0.3,0.4-0.7,0.8-1.1,1.3
			s-1,0.8-1.6,1.2c-0.6,0.4-1.2,0.4-1.8,0.4c-0.4-0.1-0.8-0.3-1-0.7c-0.1-0.3-0.2-0.6-0.3-1c0-0.4,0-0.7,0.1-1.2
			c-0.2,0.4-0.5,0.8-0.9,1.3c-0.3,0.5-0.7,1.1-1.2,1.7c-0.6,0.8-1,1.3-1.5,1.6C71,47.4,70.6,47.6,70.3,47.6z"/>
		
			<linearGradient id="SVGID_30_" gradientUnits="userSpaceOnUse" x1="93.5957" y1="30.7262" x2="93.5957" y2="59.2604" gradientTransform="matrix(1 0 0 -1 0 86)">
			<stop  offset="0" style="stop-color:#4D250D"/>
			<stop  offset="1" style="stop-color:#8D6320"/>
		</linearGradient>
		<path class="st34" d="M86.7,55.3c-0.4,0-0.9-0.1-1.3-0.2c-0.6-0.2-1-0.5-1.3-1c-0.3-0.4-0.4-1-0.3-1.6c0.1-0.6,0.2-1.2,0.4-1.9
			s0.6-1.3,0.9-1.9c0.4-0.6,0.7-1.3,1.2-1.8c0.4-0.6,0.8-1.1,1.2-1.6c0.4-0.4,0.7-0.9,1-1.2s0.5-0.5,0.7-0.7
			c0.1-0.1,0.3-0.1,0.5,0.1c0.1,0.2,0.1,0.4-0.1,0.5c-0.1,0.1-0.3,0.3-0.6,0.6c-0.3,0.3-0.6,0.7-1,1.1s-0.7,1-1.2,1.5
			c-0.4,0.5-0.7,1.1-1.1,1.7c-0.4,0.6-0.7,1.2-0.9,1.8c-0.2,0.6-0.4,1.2-0.4,1.7c-0.1,1,0.3,1.6,1.1,1.9c0.4,0.1,1,0.2,1.7,0.1
			c0.7-0.1,1.3-0.3,2.1-0.7s1.5-0.9,2.2-1.6s1.5-1.5,2.2-2.5c0.8-1.2,1.3-2.3,1.6-3.4c0.1-1,0.1-2.1,0-3.1c-0.2-1-0.5-1.9-1-2.7
			c-0.4-0.8-0.9-1.6-1.3-2.3c-0.3-0.4-0.5-0.9-0.7-1.3c-0.2-0.4-0.4-0.7-0.5-1.1c-0.1-0.4-0.1-1,0.1-1.5c0.2-0.6,0.6-1.1,1-1.8
			c0.4-0.6,1-1.2,1.6-1.9c0.7-0.6,1.3-1.2,1.9-1.7c0.2-0.1,0.6-0.4,1.1-0.8c0.5-0.4,1-0.7,1.6-1c0.6-0.3,1.2-0.4,1.7-0.6
			c0.6-0.1,1-0.1,1.4,0.2c0.4,0.3,0.6,0.6,0.7,1c0,0.4,0,0.8-0.2,1.3c-0.1,0.4-0.4,0.9-0.7,1.4c-0.3,0.4-0.6,1-0.9,1.4
			c-0.4,0.4-0.7,0.9-1,1.3s-0.6,0.7-0.8,1c-0.2,0.3-0.4,0.4-0.4,0.5c-0.1,0.1-0.3,0.1-0.5,0c-0.1-0.1-0.1-0.3,0-0.5
			c0.1-0.2,0.4-0.4,0.7-0.7c0.3-0.3,0.6-0.7,0.9-1c0.3-0.4,0.6-0.7,0.9-1.2c0.3-0.4,0.5-0.8,0.7-1.2c0.2-0.4,0.4-0.7,0.5-1.1
			c0.1-0.4,0.1-0.7,0.1-1c0-0.2-0.1-0.4-0.3-0.6s-0.4-0.1-0.8-0.1c-0.4,0.1-0.7,0.1-1.2,0.4c-0.4,0.2-1,0.4-1.5,0.7
			c-0.5,0.3-1.1,0.7-1.6,1.1c-0.7,0.5-1.4,1.1-2,1.7c-0.6,0.6-1.1,1.1-1.5,1.7c-0.4,0.5-0.7,1-0.9,1.5c-0.2,0.4-0.2,0.8-0.1,1.1
			c0.1,0.3,0.2,0.7,0.4,1c0.2,0.4,0.4,0.7,0.7,1.2c0.3,0.4,0.6,1,0.9,1.6c0.3,0.5,0.6,1.1,0.9,1.8c0.3,0.6,0.4,1.3,0.6,1.9
			c0.1,0.7,0.2,1.4,0.1,2.2c0,0.7-0.2,1.5-0.4,2.3c-0.3,0.8-0.7,1.6-1.3,2.5c-1.3,1.8-2.7,3.1-4,4C89.1,54.8,87.9,55.3,86.7,55.3z"
			/>
		
			<linearGradient id="SVGID_31_" gradientUnits="userSpaceOnUse" x1="102.4156" y1="37.3684" x2="102.4156" y2="46.9211" gradientTransform="matrix(1 0 0 -1 0 86)">
			<stop  offset="0" style="stop-color:#4D250D"/>
			<stop  offset="1" style="stop-color:#8D6320"/>
		</linearGradient>
		<path class="st35" d="M99.4,48.6c-0.1,0-0.1,0-0.3-0.1c-0.6-0.2-0.8-0.8-0.8-1.9c0.1-0.9,0.2-1.7,0.4-2.5c0.3-0.8,0.6-1.5,1-2.2
			s0.8-1.2,1.2-1.6c0.4-0.4,0.8-0.8,1.2-1c0.3-0.1,0.6-0.2,0.7-0.2c0.2,0,0.4,0.1,0.4,0.1c0.3,0.1,0.5,0.4,0.6,0.8
			c0.1,0.4,0.1,0.7,0,1.1s-0.1,0.7-0.2,1c-0.1,0.3-0.1,0.5-0.2,0.6c0,0.1-0.1,0.1-0.1,0.2s-0.1,0.1-0.2,0c-0.1,0-0.1-0.1-0.2-0.2
			c0-0.1,0-0.1,0-0.3c0.1-0.1,0.1-0.4,0.2-0.7c0.1-0.3,0.1-0.5,0.1-0.8s0.1-0.5,0-0.7c0-0.2-0.1-0.4-0.2-0.4c-0.1-0.1-0.2,0-0.5,0.1
			c-0.4,0.2-0.7,0.5-1.1,0.9c-0.4,0.4-0.7,0.9-1.1,1.6c-0.4,0.6-0.7,1.3-0.9,2c-0.2,0.7-0.4,1.5-0.4,2.3c-0.1,0.7,0.1,1.1,0.3,1.2
			c0.3,0.1,0.7-0.1,1.3-0.4c0.6-0.4,1.2-0.9,1.9-1.6s1.3-1.3,2-2.1c0.7-0.7,1.2-1.5,1.6-2.2c0-0.1,0.1-0.1,0.2-0.1
			c0.1,0,0.1,0,0.3,0.1c0.1,0.1,0.1,0.1,0.1,0.2c0,0.1,0,0.1-0.1,0.2c-0.1,0.2-0.4,0.6-0.7,1c-0.3,0.4-0.7,0.9-1.1,1.3
			c-0.4,0.5-0.9,1-1.3,1.5c-0.4,0.5-1,1-1.4,1.3s-1,0.7-1.4,1C100.1,48.5,99.7,48.6,99.4,48.6z"/>
		
			<linearGradient id="SVGID_32_" gradientUnits="userSpaceOnUse" x1="110.0524" y1="35.8757" x2="110.0524" y2="61.3557" gradientTransform="matrix(1 0 0 -1 0 86)">
			<stop  offset="0" style="stop-color:#4D250D"/>
			<stop  offset="1" style="stop-color:#8D6320"/>
		</linearGradient>
		<path class="st36" d="M103.9,50.1C103.8,50.1,103.8,50.1,103.9,50.1c-0.2,0-0.4-0.1-0.4-0.4l0,0c0.1-0.6,0.2-1.3,0.4-2.2
			s0.4-1.7,0.7-2.6s0.6-1.8,1-2.8c0.4-1,0.7-1.9,1-2.8s0.7-1.7,1-2.5s0.6-1.4,0.8-1.9c0.5-1.3,1.1-2.5,1.6-3.8
			c0.5-1.2,1-2.3,1.6-3.3c0.4-0.7,0.7-1.4,0.9-1.9c0.2-0.4,0.4-0.7,0.6-1c0.1-0.2,0.2-0.4,0.3-0.4c0.1-0.1,0.1-0.1,0.1-0.1
			c0.1-0.1,0.2,0,0.4,0.1c0.1,0.1,0.2,0.3,0.2,0.4c0,0.1-0.1,0.4-0.1,0.6c-0.1,0.2-0.2,0.4-0.4,0.7c-0.1,0.2-0.3,0.4-0.4,0.6
			c-0.1,0.1-0.3,0.3-0.4,0.4c0,0-0.1,0.1-0.1,0.1c-0.4,0.7-0.8,1.6-1.3,2.7c-0.4,1-1,2.2-1.5,3.4c-0.5,1.2-1,2.5-1.6,3.8
			c-0.5,1.3-1,2.6-1.6,3.9c-0.4,1.3-0.9,2.5-1.3,3.7c-0.4,1.2-0.7,2.2-1,3.1c0.7-1,1.3-2.1,2-3.1c0.7-1,1.3-1.9,1.9-2.6
			c0.6-0.7,1.2-1.3,1.7-1.8c0.5-0.4,1-0.7,1.5-0.6h0.1c0.3,0,0.4,0.3,0.5,0.7c0,0.4,0,1,0,1.8c0,0.3-0.1,0.7-0.1,1s0,0.7,0,1
			c0,0.2,0,0.4,0,0.4c0,0.1,0.1,0.2,0.1,0.3c0,0.1,0.1,0.1,0.1,0.1s0.1,0,0.1,0c0.3-0.1,0.7-0.5,1.3-1.1s1.3-1.3,2-2.3v-0.1
			c0.1-0.2,0.3-0.2,0.5-0.1c0.1,0.1,0.1,0.4,0.1,0.5h-0.1c-0.2,0.3-0.4,0.6-0.8,1c-0.3,0.4-0.6,0.7-1,1c-0.3,0.4-0.7,0.7-1,1
			c-0.3,0.3-0.6,0.5-0.9,0.6c-0.2,0.1-0.4,0.1-0.5,0.1c-0.1,0-0.2-0.1-0.4-0.1c-0.3-0.2-0.4-0.6-0.5-1.2c0-0.6,0-1.4,0-2.4
			c0-0.3,0-0.6,0.1-0.9c0-0.3,0-0.6,0-0.7c-0.1,0-0.2,0.1-0.4,0.2c-0.1,0.1-0.4,0.3-0.7,0.5c-0.2,0.2-0.5,0.5-0.9,0.9
			c-0.4,0.4-0.7,0.9-1.2,1.5c-0.7,0.9-1.3,1.8-1.9,2.8c-0.6,1-1.1,1.7-1.5,2.4c-0.1,0.1-0.2,0.3-0.3,0.4c-0.1,0.1-0.1,0.2-0.2,0.4
			c-0.1,0.1-0.1,0.2-0.2,0.4C104.1,50.1,104.1,50.1,103.9,50.1z"/>
		
			<linearGradient id="SVGID_33_" gradientUnits="userSpaceOnUse" x1="121.9816" y1="37.1445" x2="121.9816" y2="46.1462" gradientTransform="matrix(1 0 0 -1 0 86)">
			<stop  offset="0" style="stop-color:#4D250D"/>
			<stop  offset="1" style="stop-color:#8D6320"/>
		</linearGradient>
		<path class="st37" d="M120.6,48.9L120.6,48.9c-0.7,0-1.3-0.3-1.6-0.8c-0.1-0.3-0.3-0.6-0.4-1c-0.1-0.4-0.1-0.7-0.1-1.1
			s0.1-0.8,0.1-1.2c0.1-0.4,0.1-0.8,0.2-1.2c-0.2,0.3-0.5,0.5-0.7,0.8c-0.3,0.3-0.5,0.5-0.8,0.7c-0.3,0.2-0.5,0.4-0.8,0.5
			c-0.3,0.1-0.5,0.1-0.7,0.1c-0.4,0-0.6-0.2-0.7-0.6c-0.1-0.3-0.1-0.7-0.1-1.2c0.1-0.5,0.1-1,0.3-1.5c0.1-0.5,0.3-1,0.5-1.4
			c0.2-0.4,0.4-0.7,0.5-1c0-0.1,0.1-0.1,0.2-0.2c0.1-0.1,0.2-0.1,0.4-0.1c0.2,0,0.4,0.1,0.4,0.3c0.1,0.2,0.1,0.5-0.1,0.9
			c-0.1,0.4-0.3,0.6-0.4,0.8c-0.1,0.2-0.3,0.2-0.5,0.1c0,0-0.1,0-0.1-0.1c0,0,0,0-0.1-0.1c-0.2,0.5-0.4,1-0.4,1.6
			c-0.1,0.6-0.1,1-0.1,1.3c0,0.1,0.1,0.1,0.1,0.2l0.1,0.1c0.2,0,0.5-0.1,0.8-0.3c0.3-0.2,0.7-0.5,1-0.9c0.4-0.4,0.7-0.7,1-1.2
			c0.4-0.4,0.6-0.8,0.9-1.2c0.1-0.1,0.3-0.2,0.5-0.1c0.1,0.1,0.2,0.3,0.1,0.4c-0.1,0.3-0.2,0.7-0.4,1.3c-0.1,0.5-0.3,1-0.4,1.6
			c-0.1,0.6-0.1,1.1-0.1,1.6s0.1,1,0.3,1.3c0.2,0.3,0.5,0.4,0.9,0.4c0.6,0,1.3-0.3,2-0.9s1.6-1.4,2.5-2.6c0.3-0.4,0.5-0.7,0.7-1
			c0.2-0.3,0.4-0.7,0.7-1c-0.1-0.1-0.2-0.1-0.3-0.2c-0.1-0.1-0.1-0.3-0.1-0.4c0-0.2,0.1-0.4,0.4-0.8c0.1-0.2,0.4-0.4,0.5-0.6
			c0.1-0.1,0.3-0.3,0.4-0.4c0.1-0.1,0.3-0.1,0.4-0.1c0.2,0.1,0.3,0.2,0.3,0.5c0,0.1-0.1,0.2-0.1,0.4c-0.1,0.2-0.2,0.4-0.4,0.7
			c0.1,0,0.3-0.1,0.4-0.1c0.1-0.1,0.4-0.1,0.5-0.2c0.2-0.1,0.4,0,0.5,0.2c0,0.1,0,0.1,0,0.3c-0.1,0.1-0.1,0.1-0.2,0.2
			c-0.7,0.3-1.3,0.4-1.7,0.5c-0.4,0.6-0.8,1.3-1.3,2c-0.5,0.7-1,1.4-1.6,2c-0.6,0.6-1.2,1.1-1.9,1.6
			C121.8,48.6,121.2,48.9,120.6,48.9z M126.8,41.9L126.8,41.9c0.1-0.1,0.1-0.1,0.2-0.2c0.1-0.1,0.1-0.1,0.1-0.2
			C127,41.6,126.8,41.8,126.8,41.9z"/>
		
			<linearGradient id="SVGID_34_" gradientUnits="userSpaceOnUse" x1="134.0737" y1="38.4335" x2="134.0737" y2="48.0629" gradientTransform="matrix(1 0 0 -1 0 86)">
			<stop  offset="0" style="stop-color:#4D250D"/>
			<stop  offset="1" style="stop-color:#8D6320"/>
		</linearGradient>
		<path class="st38" d="M129.3,47.6c-0.2,0-0.4-0.1-0.5-0.1c-0.2-0.1-0.4-0.4-0.6-0.7c-0.1-0.4-0.1-0.7-0.1-1.3c0-0.4,0.1-1,0.2-1.5
			s0.4-1,0.6-1.6c0.7-1.4,1.5-2.5,2.3-3.1c0.7-0.7,1.4-1,1.9-1.2c0.3-0.1,0.5-0.1,0.7,0c0.1,0.1,0.3,0.1,0.4,0.2
			c0.1,0.1,0.3,0.4,0.4,0.5c0.1,0.2,0.1,0.4,0.1,0.6s-0.1,0.4-0.1,0.5c-0.1,0.1-0.1,0.3-0.2,0.4c-0.1,0.1-0.3,0.2-0.5,0.1
			c-0.1-0.1-0.2-0.3-0.1-0.5c0.1-0.1,0.1-0.3,0.2-0.4c0-0.1,0.1-0.2,0-0.4c0-0.1-0.1-0.2-0.2-0.3c-0.1-0.1-0.2-0.1-0.5-0.1
			c-0.4,0.1-1,0.4-1.7,1c-0.7,0.6-1.4,1.6-2.1,2.9c-0.2,0.4-0.4,1-0.5,1.4c-0.1,0.4-0.2,0.9-0.2,1.3s0,0.7,0.1,1
			c0.1,0.3,0.1,0.4,0.3,0.5c0.1,0.1,0.4,0,0.7-0.2c0.4-0.2,0.8-0.7,1.3-1.6c0.6-0.8,1-1.6,1.5-2.2c0.4-0.6,0.7-1.1,1-1.5
			c0.2-0.4,0.4-0.7,0.6-1s0.2-0.4,0.3-0.6c0-0.1,0.1-0.1,0.1-0.1c0-0.1,0-0.1,0.1-0.1c0-0.1,0.1-0.1,0.1-0.2c0.1,0,0.1-0.1,0.2,0
			c0.2,0.1,0.3,0.2,0.2,0.4c0,0,0,0.1-0.1,0.4c-0.1,0.3-0.2,0.6-0.3,1s-0.2,0.7-0.2,1.1c-0.1,0.4-0.1,0.7-0.1,1.1s0.1,0.7,0.2,0.9
			c0.1,0.1,0.3,0.3,0.5,0.3c0.4,0.1,0.8,0,1.3-0.3c0.4-0.2,0.9-0.5,1.3-0.9s0.7-0.7,1-1.1c0.3-0.4,0.6-0.7,0.7-0.9
			c0.1-0.1,0.1-0.1,0.2-0.1s0.1,0,0.2,0.1c0.2,0.1,0.2,0.3,0.1,0.5c0,0-0.2,0.2-0.5,0.7c-0.3,0.4-0.7,0.8-1.1,1.3
			c-0.4,0.4-1,0.8-1.6,1.2s-1.2,0.4-1.8,0.4c-0.4-0.1-0.8-0.3-1-0.7c-0.1-0.3-0.2-0.6-0.3-1c0-0.4,0-0.7,0.1-1.2
			c-0.2,0.4-0.5,0.8-0.9,1.3c-0.3,0.5-0.7,1.1-1.2,1.7c-0.6,0.8-1,1.3-1.5,1.6C129.9,47.4,129.5,47.6,129.3,47.6z"/>
		
			<linearGradient id="SVGID_35_" gradientUnits="userSpaceOnUse" x1="142.1191" y1="37.5325" x2="142.1191" y2="46.8837" gradientTransform="matrix(1 0 0 -1 0 86)">
			<stop  offset="0" style="stop-color:#4D250D"/>
			<stop  offset="1" style="stop-color:#8D6320"/>
		</linearGradient>
		<path class="st39" d="M138.4,48.5c-0.2,0-0.4-0.1-0.4-0.2c0-0.1-0.1-0.1-0.1-0.2c0-0.1,0-0.4,0-0.7c0-0.3,0.1-0.7,0.3-1.3
			c0.1-0.6,0.4-1.4,0.7-2.4c0.1-0.4,0.3-1,0.4-1.4c0.1-0.4,0.3-0.8,0.4-1.2c0.1-0.4,0.2-0.7,0.4-1.2c0-0.1,0.1-0.1,0.2-0.2
			c0.1-0.1,0.1-0.1,0.3,0c0.1,0,0.1,0.1,0.2,0.2c0.1,0.1,0.1,0.2,0,0.3c-0.2,0.7-0.5,1.3-0.7,2.1c-0.2,0.7-0.4,1.3-0.7,2
			c-0.2,0.7-0.4,1.2-0.5,1.8c-0.1,0.5-0.2,1-0.3,1.3c0.1-0.2,0.3-0.5,0.4-0.8c0.1-0.3,0.3-0.6,0.4-1c0.4-0.8,0.8-1.6,1.2-2.3
			s0.7-1.3,1.1-1.9c0.4-0.5,0.7-1,1.1-1.3c0.4-0.4,0.7-0.6,1.1-0.7l0,0c0.1,0,0.2,0,0.3,0s0.1,0.1,0.1,0.1c0.1,0.1,0.1,0.3,0.1,0.5
			c0,0.2,0,0.4-0.1,0.7c0,0.2-0.1,0.5-0.1,0.7c0,0.3,0,0.4,0.1,0.6c0,0,0.1,0.1,0.3,0.1c0.1,0,0.4-0.1,0.8-0.2
			c0.2-0.1,0.4,0,0.4,0.2c0,0.1,0,0.1,0,0.3c-0.1,0.1-0.1,0.1-0.2,0.2c-0.8,0.3-1.5,0.3-1.9,0c-0.3-0.2-0.4-0.5-0.4-0.9
			s0.1-0.7,0.1-1.1c0-0.1,0-0.2,0.1-0.4c-0.3,0.1-0.7,0.4-1,0.9c-0.4,0.4-0.7,0.9-1,1.5c-0.3,0.5-0.7,1.1-1,1.7
			c-0.3,0.6-0.6,1.2-0.9,1.7s-0.5,1-0.7,1.3s-0.4,0.6-0.4,0.8c-0.1,0.2-0.2,0.4-0.4,0.4C138.6,48.4,138.5,48.5,138.4,48.5
			L138.4,48.5z"/>
		
			<linearGradient id="SVGID_36_" gradientUnits="userSpaceOnUse" x1="148.7367" y1="38.6251" x2="148.7367" y2="48.5215" gradientTransform="matrix(1 0 0 -1 0 86)">
			<stop  offset="0" style="stop-color:#4D250D"/>
			<stop  offset="1" style="stop-color:#8D6320"/>
		</linearGradient>
		<path class="st40" d="M147,47.4c-0.2,0-0.4,0-0.6-0.1c-0.1-0.1-0.3-0.1-0.3-0.4c-0.1-0.2-0.1-0.4,0.1-0.8c0.1-0.4,0.3-0.8,0.6-1.3
			s0.6-1.1,1-1.7c0.4-0.7,0.8-1.3,1.3-2.2c0.1-0.2,0.3-0.4,0.5-0.7c0.1-0.2,0.3-0.5,0.4-0.7c0.1-0.2,0.3-0.4,0.4-0.7
			c0.1-0.2,0.2-0.4,0.3-0.5c-0.1,0-0.4,0.1-0.7,0.2c-0.3,0.1-0.7,0.2-1,0.4c-0.4,0.1-0.7,0.3-1.2,0.4c-0.4,0.1-0.8,0.4-1.2,0.5
			c-0.1,0-0.1,0-0.3,0c-0.1,0-0.1-0.1-0.2-0.2c0-0.1-0.1-0.1,0-0.2c0-0.1,0.1-0.1,0.1-0.1c1.2-0.5,2.1-1,2.8-1.2
			c0.7-0.2,1.2-0.4,1.5-0.4c0.4-0.1,0.5-0.1,0.7,0c0.1,0.1,0.1,0.1,0.2,0.2s0.1,0.2,0.1,0.3s-0.1,0.3-0.2,0.5
			c-0.1,0.2-0.3,0.6-0.6,1c-0.3,0.4-0.6,1-1,1.6c-0.3,0.4-0.6,0.9-0.9,1.4c-0.4,0.5-0.7,1.1-1,1.6s-0.6,1-0.7,1.4
			c-0.2,0.4-0.3,0.7-0.3,0.9c0.2,0.1,0.5,0.1,0.9-0.1c0.4-0.1,0.7-0.3,1.1-0.4c0.4-0.2,0.8-0.4,1.2-0.5s0.8-0.2,1.2-0.2
			c0.2,0,0.4,0.1,0.4,0.4c0,0.2-0.1,0.4-0.4,0.4c-0.3,0-0.7,0.1-1,0.2s-0.7,0.3-1.1,0.4s-0.7,0.3-1,0.4
			C147.6,47.3,147.3,47.4,147,47.4z"/>
	</g>
</g>
</svg>
